<svg xmlns="http://www.w3.org/2000/svg" viewBox="0 0 53 32"><path d="M32.5 6.3l.5.2.4.3v-.3l-.3-.2c0-.2 0-.3-.2-.4v-.1c.2-.2.1-.4 0-.6l.2-.1c.3 0 .4 0 .4.3l.1.4.2.4c0 .1 0 .2.2.3l.1.3v.3c0 .1-.1.3-.3.1h-.2l.2.1h.3l.2-.5v-.2c-.1 0-.1-.1 0-.1 0 0 0-.2.2 0l.2.2v.1h.1l-.1-.2-.1-.2c-.1 0-.2-.2-.4 0l-.2-.1v-.4l-.2-.2c-.2-.1-.1-.2 0-.3V5h-.1l.2.4h.2l.2.1-.3-.2v-.1h.2v-.1V5h.3c.1.1.2.2.3.1.1 0 .1 0 0 .2l.1.3c0-.1.3 0 .2-.2l-.1-.2c-.2-.1-.3-.3-.5-.3l-.2-.4.6-.3v.2c.2-.2 0-.2 0-.3 0 0-.2 0-.1-.1l-.2-.1h.1v-.1c.2-.4.1-.3.5-.5v-.1h0v-.1h.2c0-.1.1 0 0-.2h.2v.2l.1-.1c.1-.2.2-.2.3 0l-.1-.2h-.1.2l.2-.1H36l-.1-.5c0-.3.2-.3.3-.2.1 0 0 .1 0 .2h.3c0-.1.1 0 .1 0v.2h.1v-.2h.1c.1 0 .2-.2.3 0l.3.1.2.1v.2c.2 0 .2.1.1.2v.2l-.1.4-.2.6h.1v-.2c.2 0 .3-.2.4-.3h-.1-.1v-.1h.2c0 .1.2 0 .2 0h.1v.1l.2-.2h.4l.1.1h.6v-.1-.2h.3c.3-.1.5 0 .5.2l.2.1v.1h-.1l.7.4-.1-.4h.4v-.1l.4-.1h.2l-.1-.2v-.1h-.1-.1V3c.2-.1.2-.2 0-.2h.7V3l.4-.3h.3V3h.2c0 .2.1 0 .2 0l.1.1c0 .2.2 0 .2 0l.5-.2c.2 0 .5 0 .6.3 0 .2.1.1.2.1h.1l.1.1c0-.2.1-.3.3-.3h.3l.1-.2v-.1h.2V3l.3.1.1-.1-.2-.2-.1-.3h.2l.3-.1h.9v.1h.8c.2 0 .3.2.4.4h.2l-.2-.2.3-.2h.3l.1.3V3c0 .2.1.2 0 .4h.1c.2 0 0 .2.1.2h-.3-.2c0-.1-.2-.1-.2 0v.1h-.2l-.1-.2s-.1.2 0 .2l.2.2v.4l-.2.1h-.2v.2c.1-.1.2-.2.2 0h.2l.1.1c0 .2.2.2.3.2l.2.3v.1c-.3 0-.4.1-.5.3l-.2.8v.1h-.2c-.2-.2-.3-.1-.4.1v.1l-.1-.1-.1.2c-.1 0-.2 0-.1.1v.4l.1.3h.2V8l.2.1v.5c.1.1.2.2 0 .2-.1 0-.1.3 0 .4v.1c-.2 0-.2.2-.1.2v.5h-.1l-.1-.1-.5-.8-.3-.6V8v-.2-.2c.2 0 .2-.2.2-.3v-.7c.2-.2.1-.3 0-.4V6v-.2h-.2V6l.1.3c-.2 0 0 .2-.1.3v.1l-.2-.1v-.2H47h-.3c-.1.1-.2.2-.1.3V7c-.1.1-.2.3 0 .3v.1l-.3.1-.4-.1h-.1c0 .2-.1.1-.2.2 0 0-.2-.1-.2 0l-.4.1-.1.2-.1.6-.4.8c0 .1.1.1.2 0l.2.2h.1v.1h.2c0-.2 0-.2.2-.2l.2.2.1.2.1.6.1.3v.5c0 .4 0 .7-.2 1l-.2.3s-.1.2-.3 0c-.2.1-.2.2-.2.3l-.1.2-.1.3c-.2.2-.2.2 0 .3.2.2.4.4.4.7l-.1.2-.3.1c0-.2 0-.3-.2-.4.1-.1.1-.1 0-.2 0 0 0-.1-.1 0l-.2-.2-.1-.3-.3.1-.1.1v-.1-.2-.1h-.2l-.3.4H43v.2c.1 0 .3 0 .3.2h.2c0-.1 0-.2.2 0h.2l-.4.4v.2c.2 0 .2.2.3.3l.2.2v.1H44c.2.2.2.2 0 .3.2 0 .2 0 .2.3l-.1.3-.1.2c0 .2 0 .3-.2.4l-.3.3s-.3.1-.4 0c-.1.3-.3.3-.5.3v.2h-.1c0-.2-.2-.2-.3-.2-.2.1-.3.2-.3.4s0 .4.2.5c.3.1.4.4.5.7 0 .2-.1.4-.3.4-.2 0-.2.2-.4.3 0-.2-.1-.2-.2-.3a.4.4 0 0 1-.2-.2l-.2-.1s-.2 0-.2-.2H41l-.1.5v.3l.2.2.3.3.2.4.1.3v.1c-.4-.1-.5-.4-.6-.7 0-.2-.2-.3-.3-.5v-.4a2.8 2.8 0 0 0-.2-.9v-.1c-.1 0-.2-.2-.2 0h-.2-.2v-.1l-.1-.4-.1-.2a.5.5 0 0 1-.3-.3v-.1h-.2l-.3.1c-.1 0-.3 0-.3.2v.2c-.3 0-.3.2-.5.3-.1.1-.2.3-.5.4V19.2c0 .3-.2.4-.3.6h-.2l-.1-.4-.4-.8c-.2-.3-.3-.6-.3-1v-.2h-.1c0 .2 0 .2-.2.2H36l-.1-.2h.1v-.2h-.2l-.4-.4h-1.5v-.1c-.1-.2-.2-.2-.3-.1h-.2c-.3-.1-.6-.2-.7-.5l-.2-.1c-.1 0-.2 0-.2.2l.3.3.2.3v-.1l.1.1v.1l.1.2.5-.2.2-.2v.2c0 .1.1.2.3.2.2 0 .3.2.3.3l-.2.3c0 .2-.1.3-.3.4h-.1c0 .3-.3.2-.4.3H33c0 .2-.2.2-.3.3l-.5.2-.5.2-.2-.1-.1-.5-.5-.8-.2-.2c0-.2 0-.4-.2-.5l-.2-.3-.3-.3v-.1l-.1.1h-.1l-.2-.3.2.3.3.7.1.2c.3.1.2.3.3.5v.2c.2.1.3.3.3.4 0 .2.1.2.2.3.2 0 .2.2.3.2l.2.2c-.1.2.1.2.2.3h.7l.3-.2.1.1v.5l-.5.6-.4.5-.6.5-.4.6c0 .1-.2.2 0 .4v.1l.1.5v.7c0 .2-.1.3-.3.4l-.7.5v.1l.1.6-.2.2h-.2c0 .1-.1.1 0 .2l-.2.4-.5.7-.7.4h-.8l-.3-.1c0-.4 0-.8-.3-1.1l-.2-.3V25l-.4-.7v-.2c0-.3 0-.6.3-.9v-.2l-.1-.6c-.1-.2-.1-.5-.4-.7l-.1-.1c-.1-.1-.2-.3-.1-.5v-.5c0-.2 0-.2-.2-.2h-.3-.1c-.2-.4-.3-.4-.7-.3l-.4.2H24a1 1 0 0 0-.7 0H23l-.6-.4-.1-.3-.1-.2a.6.6 0 0 1-.3-.3c-.2 0-.2-.2-.2-.3-.1-.2 0-.3 0-.4v-1.2l.4-.6.6-.4.2-.4c0-.2 0-.3.2-.4.1-.1.3-.2.4-.5h.3s.1.1.2 0h.4c.3-.2.5-.2.7-.2H26.1v.2c.1 0 0 .2 0 .2v.2l.5.1c.1 0 .3 0 .3.2l.1.1.4.2h.2v-.2c0-.2 0-.2.3-.3l.3.1.4.1.3.1h.9l.2-.1.1-.4v-.5h-.8s-.2.1-.2 0c0 0-.3 0-.4-.2l-.1-.1v-.1-.2c0-.2 0-.3-.2-.3 0 0-.2 0-.2.2H28c0 .1 0 .3.2.3v.1l-.1.2v.1h-.2c0-.1-.2-.2 0-.3h-.2l-.2-.4V14c0-.2-.1-.4-.3-.4l-.3-.2-.2-.2h-.1V13l-.1-.1h-.2v.3c.2 0 .2.2.3.3a30.3 30.3 0 0 1 .7.5H27v.1c0 .1 0 .4-.2.4v.1c0 .1 0 .1-.2 0h-.2v-.1h.3l.2-.2-.1-.3-.5-.2a2 2 0 0 1-.4-.5c0-.2-.1-.2-.3 0l-.3.1h-.1-.2l-.2.1c0 .2 0 .3-.2.3l-.2.2v.4c-.2.2-.3.3-.5.3h-.3c-.1.1-.2.1-.2 0 0 0-.1-.1-.2 0-.1 0-.2 0-.2-.2v-.1c-.2-.1 0-.3 0-.4v-.5-.1l.3-.1h.8c0-.2.2-.4 0-.6l-.3-.3h-.1v-.1h.3l.1-.2h.3c.3 0 .3-.4.5-.5v-.1c0-.2.2-.2.3-.2 0 0 .2-.2.3-.1l.1-.2v-.3l-.1-.1s.2-.1 0-.2l.3-.2V10.6c-.1.2-.1.3 0 .4 0 0 .1.3.2.1h.2l.2.1.4-.2c.1 0 .2-.1.2 0h.2c0-.1.3 0 .2-.3v-.3c0-.2.1-.2.2 0h.1l.1-.1-.1-.3v-.2h.3c.2 0 .3 0 .4-.2h.1c-.3-.2-.5 0-.7 0h-.3c-.2-.1-.2-.2-.2-.4v-.4-.1l.4-.4v-.2h-.4l-.1.3-.2.3c-.3.2-.3.4-.3.7v.1c.3.2.3.3 0 .5v.5s0 .1 0 0l-.1.2h-.2l-.2.1v-.2L26 10v-.2h-.1v.1l-.4.3-.3-.1V10s.1-.2 0-.1v-.1c.2 0 0-.2 0-.3l.2-.1h-.2V9c.1 0 .1-.1.2 0V9h.1l.2-.3c0-.2.3-.2.4-.4V8s0-.3.2-.3c0 0 .2-.1 0-.2l.2-.1h.1v-.1c-.1 0 0-.1 0-.1V7 7h.1v-.1c.1.2.2-.1.2 0h.2c.1 0 .1-.1 0-.2h.2l.2-.2h.1v.1l.1-.1h.1v-.1h.1v.2l.1-.1h.4l-.2.2c.1 0 .2.2.3 0h.1v.1l.3.1h.3l.5.4.2.3-.2.2a1 1 0 0 1-.5 0l-.4-.2c0 .1 0 .2.2.3V8l.1.2c0 .2.2.2.4.3h.1l-.1-.1-.1-.1V8l.3.2h.1V8 8c.2-.1.3-.3.5-.1v-.3-.1c0-.2 0-.3-.2-.4l.4.1v.2h-.1l.2.2h.1c.1-.3.3-.4.4-.5h.2v-.1l.1-.1V7h.2l.1-.1.3-.1s.1-.1.1 0V7h.1l.1-.2v-.2c-.1 0 0 0 0-.1h.1zM30.7 14c.1 0 .2 0 .2-.2v-.2l-.6-.4c-.1 0-.1 0 0-.2l.1-.3a26.2 26.2 0 0 0-.7.3h.3v.1l-.2.1c-.1 0-.2.1-.2 0s-.1-.1 0-.2l-.3-.2h-.1l-.2.4-.1.2v.1l-.1.2.2.3.5-.1h.7l.5.1zm2-1.2l-.2-.2-.4.1-.3.2c-.1.1-.1.2 0 .4.1.4.3.5.5.7v.6c.2.2.4.3.7.2v-.1l-.1-.4V14l-.1-.1-.1-.4c-.2 0-.3-.2-.3-.3-.1 0-.1 0 0-.1 0-.3 0-.2.2-.2v-.2zm8-2.8l-.3.7-.1.2h-.1.2l.4-.4V10v-.3l-.2-.1v.1zM29.8 21.7l.1-.1v-.1l.3-.2h-.4l-.1.1V21.7zm3.7-8.7h.3v-.4h-.1v.1c-.2 0-.2.1-.2.3zm0 0M14.3 31.3c-.2 0-.2.2-.2.3l-.1.1c-.2 0-.3-.2-.4-.3l.1-.1v-.1h-.1c0-.2-.2-.3-.3-.4 0 0-.2 0 0-.2-.1 0-.1 0 0 0v-.3-.1L13 30v-.2h.1l.1-.4v-.4l-.1-.2-.1-.1v-.2-.5c-.1 0 0-.2 0-.2l.1-.6v-.5-.6-.7-.8c0-.3-.2-.4-.5-.6l-.3-.2-.3-.3-.2-.5-.4-.6c-.2-.1-.2-.3-.2-.4v-.2l.2-.1v-.1h-.2v-.3l.1-.2.4-.4s.2-.1 0-.3h.1l-.1-.6-.1-.2h-.1l-.2.2c-.2 0-.2-.1-.4 0l-.1-.2-.2-.2s0 .1 0 0h-.2v-.2l-.2-.3-.7-.1-.3-.3c-.1-.1-.2-.2-.3 0-.2 0-.4 0-.5-.2a7 7 0 0 1-.7-.3l-.4-.2v-.3-.3l-.5-.6-.1-.3c-.2-.2-.4-.5-.4-.8 0-.1-.2 0-.2-.2v.5c.2.3.4.6.4 1l.2.2h-.1l-.1-.1-.2-.3-.2-.3h-.1s-.2-.2 0-.2c.1 0 0-.1 0-.2l-.3-.6c0-.3-.2-.5-.5-.6l-.1-.5V14L5 14v-.3c-.2-.2 0-.4 0-.7v-.2c.2-.4.4-.7.3-1.2 0 0 0-.1.2 0h.2l-.1-.5-.3-.2v-.1l-.1-.1v-.2c.2 0 0-.2 0-.3 0 0-.1 0 0 0v-.2H5v-.1c0-.1 0-.3.2-.3h-.1v-.1L5 9.2c.1-.2 0-.3 0-.4.2-.3-.2-.5 0-.7V8H5V8.4l-.2-.2a.8.8 0 0 0 0 .2h-.2V8l-.1-.2v-.2h-.2L4 7.5h-.1l-.1-.2s-.2-.1-.1-.2c0-.2-.1 0-.1 0L3.5 7h-.2c0 .3 0 .3-.2.3l-.3.2h-.2.1c0-.1.2-.1 0-.2L3 7h.2v-.1c-.2 0-.4.2-.5.3h-.2c-.2 0-.2.1-.1.3l-.4.3-.4.2-.2.1-.4.3H.7l-.6.3v-.1c.2 0 .4-.2.5-.3.3 0 .7-.3.8-.4l.3-.3.1-.2h-.1-.1-.1c0-.1-.1-.2-.3-.1V7l.1-.3c0 .2-.1.1-.2.1H1v-.1-.2h.2L1 6.3l.1-.2c.1-.1.1-.3.3-.3 0-.3.2 0 .4-.1l.2-.1.3-.1.1-.3V5H2c-.4 0-.4 0-.3-.3v-.2s-.1 0 0-.1l.4-.1.2-.1c.1 0 .2 0 .1.1v.1l.3.1s.1 0 0-.1H3h-.2v-.2-.1c-.2 0-.1-.1-.1-.2v-.7H3l.4-.1.6-.3h.1c0-.2.2-.1.3-.1h.2l.1-.1H5l-.1.2h-.1.2c.1.1.3 0 .2.3v.1H5.5c.1.2.4.5.6.5H6l.1.2c.2 0 .3.2.4.4l.1.2c.4 0 .7-.2 1-.3H8l-.1.1-.5.2.5-.1.2-.1h.1v-.2s.1 0 0 .1v.4l.1.1.1-.1.2-.1v.2h-.1.1L9 5c0 .2.2.4.5.4l.1.2s0 .1-.1 0l-.2.2h.1l.5.2c.2-.1.2 0 .2.1v.3h.1V6c0-.1.1-.2.3-.2l.2-.1h-.3v-.1h.3c0 .2 0 .3.3.3 0 .2.2.3.3.2.2.1.3 0 .4-.1 0-.1.1-.1.2 0v.1c-.1.1 0 .3 0 .4v-.2s0-.2.2-.2c.1 0 .2 0 .3-.2h-.1s0-.3.2-.2a16.8 16.8 0 0 1-.3-.4l.2-.4h.1c0-.2.2-.2.2-.2l.1.1v.6l-.1.2v.1c.1 0 .1 0 0 0v.4h.1l.1-.2h.1v.7h.1l.3-.4c0-.1.2-.1.1-.2l.1-.2h.2l.2.3v.2c-.3 0-.2.2-.2.2v.2l-.4.3V7v-.2h-.1V7.2l-.1-.1h-.2v.2c-.2.1-.3.2-.4 0l-.1-.1c0 .2.1.2.2.3 0 0 .1 0 0 0l-.2.3h-.2c-.1.2-.2.2-.3 0h-.1l.1.3h-.2c0 .1 0 .2-.2.2-.2.2-.4.4-.5.8v.2h.1v.5c.3 0 .5 0 .6.3.2.2.4.3.7.3V11c-.1 0 0 0 0 0v.4H12.8l.1-.3v-.5l.6-.3v-.3l-.1-.4v-.1l.2-.2v-.3-.1c.1-.1.2-.1.1-.3 0 0 0-.2.2-.1.1 0 .3.1.4 0l.2.2c0 .2.1.3.3.3v.8h.1c.2 0 .3-.1.4-.3l.2-.3v.3l.1.2v.2l.1.3v.3l.4.3v.1l-.3.2h.1c.2-.2.4 0 .5 0 0 .3-.1.5-.3.5l-.3.1c-.1.2-.3.2-.4.2l-.6-.1h-.1l-.8.7.2-.2.6-.2.2.1-.2.1v.1h.1c0 .3 0 .4.3.5h.1l-.4.2-.2.2h-.1V13l.1-.1h.1v-.1h-.3c-.1.3-.4.1-.5.3l-.2.3v.2h-.1-.2-.2l-.1.3s0 .3-.2.2l-.1.3-.1-.3v.6c-.2 0-.1 0 0 .1l-.5.4-.4.3c-.2.1-.2.3-.1.4V16.8h-.1c-.1-.2-.3-.4-.2-.6l-.2-.3H11 10.2l-.3.2c-.1-.2-.3-.1-.4-.1h-.2l-.2.1c-.2 0-.2.2-.2.4l-.2.7c0 .4.2.8.5 1l.2-.1H9.7l.2-.4s0-.2.2-.2h.3c.1 0 .1 0 0 .1v.4s0 .2-.2 0v.5H10.7l.2.2v.2c-.2.3-.1.5 0 .7.2.1.3.2.4 0 .3 0 .4 0 .6.2l.3-.4.5-.3h.1V19.4l.5-.1c0 .2.2.1.2.1H14.4v.1l.2.1.1.2.3.1c0 .1 0 .2.2.2l.3.1c.2 0 .4 0 .6.3l.3.5v.1l-.2.2h.4v.1h.4l.3.1c0 .1 0 .3.2.2h.4c.2 0 .3 0 .5.2l.3.2c.1 0 .3.2.2.4 0 .1 0 .3-.2.4l-.2.4h-.2V24.3l-.3.6v.2c-.2.2-.3.2-.5.2h-.1l-.2.1-.4.4v.4l-.3.6v-.2.1c-.1.1-.3.2-.2.4H16v.1h.1l-.1.3h-.7v-.1.1c.1.1.2.1.1.3l.2.2s0 .2-.3.3H15v.5h-.3-.2v.1c0 .1 0 .3.3.1v.2h-.2v.4l-.1.1-.2.2.3.3s.1.1 0 .2c0 .1-.2.2-.1.4-.2.2-.2.3-.1.5v.1zm-3-18.8l-.2.1v.2l-.2.4v.2l.3-.2c0-.2 0-.4.2-.6h.2c.1.1.2.2 0 .3v.1c.2-.1.2 0 .2 0v.2h.1l.1-.4h.2l-.1-.3h-.7zm.1-.2h.1c.1.1.1 0 .1 0 0-.1-.1-.4-.3-.4 0 0-.1-.1-.1 0-.3 0-.5.2-.7.3h.1l.1.1.3-.1h.1c0 .2.2.2.3.1zM7.8 6h-.2.4l.1.1h-.2l-.2.3h.4l-.2.1h.3c.1-.2 0-.2.2-.1h.1l.1-.2.1-.1h-.4l.1-.1h.1v-.1h-.7zm.7 1.9h.1a65 65 0 0 0 .6-.3H9l-.3.1-.3-.3h.1c-.2 0 0 0 0 .1 0 .2 0 .2-.2.3 0 0-.1.2-.2 0V8c0 .2.3.2.4 0h.1zm1.5 2.9v-.3h-.1c-.1 0 0 .4 0 .4v.4l.2-.1V11v-.3zm0 0M17.6 7h0l.1-.1s.2 0 .1-.1h.1l.1-.3-.4-.3V6l.3.1v-.3c0-.1-.1-.2-.2 0h-.1c-.2-.1 0-.2 0-.2h0v-.2c.2 0 .2-.1.1-.2V5v-.4-.3V4a1 1 0 0 0-.3-.2H17l-.2-.1h-.1l-.2-.2c.2 0 .1 0 0-.1v-.2h.5v-.1l-.2-.1h-.1V3c-.1 0-.3-.2-.2-.3l.2-.1.5-.2c.3.1.3 0 .4-.2h.1V2h-.2v-.2l.6-.3s.1.1.2 0v-.2l.2-.2v.2l.1.1c0-.3 0-.4.4-.3h.1l.2-.1-.2.5h.1c0-.2.1-.3.2 0l.2-.1V1h.2v.3c0 .1 0 .2.3.2v-.1V1c-.1 0 0 0 0 0h.1l.1-.2.3-.1h.4c0-.1 0-.3.1-.2.3-.1.5.1.7.1l.3.2h-.3-.3s-.1.1-.1 0c0 .1-.2 0-.2 0L21 1V1c.3 0 .5-.2.8 0h.2l-.1.1h.1l.4.1v.2c-.2.1-.5.2-.7.1l-.7.1v.1h.1c.2 0 .5-.2.7 0h.1-.2v.1h.3c0-.2.2-.1.2-.1v.1l-.1.2-.4.4.6-.3V2c.1 0 .1-.2.2 0l.4-.2.3.2-.2.3H23c0 .2-.1.1-.2.1h-.2l.1.1h.1v.2h-.3-.1.2v.1c-.2.2-.2.5-.3.8 0 0 0 .2 0 0h-.1v.1l.1.1c0 .1 0 0 0 0V4h.1v.2h-.2l-.2.1.1.1v.1c.2.1 0 .2 0 .3v.4h-.2v.1c.2 0 .1.1.1.2h-.3-.1v-.1l-.3.3c.2 0 0 .1.2.2l.2.2v.5c0-.1 0 0-.2 0l-.1-.3-.2-.1h-.1V6v.2h.2l-.2.2-.1.2h.2l.4.1a2 2 0 0 1-1 .5s-.2.2-.3 0l-.1.2-.2.2c-.1.2-.3.3-.5.3v-.2.1l-.3.2s-.1.1-.2 0v.2c-.1 0 0 .1 0 .2l-.2.2s-.2 0 0 .1c-.3 0-.1.1-.1.1l-.2.4v.2h-.1c-.1 0-.3 0-.3-.2H18s-.1.1 0 0c0-.1-.2 0-.2-.2v-.3l-.2-.3v-.2h.1l-.2-.1v-.5l.1-.2h-.1.1v-.1l.1-.2zm0 0M45.5 27.1l-.3.1H45l-.5.2c-.1.3-.3.2-.5.2s-.3 0-.5.2c-.2 0-.4 0-.5-.2v-.1c.2-.1.2-.3.1-.5v-.7s-.2-.2 0-.3c-.2-.3 0-.5 0-.7h.1c.2-.3.5-.3.7-.4l.4-.1.3-.4.1-.2.1.1c0-.1 0-.2.1-.1h.1l.2-.4h.2l.2.1h.3v-.3l.4-.2h.1v-.1l.6.1h.1v.2c-.2.1-.2.3 0 .5l.4.3h.3v-.6l.2-.6h.1l.1.4s0 .2.2.2v.1l.2.7.2.2c.2.1.2.3.2.4l.1.2.1.1v.1l.3.4V27l-.3.6-.1.1-.2.2-.3.4-.1.5-.2.1c-.2 0-.3.2-.5.3 0-.1-.2-.1-.2-.3l-.1.1h-.3-.1c-.2-.1-.3-.3-.2-.5v-.3c-.4.1-.1 0-.1-.1v-.2l-.1.2h-.2l.2-.4-.4.3-.2-.5-.6-.3zm0 0"/><path d="M18.1 1.2H17.8h.2v.1l-.5.3-.3.2H17 17V2h-.3v-.1.2h-.2c-.1-.1-.2-.1-.2 0l.1.3-.1.2H16v.1h-.2v.1l-.3.2-.1.1.1.1v.2h-.4s-.1-.1-.2 0l-.1-.2h-.2s0 .1 0 0h-.4v-.3h.4v-.2-.2l.2.1c0 .2.1.2.2.2v-.3l-.2-.1v-.2c.3-.2.3-.2.6 0V2c-.1 0 0 0 0-.1v-.3s-.2-.2 0-.2v-.2h.2l.2.3c0-.2 0-.2.2-.2h.6c0-.1-.3 0-.1-.2l-.3.1h-.2s0-.1-.1 0h-.2c-.1 0-.2-.1 0-.2h-.2l-.1-.2h.3-.3V.6h.1V.4h-.1c.1-.1.2-.3.3-.1l.1-.1.2.1h.1s-.1-.2 0-.2h.1l.1.1h.2V.2 0h.1v0h.1l.1.1V0h.2l.1.2.1-.2.3.1h.3l.1.1.2.1h.1v.1l-.1.1c.2-.2.3 0 .3 0v.2c.2 0 .2.2.1.3l-.5.2zm0 0M14 4.3h.1v.1c-.3.1-.3.4-.4.6v.2h.1l.1-.3v-.1l.2-.3h.3c.2-.1.2 0 .2.1 0 .2 0 .3-.2.5.1 0 .2-.2.3 0h.1V5h.3c0 .1.1.2 0 .2l.1.1V5.6h.1l.1-.1.1.1h-.1v.1h.1c0 .2 0 .2.2.1V6.1h.1v.1h-.1v.1l.2.1h-.2l-.1.2s.2 0 .1.2l.1.1c.1 0 .2 0 .2.2l.2.1.1.2h-.1v.1l-.2.1-.1.2h-.1v-.3l-.2-.1v-.1l-.2.1.1.5.1.3-.1.3L15 8c0 .2 0 .3.2.4v.2H15l-.4-.4s-.2 0 0-.2h-.1c-.1-.4-.3-.3-.6-.3h-.2l.1-.2c0-.1.1-.1.2 0h.4v-.2-.1L15 7v-.4-.1c-.2 0-.1-.3-.3-.1v-.2-.3h-.1v-.2c-.1 0 0 0 0 0h-.1V6h-.2H13.9l-.4-.2h-.2l-.2-.3v-.1H13.3c-.2-.1-.2-.2-.1-.4l.6-.6h.2zm0 0M10.7 4c.1.1.2.1.2 0v-.1.7l.1-.1.2-.5.1-.2.2.3-.3.7.3.5v.1h-.2c0-.1-.1.1-.2 0v.1h.1v.2l-.4-.1c0-.1-.2-.1-.1-.2h-.1c-.3.2-.6.2-.9.2-.1 0-.1-.2 0-.2 0-.2 0-.2-.2-.2-.1 0-.2-.1-.2-.3 0 0 .1-.2.2-.1h.5l.2.1-.1-.2h-.3l-.3-.1v-.2l.4-.1h-.2v-.1c-.3 0-.2-.2-.1-.2l.8-.4V3.9l.1-.1.2.1V4h-.1zm0 0M46.5 21.7l-.2-.2s.2-.2.3-.1c0 0 .2 0 .2.2l.1.2c.2 0 .3 0 .3-.2h.3l.9.3.3.3.2.1s.1 0 0 .1v.2l.5.4v.1h-.2c-.3 0-.3-.2-.5-.3v-.1c-.2-.2-.4-.1-.5 0v.2l-.4-.1-.3-.1h-.2a4 4 0 0 0 .2-.2c0-.2-.2-.4-.4-.4l-.3-.2s-.1-.1-.2 0c-.1-.1-.1-.2 0-.2h0zm0 0M42.8 21.5h-.1V21h.3v-.2c.2 0 .3-.2.4-.3h.1l.3-.3V20l.2.1.2.1-.2.2v.3s0 .2.2.3c-.2 0-.2 0-.2.2l-.2.2v.3c-.1.2-.2.2-.3 0H43c-.2 0-.2 0-.2-.3zm0 0M31.6 25.3V25v-.3c0-.1.2-.2.1-.5 0-.2 0-.4.4-.4l.3-.2.2-.4.2.6s-.2-.1-.1 0v.2l-.2.6-.3.6c0 .3-.4.4-.5.2l-.2-.2zm0 0M31.6 6.2h-.3V6c0-.1-.1-.2-.3-.2H31v-.2l.1-.1c-.1-.2 0-.3 0-.4v-.3c0-.1.1-.2 0-.4.2 0 .2-.2.3-.3l.2-.3.3-.1.1-.2.3-.1h.1v.3c-.3.2-.5.3-.6.6l-.2.2V5s0 .2-.2.2c.2.1 0 .3 0 .4l.4.5s.1 0 0 0v.1zm0 0"/><path d="M14.6 1h.3V.8.7h.2V.6l.2.1V2h-.1-.1l-.2.2-.2.1c0-.2 0 0-.1 0l-.2-.1V2 2c0-.2 0-.2.2-.1h.1v-.1h-.2v-.2-.2s0-.2.2 0h.1v-.1l-.2-.1V.9zm0 0M47 13.4v.9h-.1c-.1.2-.3.3-.4.2v.2l-.2.1-.1-.2c-.2 0-.4 0-.6.2.2 0 .1.1.2.2v.3s0 .1-.2 0c0 0-.1 0 0-.1V15h-.1-.1l.4-.6h.4v-.1l.1-.4.2.1.1-.2c0-.2.2-.4 0-.6V13h.1v-.1l.4.5zm0 0M10.4 3.4l-.1.2c-.2 0-.5 0-.7.2l-.3.3h-.1H9h-.2V4c-.1-.4.2-.4.3-.6 0-.1.3-.2.3-.4v-.1h.5l.2.2c.2 0 .2 0 .2.2zm0 0M41.9 22.3l-.4-.3-.4-.6-.6-.9h-.1v-.2c.4 0 .5.3.7.5l.4.2.2.2V21.5h.1c0 .2.4.2.3.5 0 .2 0 .3-.2.3zm0 0M24.6 11.4h.1v.2s-.2.1 0 .2l-.5.1-.4.2h-.1c.1-.2.2-.3.4-.3l-.3-.1c0-.1.2-.2 0-.3h.2V11c0-.2 0-.1-.2-.1v-.1-.2.1h-.1v-.6l.3-.1v.2c.2 0 .2 0 .1.2v.2c.2.3.4.4.4.7h.1zm0 0M14 3.2l.2.3c.2.1.3 0 .4 0 .2 0 .3 0 .5.2L15 4l-.3.1h-.3l-.4-.2v-.1h-.2-.2v-.4l.2-.2s0-.2-.2-.2l-.1-.3.1-.1h.2c0 .2 0 .4.3.3v.2zm0 0M11.2 3h.1c-.1 0-.2-.2-.4-.1l-.2-.2v-.1h.2v-.1h.1v-.1a22.2 22.2 0 0 1 .3-.2c0 .1.3.2.2.4 0 .1 0 .2.2.2l.1-.3.2-.3v.1a8.8 8.8 0 0 1 0 .4h.2v.2c0 .2-.3.3-.5.2h-.4-.3-.1V3h.3zm0 0M26.2 3.8H26v-.1l.2-.1v-.2.1l-.1-.1v.1l-.1.1h-.1l-.2-.3v-.1h-.1c0-.2.2-.4.3-.3V3h.1v.1l.2.2V3 3v-.1l.2.2.3.3-.2.2v.8h-.1-.1l-.1-.2L26 4v-.1h.1l.1-.1h0zm0 0M52 30.2v.2l-.3.3c0 .2-.2.1-.2.2l-.4.4-.3.3h-.2l-.1-.2c-.2 0 0-.2 0-.2l.5-.4c.2-.2.4-.2.5-.5l.3-.3.2.2zm0 0M21.6 8v.2l.2-.2c.1-.1.3 0 .4 0h.3v-.1l.1.3-.1.3-.4.2h-.6l-.1-.1.1-.2h-.1l-.1-.1h.1l.1-.2h-.2c0-.1 0-.3.2-.1v-.1l.1.1zm0 0M52.3 29.9v-.2c-.2 0-.2-.1 0-.2.2-.3.1-.6 0-.9v-.2l.2.1c.2.1 0 .3 0 .4v.1h.1v.1c.1.2.2.2.3.1h.1v.1c0 .1-.1.3-.3.3 0 .3-.3.4-.4.6h-.1V30l.1-.2zm0 0M11.8 4.3L12 4l.1.1.1.1c0-.1.1-.2 0-.2l.1-.1c0-.2.1-.2.3-.1h.2V4l-.3.2c.2 0 .1.2.2.3l-.3.3-.2.1-.2-.4v-.2zm0 0M46.4 10.8c0 .3 0 .5.3.6v.2c-.1 0-.2-.2-.2 0v-.2l-.3-.7-.3-.6a11 11 0 0 1-.2-.5c.2 0 0-.1 0-.2h.1l.2.2c0 .4.3.7.5 1 0 0 .2.2 0 .2h-.1zm0 0M16.3 12s.2 0 0 .1v.2h.2v.2h-.2v-.2l-.2.2v-.1h-.5v-.1l.4-.7.2-.1-.1.2-.1.2h.2c-.1.2 0 0 0 0zm0 0M40.7 2s-.3 0-.3-.2l-.1-.2v-.3c.2 0 .2.1.3.2h.1v-.2h.2c0 .2.1.4.3.4L41 2c-.1 0-.2 0-.1.1h-.2zm0 0M44.6 21.8h-.1v.3l-.2.1-.1-.3v-.1c0-.2 0-.4.2-.6l.3-.1h.5l-.2.1h-.5s-.1 0 0 .1v.2h.1l.3-.1c-.1.2-.4.2-.1.4v.2H44.7v-.2zm0 0M34.3 1.6l.1-.5h.4l.2.4.1.2h-.5-.2a3 3 0 0 1-.1-.1zm0 0"/><path d="M13.1 3.9l.4.2c0 .2-.2.3-.3.4H13s-.1-.1-.1 0l-.2.3v-.1c0-.2 0-.4.2-.6L13 4zm0 0M46.6 12.4v-.5l.2.1c.1 0 .2.2.3.1l.1.1c.2.1 0 .2 0 .2l-.2.2c0 .1 0 0 0 0-.2 0-.3-.1-.4 0l.1.2h-.1l-.1-.3s0-.2.1-.1zm0 0M23.2 11l.2-.1h.3v.4c0 .1 0 .3-.3.3h-.2-.2v-.1s.2-.2 0-.2V11h.2zm0 0M11.2 1.6H11.5v.2l-.2.1-.3.3v-.1-.2l-.1.1-.3.3v-.1V2h-.1-.2V2l.3-.2.5-.2h.1zm0 0M26.8 2.6v-.1.1h.1c.1-.1.2 0 .4 0v.2l-.1.2-.2.1h-.4V3l.1-.1h-.1l-.2-.1v-.1-.2l.2.1.1.1zm0 0M13.3 7.8h.1V8l-.2-.1-.1-.2-.1.1-.2.2h-.1v-.1c-.3 0 0-.2 0-.3l.2-.4c0 .2.3.2.3.4l.1.1zm0 0M13.3 1.2c.3 0 .3 0 .2.2h.2v.1c.2.3-.2.4-.1.6h-.2c0-.2 0-.4-.2-.4H13v-.1h.2v-.2-.2zm0 0M47.3 30v-.4c0-.1.1-.1.2 0h.3c.2 0 .1 0 .1.1l-.2.5h-.2-.1V30zm0 0M13 2.8v-.2l.1.1h.2v.1l-.3.4v.1c-.1.2-.2 0-.3 0v-.1h.1V3h-.2v-.2l.2-.1v-.1.1l.1.2v-.2zm0 0M42.2 22.3l.3.1h.3l.4.1.1.1h.1v.2H43l-.9-.2-.2-.1.1-.2h.1zm0 0M44.5 18.8l-.2-.2v-.3-.1c0-.2.1-.3.3-.2 0 .1.2.3 0 .4v.3h.1l.2.1v.1l.1.1H45l-.4-.2zm0 0M35.3 1.7v-.2-.2c0 .1 0 .2.1.1l.4.2-.1.3-.2.1v.1l-.1-.1-.1-.3zm0 0M12.3 17.8h-.2c-.1 0-.2 0 0 0v-.1l-.7-.3h-.5l.2-.2c.3 0 .5 0 .8.2l.4.2.2.1-.2.1zm0 0M34.1 1.3h-.3V.5h.2l.2.2.1.1v.2l-.2.2zm0 0M14.3 31.3l.2.3.4.2v.1h-.5-.1c-.1.2-.2 0-.2 0h.2v-.1l-.1-.2v-.2zm0 0M45.3 20.3c-.2 0-.2-.1-.2-.3h-.4l.2-.2s0-.1.1 0l.3-.2.1.1v.4s-.1 0 0 0c0 .1 0 .2-.1.1zm0 0M12.5 18h.3l-.1-.2h.5l.2.2H13l-.1.2h-.1-.3l-.1-.1zm0 0M15.1 4.9h-.3l-.1-.2v-.2c.2 0 .4.2.4.4zm0 0M5.7 11.3v.1h-.2l-.4-.7c.2 0 .5.4.6.6zm0 0M12.2 5.7c-.2 0-.2 0-.2.2l-.2.1-.2-.2.1-.1c.1-.1.2-.3.3 0h.2zm0 0M37.7 19.9v-.3h.1l.2.3v.3h-.2V20 20zm0 0M14 2.2h-.2v-.5h.2l.1.3s0 .3-.2.2zm0 0M12 1.6h.4l-.1.1c0 .2-.2.3-.3.2l-.1-.1.1-.3zm0 0M44.4 16.7v.6h-.1c-.2-.2-.2-.5 0-.6h.1zm0 0"/></svg>