<svg xmlns="http://www.w3.org/2000/svg" viewBox="0 0 254.1 267.6">
    <path d="M68.1,259.8c-0.2-3.2-0.2-3.2-2.8-3.3c-5.1-0.3-9.9,0.7-14.7,2.4c-1.4,0.5-1.4-0.1-0.9-1.1c0.6-1.2-0.1-1.8-1.2-2.2
	c-3.3-1.3-6.6,0.1-9.8,0.3c-1.9,0.1-3.8,0.6-5.6,0.9c0.5-1.7,1-3.5,1.6-5.2c0.6-1.5-0.1-2.2-1.4-2.7c-0.5-0.2-1-0.2-1.5-0.2
	c-1.2,0-2.5,0-3.7,0c0.4-1.2,0.7-2.5,1.2-3.6c0.8-1.7-0.2-2.2-1.4-2.4c-1.9-0.2-2.1-0.9-1.5-2.6c1-2.8,0.9-2.9-2.4-3.5
	c-1.4-0.2-2-0.8-0.7-1.6c2.1-1.4,1.9-2.9,0.7-4.6c-4.4-5.9-8.7-11.7-13.1-17.6c-0.5-0.7-1.1-1.2-1.7-1.9c-0.6-0.8-1.2-1.5-1.7-2.3
	c0.9,0.2,1.8,0.5,2.7,0.6c0.9,0.1,1.8-0.1,2.7-0.1c-0.2-0.9-0.2-2-0.7-2.7c-1.5-2.2-3.3-4.2-4.9-6.3c-0.2-0.3-0.4-0.6-0.5-0.8
	c0.4-0.1,0.8-0.3,1.3-0.4c0.3,0,0.6,0.2,1,0.2c1.9,0.2,2.7-0.4,2.1-1.9c-1-2.3-2.3-4.4-3.6-6.5c-0.5-0.8-1.5-1.4-2.1-2.1
	c-0.4-0.4-0.6-1-0.9-1.5c0.5-0.3,1.1-0.8,1.6-0.8c2.8-0.3,2.8-0.3,2.4-2.6c-0.8-4-3-7-6-9.5c-1.3-1.1-1.5-2,0.6-2c2,0,2-1.1,1.7-2.6
	c-0.7-3.8-2-7.4-4.5-10.4C0,159,0.1,158.5,0,158.1c0.3,0.1,0.7,0.1,0.9,0.3c1.2,1,2.2,2,3.4,2.9c0.3,0.2,1,0.4,1.3,0.2
	c0.3-0.2,0.6-0.9,0.5-1.3c-0.9-2.6-1.9-5.3-3-7.9c-0.3-0.8-0.8-1.6-1.1-2.4c0.7,0.4,1.3,0.8,2,1.2c0.1,0.1,0.3,0.2,0.4,0.3
	c1,0.6,1.8,0,1.6-0.9c-0.5-2.3-1.2-4.4-1.8-6.7c-0.2-0.6-0.3-1.1-0.5-1.7c0.5,0.3,1,0.5,1.4,0.9c0.5,0.4,0.8,1.1,1.4,1.3
	c0.4,0.1,1.4-0.4,1.4-0.7c0-1.3,0-2.7-0.4-3.9c-0.8-2.7-1.9-5.3-2.9-8c-0.1-0.2,0-0.6,0.1-0.8c0.3,0,0.7,0,0.9,0.2
	c1.1,1,2.1,2.1,3.2,3.1c0.9,0.8,2,0.4,2.2-0.8c0.4-3.2,0.1-6.3-1.4-9.2c-0.3-0.5-0.3-1.5,0.7-0.7c1.5,1.2,2,0.6,2-1
	c0-2.3-0.1-4.7-0.2-7l-0.1,0.1c1.1,0.9,2.1,1.7,3.2,2.6c0.4-1.4,0.8-2.7,1.1-4.1c0.1-0.5,0-1-0.1-1.5c-0.1-1.4,0.1-2,1.4-0.7
	c1.5,1.5,2.4,0.5,3.1-0.7c2.1-4,4-8,6-12c0.6-1.2,0.8-2.8,2.3-0.8c0,0.1,1.7-0.8,2.1-1.5c1.6-2.6,0.8-5.5,1-8.3L32,88.8
	c1.7,0.3,2.5,2.9,4.8,1.8c2.6-1.2,4.1-3.4,5.1-5.9c0.3-0.7-0.6-2.2-1.4-2.9C36.1,78,31,76.1,25,76.2c-0.5,0-0.9-0.1-1.4-0.2
	c0.3-0.4,0.6-1,1-1c2.1-0.3,4.2-0.5,6.3-0.8c0.6-0.1,1.4-0.2,1.7-0.6c0.3-0.4,0.2-1.4-0.1-1.8c-3-2.8-6.1-5.5-9.2-8.3
	c-0.6-0.5-1.2-0.9-1.7-1.4c0.8-0.1,1.7-0.5,2.4-0.4c2.1,0.4,4.1,1.1,6.2,1.7c0.4,0.1,1.2,0.2,1.3,0c0.3-0.5,0.6-1.3,0.4-1.8
	c-1.1-2.6-1.9-5.4-4.8-6.7c-0.5-0.2-0.8-0.7-1.3-1c0.5-0.1,1-0.4,1.4-0.3c1.9,0.4,3.8,1,5.8,1.3c0.5,0.1,1.7-0.8,1.7-0.9
	c-0.4-1.3-0.9-2.2,1.3-1.6c1.3,0.3,2.9-0.2,4.3-0.7c5.4-2.1,9.5-6.1,13.8-9.7c1-0.8,0.9-1.7,0.1-2.6c-2.5-3-5.1-5.8-9.4-5.8
	c-0.3,0-0.6-0.2-0.9-0.3c0.3-0.2,0.7-0.5,1-0.5c4.6,0.2,9.3,0.4,13.9,0.6c0.7,0,1.4-0.4,2.1-0.6c-0.2-0.6-0.4-1.2-0.7-1.7
	c-0.3-0.4-0.7-0.7-1.1-1c-0.8-0.7-1.5-1.3-2.3-2c1,0,2-0.2,3-0.1c0.8,0,1.6,0.3,2.5,0.3c1.1,0.1,2.6,0.6,3.2,0
	c1.4-1.1-0.4-1.9-0.8-2.9c-0.1-0.3-0.1-0.6-0.1-0.9c0.4,0.1,0.9,0.1,1.2,0.3c3.2,2.8,6.4,2.2,9.5-0.2c2-1.5,4-3,6-4.4
	c2.6-1.8,5.4-3.3,8.7-3.4c0.5,0,1-0.1,1.5-0.2c4.3-1,5-3.2,2-6.6c-0.3-0.3-0.4-0.7-0.7-1c0.3-0.1,0.7-0.3,0.9-0.2
	c2.1,0.5,4.2,0.9,6.2,1.6c2.5,0.8,3.1,0.6,4.2-1.7c1.4-3,0.6-5.5-1.9-7.5c-0.3-0.2-0.4-0.5-0.6-0.8c0.4-0.1,0.9-0.4,1.3-0.3
	c6.5,1.7,12.6,4.1,18.5,7.3c1.2,0.6,2.3,1.3,3.5,1.8c1.2,0.5,2-0.1,1.7-1.3c-0.1-0.7-0.5-1.3-0.6-1.9c-0.1-0.9-0.1-1.9-0.2-2.8
	c0.6,0.6,1.2,1.2,1.9,1.7c1.7,1.5,3.4,3.2,5.3,4.5c4.5,3.2,9.1,6.1,13.6,9.3c4.9,3.5,9.5,7.3,12.4,12.8c0.2,0.4,0.9,0.9,1.1,0.8
	c0.5-0.3,1-0.8,1.2-1.3c0.3-0.7,0.3-1.6,0.6-2.4c0.2-0.4,0.5-0.8,0.8-1.2c0.2,0.4,0.4,0.9,0.6,1.3c2,4.4,4.4,8.6,4,13.7
	c0,0.4,0.5,1.2,0.7,1.1c0.6-0.1,1.3-0.3,1.6-0.8c0.6-0.8,0.9-1.8,1.5-2.6c0.2-0.3,0.6-0.6,0.9-0.8c0.1,0.3,0.2,0.6,0.2,0.9
	c0.7,4.4,1.2,8.9,2.2,13.2c1.2,4.9,0.1,9.7-1,14.3c-1.1,4.6-3.2,9.1-4.8,13.6c-0.2,0.6,0.1,1.4,0.1,2.2c0.6-0.2,1.3-0.3,1.8-0.7
	c0.6-0.5,1.1-1.2,1.5-2c2.1-4,4.1-8,6.1-12c0.4-0.7,0.6-1.5,0.7-2.3c0.4-1.9,1.9-2.8,3.4-1.9c0.9,0.6,2.1,1.9,2.5,1.7
	c1.7-0.9,3.6-2.2,3.5-4.5c-0.1-1.9,0.6-3.2,1.9-4.3c0.2-0.2,1.1,0.1,1.4,0.4c0.3,0.3,0.5,0.9,0.4,1.4c-0.9,4.7,1.4,8.8,2.9,13
	c1.1,3.1,2.4,6.2,3.6,9.3c0.7,1.8,1.9,2.7,4,3.2c18.2,4.1,30,15.6,37.4,32.3c2.1,4.7,3.9,9.5,5.8,14.3c0.7,1.7,1.2,3.5,1.6,5.2
	c1,4.2-0.1,7.1-4.1,8.4c-5,1.6-9.2,5.5-14.7,5.8c-0.5,0-1.5,1-1.5,1.6c0.1,1.4,1.1,1.2,2.2,1c4-0.7,7.9-1.1,11.8,0.4
	c1.4,0.5,2.9,1.1,3.9,2.1c2.7,2.4,5.3,5.1,7.8,7.7c1.7,1.8,1.6,4.7-0.3,6.7c-0.9,0.9-1.3,1.5-0.5,2.4c1.2,1.3,0.8,1.9-0.7,2.5
	c-5.9,2.3-11.9,4.3-18.4,3.8c-2.1-0.2-4.3-0.5-6.3-1.3c-2-0.8-3.7-0.6-5.8-0.4c-4.9,0.5-8.1,2.9-11,6.8c-3.5,4.8-8.5,8-13.6,10.7
	c-3.4,1.8-6.9,3.2-10.3,5c-1.6,0.8-3.2,1.9-4.3,3.2c-1.1,1.4-1.5,2-2.7,0.3c-0.1-0.1-1.7,0.5-1.7,0.8c-0.2,1.5,0,3,0,4.4
	c0,0.4-0.1,0.8-0.2,1.2c-0.4-0.2-0.9-0.4-1.2-0.7c-0.4-0.3-0.5-0.9-0.9-1.2c-0.3-0.3-1.1-0.8-1.1-0.7c-0.4,0.4-0.7,0.9-0.9,1.5
	c-0.2,0.6-0.2,1.2-0.3,1.8c-0.5-0.5-1-0.9-1.4-1.4c-0.4-0.5-0.6-1.2-1.1-1.6c-1-0.8-2-0.7-2.1,0.7c-0.2,1.8-0.7,1.8-2.2,1
	c-2.1-1-2.7-0.7-2.7,1.5c0,2.8,0.4,5.7-2,7.8c-0.3,0.2-0.2,1-0.1,1.4c0.2,1.8,0.5,3.7-1.7,4.7c-0.4,0.2-0.7,0.8-0.7,1.3
	c0,3.5-1.8,5.9-4,8.3c-0.9,1-1.2,2.6-2.9,3.1c-0.7,0.2-1.3,1.1-1.7,1.7c-0.9,1.3-2.7,3.1-2.4,4c0.9,2,2.9,0.1,4.4,0.2
	c3.9,0.2,7.5-0.7,11-2.5c2.8-1.4,6-1.9,9.2-0.7c3.3,1.2,6.6,2.2,9.9,3.5c2.7,1.1,3.8,3.6,4.8,6.1c0.1,0.3-0.8,1.3-1.3,1.5
	c-1.6,0.5-2.2,1.1-1.5,2.9c0.5,1.2-0.3,1.8-1.5,1.9c-2.7,0-5.3,0-8,0.1c-0.6,0-1.2,0.4-1.7,0.6c2.9,2.5-3.2,3.8-0.8,6.5
	c0.7,0.8-0.2,1.9-1.4,1.9c-1.8-0.1-3.1,0.5-4.5,1.6c-1,0.9-2.7,1.2-4.1,1.3c-8.1,0.4-16-0.7-23.6-3.1c-6.1-1.9-12.4-1.8-18.7-2.6
	c-3.6-0.5-7.3-0.9-10.9-0.8c-4.1,0.1-8.2,0.7-12.3,1.2c-1,0.1-1.9,0.8-1.8-1.1c0-0.4-1.5-1.5-2.2-1.4c-2.8,0.3-5.5,0.8-8.3,1.5
	c-2.4,0.6-1-0.6-0.7-1.3c0.6-1.6-0.8-1.8-1.6-1.8c-3.1,0.2-6.2,0.6-9.4,0.9c-1.5,0.2-2.9,0.4-4.4,0.6L68.1,259.8z M78.1,244.7
	c0,0.3-0.2,0.7-0.1,1c0.3,1.2,0.3,3,1,3.4c1.4,0.9,1-1.1,1.5-1.7c0-0.1,0.4,0.3,0.7,0.3c1.9,0.4,3.4-1.2,2.8-3.1
	c-0.1-0.3-1-0.3-1.5-0.4c-0.4-0.1-0.9,2.2-1.3,0c-0.2-1.1-0.5-3-0.8-3c-2-0.1-1.2,1.8-1.8,2.8c-0.2,0.3-0.4,0.5-0.6,0.7
	c-0.1-1.1-0.1-2.3-0.4-3.4c-0.1-0.3-1.3-0.6-1.5-0.4c-2,2.1-1.8,0.9-1.5-0.9c0.3-2.2,0.1-2.3-1.8-1.6c-0.1,0.1-0.2,0.2-0.4,0.3
	c-2.1,0.9-0.6-2-1.8-1.8c-1,0.2-1.9,0.8-2.8,1.1c0.8-3.5-1.1-2.3-2.8-1.7c-0.2-0.5-0.6-1.1-0.5-1.5c0.8-2-0.3-2.4-1.9-2.3
	c-4.3,0.3-8.6,0.8-12.6,2.7c-0.5,0.2-1.1,0.3-1.6,0.5c0-0.6-0.2-1.4,0.1-1.9c0.8-1.4,1.8-2.7,2.8-4.1c0.7-1,0.9-1.8-0.4-2.3
	c-2.2-0.9-3.4-2.8-3.6-5c-0.3-2.2-1.6-3.6-3.1-4.9c-4.6-4.2-8.3-9-11.1-14.6c-4.5-9.1-6.8-18.7-7.1-28.8c-0.2-5.3,0.1-10.7,0-16
	c0-1.9-0.6-3.9-1.1-5.8c-0.1-0.4-1.7-1-1.8-0.8c-1.1,1.6-1.7,0.8-2.5-0.4c-1.9-2.5-4-4.9-6.1-7.3c-0.5-0.5-1.4-0.6-2.1-0.9
	c-0.1,0.7-0.3,1.5-0.2,2.2c0.4,2.4,1.2,4.8,1.5,7.3c0.2,1.6-0.2,3.3-0.3,4.9c-1.2-0.6-2.3-1.2-3.5-1.6c-0.5-0.2-1.2,0.2-1.7,0.6
	c-0.2,0.1,0,1.1,0.2,1.3c3.7,3.6,4.9,8.6,7,13.1c0.2,0.4,0.1,0.9,0.2,1.3c-0.4-0.2-0.8-0.3-1.2-0.5c-0.6-0.3-1.1-0.9-1.7-1.1
	c-0.9-0.2-1.8-0.1-2.7-0.1c0.1,0.8,0.1,1.6,0.4,2.3c1,2.3,2.1,4.5,3.1,6.7c0.5,1,0.1,1.6-0.9,2.4c-1.9,1.5-1.9,1.9,0.3,3
	c2.7,1.4,4.1,3.8,5.7,6.1c1,1.6,1.6,2.5-1.1,2.7c-1.7,0.1-1.7,1-0.5,2.2c1.4,1.4,2.7,2.8,4,4.3c0.9,1,0.2,1.4-0.9,1.3
	c-1.1-0.1-2.4-1.1-2.9,0.5c-0.1,0.5,1,1.5,1.6,2.2c0.3,0.4,0.7,0.7,1.1,1c2.7,2.6,2.7,2.7-0.4,5.2c-0.1,0.1-0.3,0.2-0.4,0.3
	c-1.9,1.6-1.7,2.5,0.7,3.5c1.2,0.5,2.5,0.9,3.8,1.2c1.2,0.3,2.6,0.4,0.8,1.9c-0.3,0.2-0.5,0.4-0.7,0.7c-1.5,2.2-1.1,3.1,1.4,3.8
	c3.3,1,6.6,2.2,9.9,3.4c1.5,0.5,2,1.3,1,3c-0.8,1.5-1.2,3.4-1.3,5.2c-0.2,1.9,0.8,2.5,2.3,1.4c1.6-1.2,3.3-1.4,5.2-1.2
	c2.1,0.3,2.3,0.9,1.3,2.9c-1.1,2.2-2,4.5-2.9,6.8c-0.2,0.4,0.3,1.2,0.7,1.7c0.1,0.1,0.9-0.2,1.3-0.5c2.4-1.5,4.8-3,7.2-4.4
	c0.4-0.2,0.9-0.2,1.4-0.2c0.1,0.6,0.2,1.2,0.2,1.8c0,0.5-0.5,1-0.4,1.4c0.2,0.9,0.6,1.7,1,2.5c0.7-0.4,1.5-0.6,1.9-1.1
	c2-2.3,3.8-4.6,5.7-6.9c0.3-0.3,0.8-0.5,1.2-0.7c-0.2,0.5-0.4,1.1-0.5,1.6c-0.1,0.6,0,1.2-0.1,1.8c0.5,0,0.9,0.1,1.4,0
	c0.6-0.2,1.2-0.7,1.8-0.7c0.4,0,1.1,0.5,1.2,0.9c0.2,2.7,1,2.7,3,1.2c1.4-1,3.5,0.4,3.9,2.1c0.9,3.4,0.9,3.4,4.3,1.5
	C76.8,244.9,77.5,244.9,78.1,244.7z M131.1,222.8l-0.1-0.1c-1.3,1-2.7,1.8-3.8,2.9c-1.1,1-2,2.2-2.8,3.4c-0.2,0.2,0.5,1.5,0.6,1.4
	c2.2-0.5,2,0.7,1.6,2.2c-0.8,2.9-1.6,5.7-4,7.9c-2.2,2.1-2,2.3-0.3,5.1c0.6,1,1,2.1,1.8,3c0.7,0.8,1.6,1.8,2.6,2.1
	c4.5,1.3,9.2,1.5,13.8,0.4c0.8-0.2,1.6-0.9,2.3-1.4c-0.7-0.5-1.4-1.3-2.3-1.6c-1.3-0.4-2.6-0.4-4-0.5c-1.7-0.1-3.3-0.1-5-0.2
	c-1.7-0.1-2.4-0.9-1.7-2.6c0.4-0.9,0.7-1.8,1.2-2.7c1-1.7,2.1-3.3,3.2-5c0.3-0.5,0.8-1.3,1.2-1.3c2.3,0,2.4-2,3.3-3.3
	c1-1.6-0.2-5.1,3.7-4.4c0.1,0,0.5-0.8,0.7-1.2c0.3-1.3,0.6-2.6,0.9-3.9c0.2-0.7,0.6-1.8,1-1.8c1.6-0.1,1.8-1.3,2-2.4
	c0.5-2.4,0.1-5.4,1.4-7.2c2.3-3.2,2-6,0.8-9.2c-0.1-0.4,0.1-0.8,0.2-1.3c4.6,1.3,2.6-2.5,2.4-3.7c-1.5-8.9-4.2-17.4-9.7-24.8
	c-4.7-6.2-10.7-10.5-18.2-12.4c-6.2-1.6-12.2-0.8-17.6,3.1c-1,0.7-2.7,1.3-1.9,2.9c0.7,1.4,2,0.3,3.1-0.1c1.4-0.5,2.9-1,4.3-1.1
	c2.9-0.2,4.3,1.1,4.4,4.2c0,1.1,0.5,1.6,1.4,1.5c1-0.1,1.9-0.6,2.9-0.6c0.4,0,1.1,1,1.1,1.1c-1.4,2.5-1,3.1,1.9,2.8
	c1.5-0.2,2.6,1.3,1.7,3.2c-0.5,1.2-0.7,3.3,0.9,3.2c4.1-0.3,2.9,2.2,2.8,4.4c0,1,0,2,0.3,2.9c0.1,0.2,1.2,0.5,1.5,0.3
	c0.6-0.4,1-1.2,1.5-1.9c0,0.9-0.1,1.7-0.1,2.6c-0.1,2-0.2,4-0.1,6c0,0.3,0.9,1,1.3,0.9c1.1-0.2,2.1-0.8,3.1-1.2
	c-0.2,1.2-0.4,2.5-0.6,3.7c-0.3,1.8-0.5,3.6-1,5.4c-0.4,1.5-0.9,3.3-1.9,4.4c-1.3,1.5-0.9,2.3,0.5,3.1c1.7,1,1.8,2.3,0.8,3.8
	c-1.2,1.8-2.6,3.4-3.9,5.1C129.5,221.2,129.9,222.1,131.1,222.8z M219.1,150.7c1.2,0,1.9,0,2.5,0c1.1,0,2.6,0.2,2.8-1.3
	c0-0.4-1.4-1.2-2.2-1.5c-1.7-0.6-3.5-1-5.2-1.7c-0.7-0.3-1.2-1-1.7-1.6c0.7,0.1,1.4,0.1,2.1,0.3c2.5,0.7,5.1,1.4,7.6,2.2
	c3.1,1,6,0.1,8.8-0.9c5.1-1.9,6.1-7.2,1.8-10.5c-2.2-1.7-4.8-2.9-7.4-4c-4.1-1.7-7.8-1.5-10.5,2.7c-1.3,2-3.1,2.4-5.2,1.8
	c-4.3-1.3-8.5-2.7-12.7-4.2c-0.9-0.3-1.8-1-2.3-1.7c-1.8-2.4-4.1-4.2-6.6-4.7c-0.8-0.2-1.6-0.3-2.4-0.6c-0.3-0.1-0.5-0.4-0.6-0.7
	c0-0.1,0.3-0.4,0.5-0.6c1-0.8,2.7-1.4,2.8-2.3c0.2-1.3-0.6-2.9-1.3-4.1c-0.9-1.6-1.9-3.1-3.3-4.4c-2.9-2.7-5-2.9-7.9-0.3
	c-4.1,3.6-7.9,7.6-11.8,11.5c-0.5,0.5-0.4,1.4-0.6,2.2c0.7,0,1.5,0.2,2.2,0c0.4-0.1,0.8-0.6,1.2-0.8c0.3-0.2,0.6-0.3,0.8-0.4
	c0,0.4,0.1,0.9,0,1.2c-0.3,1-0.7,2-1,3c1.1,0,2.3,0.2,3.3-0.1c1.8-0.5,3.3-0.3,4.7,0.7c0.5,0.3,1.2,1.1,1.1,1.4
	c-1,2.4,0.5,3.5,2.2,4.3c1.9,0.9,1.1,1.7,0.1,2.5c-0.6,0.5-1.5,0.9-2,1.4c-0.3,0.4-0.6,1.5-0.4,1.5c1.9,1.2,1.5,2-0.1,3.2
	c-1.7,1.2-1.6,2.1,0.2,2.6c1.4,0.4,2.9,0.2,4.3,0.3c0.6,0,1.2,0.1,1.8,0.1c-0.3,0.6-0.5,1.1-0.8,1.7c-0.3,0.7-0.5,1.4-0.8,2.1
	c0.8,0.2,1.6,0.7,2.3,0.6c0.9-0.1,1.9-0.6,2.8-1c5.1-2.5,6-2.4,10,1.5c0.6,0.6,1.1,1.2,1.7,1.8c1.2,1.2,2.3,1.2,3.2-0.4
	c1.7-3.2,4.7-4,8-3.8C214,150.1,216.8,150.5,219.1,150.7z M49.9,179.7c-0.2,11.9,2.3,23.4,5.7,34.8c0.6,2.1,1.5,4,2.4,6
	c0.2,0.5,1,0.7,1.5,1c0.2-0.6,0.7-1.2,0.6-1.7c-0.2-1.1-0.7-2.2-1-3.3c-4.5-15.4-7.3-31-4.9-47.2c1.3-9,4.1-17.4,9.1-25.1
	c7.4-11.6,18.2-18.7,30.8-23.5c6.2-2.4,12.3-3.4,19-2.1c4.4,0.8,8.8,1.7,12.9,3.5c1,0.4,1.7,0.6,2.5-0.6c2.4-4.1,2.5-4.1,6.9-3.2
	c3.2,0.6,6.3,0.7,9.4-0.4c1.8-0.6,1.9-1.1,0.5-2.7c-0.3-0.4-0.7-0.7-1.1-1c0.5-0.1,1.1-0.3,1.6-0.4c1.6-0.3,3.3-0.4,4.8-1
	c1.1-0.4,1.2-1.5,0.1-2.4c-1.9-1.6-1.9-1.6,0.3-2.5c1.1-0.5,2.1-0.9,3.1-1.5c0.8-0.5,1.2-1.1,0.5-2c-1.2-1.5-0.3-1.5,0.9-1.2
	c1.6,0.4,2.7-0.7,1.7-1.7c-1.8-1.8-1.4-3-0.2-4.6c0.3-0.4,0.2-1.2,0.2-1.8c-0.7,0-1.6-0.2-2.2,0.2c-1.4,0.9-2.6,2.1-4,3
	c-0.4,0.3-1.4,0.5-1.5,0.4c-1.2-2.3-2-0.8-2.8,0.3c-0.6,0.8-1,1.7-1.5,2.6c-0.1,0.1-0.7,0-0.7-0.1c-0.9-3-1.9-0.7-2.5,0.1
	c-1,1.5-1.7,3.2-2.7,4.8c-0.8,1.4-1,4.4-3.9,1.9c-0.2-0.2-1.2,0.4-1.7,0.8c-2.3,1.7-4.6,3.3-6.7,5.2c-1.1,1-2,1.3-3.5,1.1
	c-11.8-1.6-23.4-1.6-34.7,3.3c-13.7,6-24.9,14.6-31.7,28.2C51.6,157.2,49.7,168.2,49.9,179.7z M169.8,101.3
	c-0.1,3.5,0.6,6.6,3.2,9.2c1.9,1.8,2.7,1.9,4.7,0.3c0.5-0.4,1-0.9,1.4-1.4c1.9-2.7,4.4-3.9,7.7-3.4c0.8,0.1,1.7,0,2.5-0.1
	c3.1-0.6,6-3.9,5.5-6.7c-1.5-8.6-4.4-16.7-9.6-23.8c-2.7-3.7-4.3-3.6-6.7,0.1c-1.2,1.8-2.3,3.7-3,5.7c-1.8,5.3-3.5,10.7-5.1,16.1
	C170,98.6,170,100,169.8,101.3z M55.2,58.9c-0.9-0.2-1.6-0.3-2.2-0.4c0.5-0.5,0.9-1.1,1.4-1.6c0.8-0.9,1.7-1.6,2.2-2.6
	c0.4-0.8,0.2-1.8,0.3-2.7c-0.8,0.4-1.7,0.6-2.4,1.1c-3.5,3.1-6.8,6.4-12.1,5.7c-0.2,0-0.8,1.2-0.7,1.4c1.5,2,0.5,2.1-1.2,1.8
	c-0.6-0.1-1.2-0.4-1.9-0.6c-0.8-0.3-1.9-1.4-2.4-0.1c-0.2,0.6,0.6,1.7,1.1,2.5c0.5,0.6,1.3,1,1.9,1.6c0.5,0.4,0.9,0.9,1.3,1.4
	c-0.6,0.1-1.3,0.1-1.9,0.3c-0.7,0.3-1.3,0.8-2,1.2c0.5,0.5,1,1.1,1.6,1.4c1.1,0.7,2.4,1.2,3.5,1.9c0.3,0.2,0.5,0.7,0.7,1
	c-0.5,0-0.9-0.1-1.4-0.1c-0.6,0-1.2,0.2-1.8,0.3c0.2,0.7,0.5,1.4,0.7,2.1c0.1,0.1,0.3,0.2,0.4,0.3c3.3,3,6.8,5.9,6.7,11.1
	c0,0.3,1.4,1.1,1.8,0.9c1.2-0.6,2.2-1.5,3.1-2.4c2.9-2.8,2.9-3.1,0.6-6.4c-0.6-0.8-0.7-1.4,0.3-2c1.1-0.7,2.1-1.5,3.1-2.2
	c-1.2-0.7-2.5-1.3-3.7-1.9c-0.6-0.3-1.3-0.4-1.8-0.8c-0.3-0.2-0.6-0.6-0.9-0.9c0.3-0.1,0.6-0.2,1-0.2c1.9-0.3,3.9-0.5,5.8-1.1
	c0.7-0.2,1.1-1.4,1.7-2.1c-0.7-0.3-1.4-0.8-2.1-0.9c-1.1-0.2-2.3,0-3.5-0.1c-0.9-0.1-1.8-0.3-2.7-0.4c0.9-0.3,1.8-0.7,2.7-1
	c0.8-0.2,1.8-0.1,2.4-0.6c1.8-1.1,3.5-2.4,5.2-3.7c0.3-0.2,0.3-1,0.1-1.4c-0.2-0.3-0.8-0.6-1.2-0.5C57.5,58.2,56.3,58.6,55.2,58.9z
	 M217.1,124.1c0-0.1,0-0.2,0-0.2c2.3,0,4.6,0.1,6.9,0c2.1-0.2,2.9-1.8,1.5-3c-3.2-2.5-3.3-5.7-3.3-9.3c0.1-5.3-3.9-8.7-9.2-7.8
	c-2.5,0.4-5,1.6-7.4,2.8c-6.5,3.3-6.9,4.6-3.8,11.2c1.9,4.2,5.1,6.4,9.8,6.4C213.4,124.1,215.3,124.1,217.1,124.1z M180.8,164
	c3.7-0.7,7.5-1.2,11.2-2.1c5.8-1.4,11.6-2.9,17.3-4.5c0.5-0.1,0.9-0.8,1.3-1.3c-0.5-0.5-0.8-1.2-1.4-1.3c-0.7-0.2-1.6-0.2-2.4,0
	c-1.6,0.4-3.2,0.9-4.8,1.4c-8.7,2.7-17.5,5.2-26.8,3.4c-0.3-0.1-0.7-0.1-1,0c-0.3,0.1-0.8,0.3-0.8,0.5c0,0.4,0,1.1,0.3,1.3
	C175.8,163.1,178.1,163.9,180.8,164z M196.9,82c-0.2-0.7-0.3-1.1-0.5-1.4c-1.7-3.8-3.4-7.6-5.2-11.4c-0.4-0.9-1-1.8-1.7-2.4
	c-1.3-1.1-2.5-0.1-3.6,0.7c-1.2,0.9-0.5,1.7,0,2.6c2.1,3.4,4.1,6.8,6.3,10.2c0.7,1,1.7,1.8,2.8,2.5C195.5,83.1,196.4,82.3,196.9,82z
	 M157.6,251.3c-0.8,0.4-2,0.6-2.1,1c-0.3,1.4,1,1.4,1.9,1.6c2.6,0.6,5,1.5,7,3.4c0.7,0.6,1.7,0.9,2.6,1.3c0.2,0.1,0.6-0.1,0.8-0.3
	c0.2-0.2,0.3-0.7,0.2-0.9C165.2,254.4,161.8,252.3,157.6,251.3z M154,256.4c-0.2,0.3-0.6,0.7-0.6,1.1c0,0.4,0.3,1,0.7,1.2
	c3.3,1.8,6.7,3.5,10,5.2c0.7,0.3,1.6,0.9,1.9-0.3c0.1-0.5-0.2-1.4-0.7-1.6c-2.7-1.6-5.5-3-8.2-4.4
	C156.3,257.1,155.4,256.8,154,256.4z M239.4,160.2c-1,0.7-1.6,1.2-2.1,1.6c0.5,0.5,1,1.2,1.7,1.4c3.1,1,6.3,1.8,9.4,2.6
	c0.5,0.1,1.1-0.4,1.6-0.6c-0.2-0.4-0.3-1.1-0.6-1.2C246,162.6,242.7,161.4,239.4,160.2z M245.1,170.9c0.8,0,2.1,0.1,3.4-0.1
	c0.5-0.1,1-0.7,1.2-1.2c0.1-0.2-0.5-0.9-0.8-1c-3-1.4-6.1-1-9.2-0.4c-0.3,0.1-0.9,0.8-0.8,1.1c0.2,0.5,0.7,1.2,1.2,1.3
	C241.6,170.8,243.1,170.8,245.1,170.9z M245.3,157.7c-0.4-0.5-0.5-1.1-0.9-1.2c-3.1-1.1-6.2-2.2-9.6-1.5c-0.5,0.1-0.9,0.8-1.3,1.3
	c0.5,0.4,1,1.2,1.4,1.2c3.1-0.1,6.2,0.4,9.2,1C244.4,158.5,244.8,158,245.3,157.7z M181.1,250.3c-0.2-0.6-0.2-1.1-0.5-1.4
	c-2.2-2.3-4.9-3.8-8-4.7c-0.4-0.1-1.3,0.4-1.5,0.8c-0.1,0.4,0.4,1.5,0.7,1.5c2.9,0.2,4.7,2.2,6.7,3.9c0.4,0.3,0.9,0.5,1.3,0.5
	C180.3,250.9,180.7,250.5,181.1,250.3z"/>
    <path d="M32.1,88.7c-0.3-0.3-0.5-0.6-0.8-0.8c0.1-0.1,0.3-0.2,0.4-0.3c0.1,0.4,0.2,0.8,0.2,1.3L32.1,88.7z"/>
    <path d="M12.2,115.7c-0.2-0.1-0.3-0.2-0.5-0.4c0.1,0,0.2,0,0.2,0.1c0.1,0.1,0.1,0.3,0.1,0.4L12.2,115.7z"/>
    <path d="M68,259.7c-0.1,0.2-0.3,0.3-0.4,0.5c0-0.1,0-0.3,0.1-0.3c0.1-0.1,0.3-0.1,0.4-0.1L68,259.7z"/>
    <path d="M131.1,222.8c0.3-0.3,0.6-0.6,0.9-0.9c0.1,0.2,0.2,0.3,0.4,0.5c-0.5,0.1-0.9,0.2-1.4,0.3C131,222.7,131.1,222.8,131.1,222.8
	z"/>
    <path d="M191.3,97.7c0.1,2.5-0.9,4.2-3.1,5.4c-2.1,1.2-3.8,0.4-5.4-1c-0.9-0.8-1.9-1.4-2.9-1.9c-1.3-0.6-1.1-0.9-0.3-1.9
	c0.3-0.4-1.2-2.5-1-2.6c1.2-0.9,1.4-1.6,0.4-2.8c-1.7-2.1-0.3-1.6,1.1-1.4c0.2,0,0.8-0.9,0.8-1.4c-0.1-0.8-0.4-1.6-0.8-2.3
	c-0.5-1-0.8-1.8,0.8-2c0.3,0,0.4-1.3,0.5-1.9c0.2-1.1,0.4-2.2,0.7-3.3c0-0.1-0.5-1.4,0.8-0.3C188.6,84.8,189.8,91.2,191.3,97.7z"/>
    <path d="M213,120.1c-4.6,0.1-6.7-1.4-7.7-5.6c-0.2-0.6-0.3-1.4,0-2c1.1-2.6,3.4-3.5,6-3.8c2.5-0.3,5.2-0.5,6.4,2.4
	c0.9,2,1.5,4,2,6.1c0.1,0.4-0.5,1.3-0.9,1.4C216.8,119.3,214.9,119.7,213,120.1z"/>
</svg>
