<svg xmlns="http://www.w3.org/2000/svg" viewBox="0 0 1566 933">
    <g>
        <path d="M960,184.6c5.2,2,10.5,3.7,15.5,6c4.1,1.9,7.8,4.6,11.7,6.8c0.3,0.2,1.1-0.3,1.6-0.5c-0.9-2.1,2.4-5.3-2.5-6.5
	c-3-0.7-4.4-5.1-8.4-5.5c-0.7-0.1-1.8-2.3-1.6-3.3c0.7-3.6-0.5-6-3-8.4c-1-1-1.6-4.3-0.8-5.1c4.7-4.7,2.4-10.4,2.1-15.5
	c-0.2-3.7,0.3-4.3,4-4.6c7.7-0.7,10.7,0.9,10.9,8.4c0.1,4.5,0.8,7.9,4.2,11.6c2.9,3.1,3.7,8.2,5.3,12.5c1.4,3.8,2.5,7.5,6.3,10.3
	c2,1.5,2.4,5.7,2.6,8.7c0.1,2.5-1,5.1-1.8,7.6c-1,3.1-1.5,7.4-6.2,3c-0.1-0.1-0.3-0.3-0.4-0.3c-1.9,0.3-3.8,0.6-5.6,1
	c1.3,0.7,2.5,1.7,3.8,2c3.5,0.7,7.1,1.2,10.7,1.7c0.5,0.1,1.3-0.5,1.5-0.9c1.5-5,3.2-10,4.3-15.1c0.3-1.4-1.1-3.5-2.3-4.6
	c-2.4-2.2-2.1-4.3,0.3-5.7c1.9-1.2,4-5.2,6.7-0.7c1.7,2.8,3.4,5.6,5.2,8.2c0.8,1.1,1.8,2.2,3,2.7c0.9,0.4,2.2-0.3,3.3-0.5
	c-0.8-0.1-2,0-2.4-0.5c-1.3-1.5-3.7-4-3.3-4.8c2.2-4.2-1.6-6.1-3.4-6.7c-3.1-1-6-5.4-10.2-1.4c-1.6,1.6-5,3.4-6-1.5
	c-0.7-3.4-1.5-6.9-2.8-10.1c-1-2.4-2.5-4.9-4.5-6.6c-3.7-3.1-3.5-6.2-1.7-10.2c0.8-1.9,0.1-4.6,0-6.9c0-0.7-0.4-1.5-0.6-2.2
	c0.7,0.5,1.7,1,2,1.7c1.5,3.6,3.2,7.2,4.2,10.9c0.8,2.9,2.4,3.3,4.9,3.4c2.6,0.1,5.2,0.9,7.8,1.3c0.4,0.1,0.9-0.1,1.4-0.2
	c-0.2-0.4-0.4-1-0.8-1.2c-1.4-0.7-2.9-1.2-4.3-1.8c-2.2-1-4.4-1.9-6.4-3.2c-0.7-0.5-0.7-2.2-1-3.3c1.1,0.1,2.2,0.2,3.4,0.1
	c1.4,0,2.8-0.2,4.2-0.3c-0.8-0.9-1.6-1.8-2.4-2.8c-0.3-0.3-0.7-1-0.7-1.1c1-1,2.3-2.8,3.1-2.6c3.3,0.8,6.3,2.4,9.6,3.5
	c2.3,0.8,4.9,1.9,7.1,1.6c3.5-0.6,3.5,0.7,3.4,3.4c-0.1,3.2,0.5,6.5,0.8,9.7c0,0.1,0.2,0.3,0.3,0.4c0.3-0.2,0.9-0.6,0.9-0.6
	c-2.2-4.1,5.8-0.7,3.5-4.9c-1.2-2.3-2.2-4.7-3.2-7c-0.3-0.6-0.5-1.6-0.9-1.6c-4.7-0.7-6.7-6.6-12.1-6c-0.7,0.1-1.9-0.3-2.2-0.8
	c-1.9-3.6-3.8-7.2-5.3-10.9c-0.2-0.5,1.1-2.1,1.9-2.4c5.1-2.2,10.3-4.2,15.5-6.2c0.7-0.3,1.5-0.3,2.3-0.5c-0.2,0.8-0.6,1.7-0.7,2.6
	c-0.1,1,0.1,2,0.1,3c0.3-0.8,0.4-1.9,1-2.4c4.8-4.1,0.5-4.7-2-6.7c-1.1-0.9-6.6,0.7-3.3-3.9c-0.6,0-1.4,0.2-1.8-0.2
	c-0.9-0.7-1.5-1.6-2.2-2.4c0.6-0.2,1.3-0.3,1.8-0.6c0.8-0.5,2-1,2.2-1.8c2.8-10,1.9-9.1,11.9-15.1c1.1-0.7,2.2-1.4,3.3-2.2
	c0.4-0.3,0.6-0.7,1-1.1c-0.5-0.1-0.9-0.1-1.4-0.2c-0.8-0.1-1.6-0.2-2.4-0.3c0.5-0.8,0.9-1.7,1.6-2.2c0.8-0.6,2.2-0.4,2.9-1.1
	c1-1,4.8,0.7,3-3c1.2-0.4,2.4-0.8,3.6-1.2c-0.2,0.7-0.4,1.5-0.5,2.2c-0.2,1.4-0.3,2.7-0.5,4.1c0.9-0.6,1.8-1.2,2.7-1.7
	c1.2-0.6,3.1-0.9,3.5-1.8c2.1-4.6,4.1-4.8,6.5-0.3c0.1,0.3,0.6,0.3,1,0.5c0.1-0.5,0.6-1.2,0.4-1.3c-1.3-1.3-2.7-2.6-4.2-3.8
	c-0.7-0.6-1.5-0.9-2.2-1.4c0.9-0.4,1.7-0.9,2.6-1.1c1.1-0.2,2.3,0,3.5-0.1c1.6-0.1,3.1-0.4,4.7-0.6c-1.4-0.4-2.7-0.8-4.1-1.3
	c-2.1-0.7-5.2-8.4-4.8-12c0.1-1.1,0.5-2.2,0.7-3.4c1-5.8,5.1-7.6,10-4.3c2.7,1.9,0.7,4-0.2,6c-0.2,0.5-0.5,1-0.7,1.5
	c0.5,0,0.9,0,1.4-0.1c2.1-0.6,4.3-0.9,6.2-1.8c4-1.9,4.2,0.7,4.3,3.4c0.1,0.8-0.5,1.7-0.4,2.4c0.2,1.2,0.6,2.4,1,3.5
	c1-0.5,2.4-0.8,3-1.6c0.6-0.7,0.9-2.5,0.4-3c-2.1-2.2-0.9-2.5,1.2-2.6c0.6,0,1.2-0.7,1.8-0.8c2.9-0.3,4.9-5,8.6-1.3
	c2.1,2.1,5,3.5,7.6,5.1c0.3,0.2,1-0.5,1.6-0.7c0.5-0.2,1.3-0.4,1.6-0.1c1.1,1,2,2.2,2.9,3.4c0.7,0.8,1.3,1.6,2,2.4
	c-0.9-0.1-1.8-0.2-2.7-0.2c-0.6,0-1.1,0.1-1.7,0.2c0.9,0.8,1.8,2.3,2.7,2.4c5.5,0.4,4.5,4,4,7.4c-0.3,1.8-0.6,3.5-1.1,5.2
	c-1.1,3.7-2.5,7.3-3.5,11c-1.5,5.8-2.8,11.6-4.1,17.4c-0.2,0.8,0.2,1.7,0.3,2.5c0.6-1.1,2-2.8,1.7-3.2c-2.4-3-0.1-2.7,1.8-4.1
	c3.3-2.4,5.7-6.1,8.5-9.2c0.1-0.2-0.1-0.6-0.1-0.9c-0.6,0.1-1.1,0.2-1.7,0.4c-0.8,0.3-1.7,0.7-2.5,1.1c-0.1-0.9-0.6-1.9-0.3-2.7
	c0.3-0.8,1.3-1.8,2.1-1.9c1.7-0.2,3.3-0.9,4.7,1.7c1.4,2.5,4.5,1.4,5.2-1.6c0.1-0.2,0.9-0.5,0.9-0.5c0.7,0.8,1.3,1.8,2.1,2.6
	c0.7,0.8,1.5,1.6,2.3,2.3c-0.2-0.9-0.8-2.1-0.4-2.5c1.2-1.3,2.6-2.7,4.2-3.2c3.6-1.1,7.4-1.7,11.2-2.3c0.5-0.1,1.2,1.3,1.8,2
	c0.8,1,1.7,3.1,2.4,3c5.9-0.8,12.1,0.9,17.6-2.3c0.4-0.2,0.3-1.8,0.1-2.7c-0.5-2-1.2-4-1.8-6c3.2-0.2,6.3-0.4,9.5-0.5
	c0.5,0,1.2,0.8,1.5,0.7c6.1-3.3,13.4,0.5,14.6,7.5c0.1,0.4,1,0.6,1.6,0.9c1.1,0.6,2.3,0.9,3.1,1.7c0.7,0.7,0.9,1.9,1.4,2.9
	c-1,0.1-2,0.2-3,0.3c-0.6,0-1.3,0-1.9,0c0.1,0.4,0.1,1,0.3,1.2c6.5,3.3,13.1,6.3,19.4,9.7c2.4,1.3,2.2,0.3,1.7-1.3
	c-1-3.3-2.2-6.6-3.2-9.9c-0.2-0.8-0.2-1.6-0.3-2.4c0.6,0.4,1.2,0.8,1.8,1.2c4.4,3.1,6.3,2.7,10.3-1.7c0.6-0.7,1.8-1.3,2.6-1.2
	c3.7,0.5,7.4,1.9,9.6-2.7c0.1-0.1,0.3-0.3,0.4-0.2c1.6,0.2,3.8,2.7,4.6-0.5c0.3-1-2-2.5-2.9-4c-0.6-1.1-0.9-2.4-1.2-3.7
	c-0.1-0.4,0.2-0.8,0.3-1.3c-0.5,0.2-1.1,0.4-1.6,0.5c-0.9,0.1-1.9,0.2-2.8,0.2c0.3-1.1,0.3-3,0.9-3.3c4.8-2.1,5-3.4-0.5-4.3
	c-0.3,0-0.4-0.8-0.7-1.2c0.4-0.2,0.8-0.6,1.3-0.6c6.8-0.3,13.5-0.6,20.3-0.8c0.6,0,1.3,0.5,1.9,0.7c-0.5,0.4-1,0.9-1.5,1
	c-0.6,0.2-1.5-0.3-1.9,0c-0.5,0.3-0.9,1.1-1,1.8c-0.1,0.6,0.1,1.2,0.2,1.9c0.6-0.4,1.3-0.8,1.9-1.2c4.1-2.3,8-4.9,12.3-6.6
	c1.8-0.7,4.5,0.3,6.6,0.9c0.8,0.2,2,1.5,1.9,2.1c-0.3,1.3-1.3,2.5-2.1,3.7c1.5,0.4,2.9,1,4.4,1.3c0.8,0.2,2.3-0.4,2.4-0.2
	c2,4.7,3.7-0.2,5.3,0c1.9,0.2,5,1.5,5.4,2.9c1.4,5,3.7,2.4,5.9,1.3c4.4-2.2,8.6-4.9,13.2-6.9c6.8-3,15.5,0.4,17.2,7.5
	c1.4,5.9,4.4,5.1,8.4,4.3c0.6-0.1,1.5,1,2.2,1.5c0.8,0.7,1.6,1.4,2.4,2.1c0.4-0.9,1.2-1.9,1.1-2.8c-0.3-3.5,3.1-6.8,7.3-7
	c3.4-0.2,6.9-0.3,10-1.3c1.1-0.3,1.4-3.2,2-4.9c0.4-1.2,0.5-2.5,0.8-3.8c1.3,0.4,2.7,0.8,4,1.2c-0.4,1.2-1.4,2.6-1,3.4
	c0.9,1.8,2.2,4.3,3.8,4.8c2.6,0.7,5.2,0.6,6.4,3.7c0.1,0.2,2.8,0,3.7-0.8c0.8-0.7,1.6-3,1.2-3.5c-1.8-2.3-4.1-4.2-6.3-6.1
	c-0.5-0.5-1.6-0.5-1.8-1.1c-1-1.9-1.7-3.9-2.6-5.8c1.9-0.2,3.8-0.3,5.6-0.7c3.5-0.8,6.8-2.1,10.3-2.9c8.9-2.1,17.5-0.8,26,2.3
	c0.9,0.3,1.7,1,2.6,1c6.6,0.5,13.3,1.2,19.9,1.3c7.1,0.1,11.1,4,14.4,9.6c0.6,1,2.9,0.9,4.5,1.3c0-0.7,0.4-1.6,0.1-1.9
	c-1.6-1.8-3.4-3.4-5-5c-0.3-0.3-0.5-1.1-0.4-1.1c2.8-1.8,5.4-4.4,8.4-4.9c3-0.5,6.4,1.3,9.6,2.1c0.3,0.1,0.8,0.1,0.9,0.2
	c0.9,2.5,2.4,5,2.2,7.4c-0.1,2.1-2.2,4-3.3,6c-0.2,0.4-0.1,1.3,0.1,1.6c2.1,2.3,5.8,3.6,4.7,8c-0.2,0.7,1.3,2.5,1.8,2.5
	c3.7-0.6,1,3.4,3,3.9c-1.3,0.5-2.6,1.4-3.9,1.3c-2.6-0.1-5-0.8-7.4,1.2c-0.4,0.3-2.4-1-3.3-1.9c-3.7-3.5-5.8-3-7.6,1.6
	c-0.4,1-1.8,2.7-1.9,2.6c-1.8-1-3.5-2.1-5-3.4c-1-0.8-1.6-1.9-2.5-2.9c-0.9,2-2.8,4.1-0.6,6.2c2.1,2,5.6,3.4,6.4,5.7
	c1.2,3.8,1.1,8.2,0.6,12.3c-0.1,0.9-3.7,1.7-5.7,2.2c-1.6,0.4-3.4,0-5.1,0.1c-0.5,0-1.4,0.6-1.4,0.8c0.2,0.9,0.6,1.8,1,2.8
	c0.5-0.3,1.1-0.4,1.5-0.8c1.9-1.9,3.4-2.2,5.1,0.4c0.6,0.9,2.5,0.8,3.8,1.3c1,0.4,1.9,1.1,2.8,1.7c0.8,0.5,1.5,1.2,2.3,1.7
	c0.6,0.4,1.8,1,1.7,1.2c-1.7,5.7,4.2,3.5,5.8,5.7c2.1,2.8,4,5.7,5.7,8.8c0.9,1.7,0.1,3.3-2.1,2.5c-6.9-2.6-9.9,2.9-11.6,7
	c-3.2,7.4-4.8,15.6-7.1,23.4c0,0.2-0.1,0.3-0.1,0.5c0.2,1.6,0.4,3.2,0.6,4.8c-1.7-0.9-3.5-1.7-5.1-2.8c-5.3-3.5-9.5-1.4-11.2,5.6
	c-0.2,0.9-0.6,1.8-0.9,2.6c-0.5-0.8-1-1.6-1.5-2.4c-0.5-0.7-1.1-1.4-1.6-2.1c-0.7,0.9-2,1.7-2.1,2.7c-0.2,1.7,0.5,2.6-2.4,2.3
	c-2.6-0.3-3.9,2.4-2.9,5.6c1.1,3.6,1.3,7.5,2.2,11.2c0.6,2.5,1.3,5.1,2.4,7.4c0.8,1.6,1,1.4,2-0.4c0.2-0.4,1.6-0.9,1.7-0.7
	c1,1.2,2.3,2.5,2.8,3.9c0.7,2.2,1,4.5,1.4,6.8c3.7-2.4,2.9,2.2,4.5,3.1c0.7,0.4,0.8,2,1.1,3c-0.9,0-2-0.2-2.8,0.2
	c-0.7,0.3-1.8,1.5-1.7,1.9c1.1,3.3,2.2,6.8,3.9,9.7c1.6,2.6,4.2,4.3-1,5.8c-3.8,1.1-4.4,7-1.6,11.4c1,1.5,2,2.9-0.6,3.5
	c-3.9,0.8-2.9,3.9-2,5.6c2.2,4.6,1.2,8.7-1.2,12.8c-0.2,0.4-1.4,0.6-1.8,0.4c-1-0.5-2.2-1.3-2.5-2.2c-2.9-9.3-10.5-15.7-14.7-24.2
	c-2.9-5.8-5.8-11.6-7.9-17.7c-0.9-2.6,0-6,0.2-9c0.1-1.1,0.9-2.6,0.5-3.4c-1.6-2.6-2-4.5,0.8-6.8c3.2-2.6,2.6-6.5,2.5-10.3
	c-0.1-6.2,0.6-12.4,1.2-18.6c0.1-1,1-2.2,1.8-2.8c3.7-2.8,2.2-6,0.9-9.2c-1.3-3.1-2.6-6.2-3.8-9.3c-0.3-0.7-0.2-1.7,0.2-2.3
	c0.4-0.8,1.2-1.4,1.8-2.1c-1.9-0.2-3.8-0.6-5.6-0.3c-0.7,0.1-1.7,2.1-1.5,2.8c1,3,2.4,5.9,3.7,8.9c-5.3,0.8-1.7,5.5-3.5,8
	c-0.9,1.3-1.2,2.9-1.8,4.3c-1.7-1.6-3.5-3.1-4.9-4.9c-0.7-0.9-0.4-2.6-0.6-3.9c-0.3-2-0.2-3.7-2.7-0.8c-1.4,1.6-5,1.3-7.6,2
	c-3.6,0.9-4.9,2.7-4.2,6.8c0.6,3.5-0.6,7.3-1.1,11c-0.4,3.5-2.9,7.8,3.7,8.1c0.5,0,1,0.8,1.4,1.2c-0.9,1.1-2.3,3.2-2.7,3
	c-3.8-1.6-4.4,3.3-7.3,3.4c-1.2,0-2.5,0.5-3.7,0.8c0.5-1,1.1-2,1.6-3c0.1-0.3-0.2-1.1-0.5-1.2c-3.7-0.7-7.4-1.4-11.1-1.7
	c-0.9-0.1-2.9,1.3-2.8,1.9c0.5,4.7-3.7,3.3-5.7,4.3c-1.7,0.9-5.2-2.2-5.4,2.5c0,0.2-0.7,0.5-0.8,0.4c-4.3-3.3-7.6,1-11.4,1.7
	c-3,0.6-4.3,2.5-4.2,6.3c0.1,5.1-1.5,10.4-3.2,15.3c-2.7,7.9-6,15.7-9.1,23.4c-1.4,3.6,2.4,3.6,3.1,3.2c4.7-2.7,4.8,1.2,6.1,3.7
	c0.4,0.7,1.8,0.9,2.8,1.1c0.7,0.2,1.7-0.3,2.1,0.1c0.6,0.6,0.7,1.6,1,2.5c0.9-1.1,2.2-2.1,2.8-3.3c1.2-2.8,3.9-4,6.5-2.4
	c2.1,1.3,4.6,2.3,6.1,4.1c1.9,2.2,3.7,4.9,4.4,7.6c1.3,5.2,1.5,10.6,2.7,15.8c0.8,3.4,3,6.4,3.7,9.7c1,4.9,0.9,9.7,0,14.9
	c-1.7,9.5-3.9,18.7-8,27.4c-1.4,3.1-2.6,6.5-4.5,9.3c-2.1,3.1-4.9,5.8-8.9,1.7c-0.5-0.5-2.7-0.1-3.4,0.6c-1.7,1.7-3.3,3.6-4.5,5.7
	c-1,1.7-2.6,4.4-2,5.6c2.7,5.5-0.9,8.3-4,11.3c-3.8,3.7-3.6,4.8,0.4,8.1c6.6,5.4,11.7,12.1,12.8,20.9c0.2,1.8-1.6,4.5-3.3,5.8
	c-2,1.6-4.8,2.4-7.4,2.8c-0.9,0.1-2.9-2.1-3-3.3c-0.4-3.6,1.5-7.8-2.8-10.4c-0.1-0.1,0.1-1.1,0.3-1.2c2.6-0.6,2.3-2,0.7-3.2
	c-1.7-1.3-4.3-3.3-5.6-2.8c-3.6,1.4-3.6-0.7-3.9-2.9c-0.1-0.8,0.6-1.6,0.5-2.3c-0.5-3.2,0.2-8-4.9-7.4c-3.4,0.3-6.7,2.5-10,4
	c-0.8,0.4-1,1.7-1.7,2.3c-0.8,0.6-1.8,0.8-2.8,1.2c0.5-0.7,1.2-1.3,1.4-2c0.2-0.8-0.4-1.7-0.4-2.5c0-1.7-0.3-3.7,0.5-5
	c1.4-2.2,1.3-3.9-1.1-4.5c-1.6-0.4-4.3,0.2-5.1,1.3c-2.4,3.3-4.1,7.1-6.3,10.5c-0.4,0.6-1.7,0.6-2.6,1c-1.1,0.4-2.9,0.8-3,1.5
	c-0.2,1.3,0.2,3,0.9,4c2,2.7,6.5,2.9,7.2,7c1.3-0.3,3.2-0.2,3.8-1c2.1-2.8,3.8-5,7.5-2.1c0.9,0.7,2.9-0.2,4.3,0.1c0.8,0.2,2,1.3,2,2
	c0,0.8-1,2.2-1.7,2.3c-6,0.7-8.3,5.6-10.8,9.9c-0.7,1.2,0.1,4.9,0.9,5.2c4.9,1.6,6.3,6,8.6,9.6c1.4,2.1,3.4,3.7,5.1,5.7
	c0.6,0.7,0.8,1.6,1.3,2.4c-0.7,0-1.5,0-2.2,0c-0.8-0.1-1.6-0.2-2.3-0.3c0.5,0.6,0.9,1.3,1.5,1.7c4.7,3.3,4.7,3.3,0.3,6.9
	c-0.5,0.4-0.9,1-1.4,1.5c0.4,0.1,0.9,0.4,1.3,0.4c5.4,0.4,4.6,1.3,4.4,6.2c-0.1,3.8-1.9,6-3.1,8.8c-0.9,2-2.5,3.6-3.7,5.5
	c-0.3,0.5-0.2,1.4-0.2,2.1c0.1,4.7-1.2,8.4-5.3,11.5c-2.7,2.1-4.5,5.4-6.8,8.1c-1.9,2.2-10.1,3.7-13.3,2.5c-0.4-0.1-1.2-0.1-1.2,0.1
	c-1.8,6.7-8.1,5.8-12.8,7.8c-0.7,0.3-1.1,1.6-1.4,2.5c-0.2,0.8,0.1,1.7,0.1,2.6c-1.1-0.8-2.8-1.4-3.3-2.5c-1.6-3.6-4.3-4.4-8.1-3
	c-5.3,1.9-8.9,5.9-9.7,10.8c-0.9,5.8,3.6,10.5,8.1,13.2c8.6,5,11.2,13.1,12.3,21.6c0.7,5.1-2.1,10.6-7.6,12.2
	c-4.7,1.4-6.5,5.6-10.2,7.7c-0.9,0.5-1.8,1.1-2.7,1.7c-0.2-1.1-0.9-2.5-0.5-3.3c1.7-3.8-1.1-5-3.5-5.9c-3-1.2-5.3-2.9-7.1-5.7
	c-1.3-2-3.6-4-5.8-4.8c-2.2-0.7-4.7,0-4.7-3.5c0-0.3-1.6-0.8-2.4-0.8c-0.5,0-1.1,1-1.3,1.6c-1.1,4.5-2.5,8.9-3,13.4
	c-0.2,2,1.6,4.3,2.5,6.4c1.2,2.8,1.9,6.1,3.8,8.4c2.3,2.8,5.6,5,8.6,7.1c4.2,2.8,7.1,5.8,6.8,11.6c-0.1,3.1,2.2,6.3,3.3,9.4
	c0.3,1,0.4,2,0.5,3c-1.1,0-2.2,0.2-3.2-0.1c-9.2-3.5-14-10.6-15.7-19.9c-1.2-6.5-5.6-10.5-9.7-14.8c-0.6-0.6-1.4-1.4-1.4-2
	c0.3-3.8,1.3-7.7,1-11.4c-0.3-4.6-1.3-9.2-2.4-13.8c-0.9-3.7-2.2-7.2-3.4-10.8c-0.5-1.4-0.6-3.2-1.6-3.9c-1.2-0.9-2.5-6.5-5-0.6
	c-0.6,1.4-2.9,2.3-4.6,2.8c-1.7,0.5-3.9,0.6-5.5,0c-0.6-0.2-0.5-3-0.3-4.5c0.5-4.4,0.7-8.6-4.6-10.5c-0.6-0.2-1.3-1.8-1.2-1.9
	c4.1-3.4-0.4-3.5-1.8-4.2c-4-2.2-6.6-5.3-7.3-10c-0.1-0.9-0.5-2.1-1.2-2.7c-1.3-1-2.9-1.6-4.4-2.4c0.3,0.8,0.8,2.1,0.7,2.2
	c-3.4,1.4-6.9,3.6-10.4,3.8c-3.9,0.2-7,1.5-8,5.4c-0.4,1.6-1.5,4-2.8,4.4c-5.9,1.6-7.2,7.7-11.5,10.8c-5,3.7-8.2,9.4-14.3,12.3
	c-1.7,0.8-0.8,7.2-1.1,11c-0.1,2.2,0,4.4-0.2,6.5c-0.1,0.9-1.2,2-1,2.7c3,8.8-6.3,11.3-8.9,17.2c-0.1,0.2-4.3-0.4-5.1-1.6
	c-1.8-3.1-2.6-6.8-4.1-10c-3.7-7.7-7.6-15.3-11.4-22.9c-4.5-8.9-7.5-18.1-7.8-28.1c-0.1-3.1-0.8-6.2-1.3-9.3c0-0.3-0.9-0.7-0.9-0.6
	c-0.5,0.6-1.5,1.4-1.4,1.8c1.5,4.4-1.8,6.3-4.6,6.7c-2.2,0.3-4.8-1.9-7.1-3.2c-1-0.5-1.7-1.5-2.5-2.4c-0.7-0.7-1.2-1.5-1.8-2.3
	c0.9,0,1.9,0.3,2.6,0.1c1.1-0.3,2.1-1,3-1.7c0.5-0.4,0.9-1.2,1.3-1.8c-0.6,0.2-1.3,0.5-1.8,0.4c-2.4-0.5-5.1-0.7-7.2-2
	c-4.4-2.6-8-6.2-10.8-10.6c-0.5-0.7-2.3-0.9-3.5-0.8c-3.7,0.1-7.6-0.3-11.2,0.7c-9.7,2.6-18.9-1.3-28.3-1.9c-1.1-0.1-2.6-1.7-3.2-3
	c-2.6-5.6-3-5.7-8.5-3c-1.5,0.8-3.7,1.2-5.2,0.7c-8.2-2.6-16.1-5.8-19.9-14.5c-1.5-3.5-4.4-3.7-7.4-3.7c-3.1,0-5,3.5-3.2,6.2
	c2,3,4.4,5.7,6.3,8.7c2.2,3.4,4.1,7,6.1,10.5c0.4,0.7,0.9,1.3,1.3,2c0.1-0.8,0.2-1.5,0.5-2.2c0.4-1.2,0.9-2.3,1.4-3.5
	c0.5,1.2,1.1,2.4,1.3,3.6c0.3,1.2,0,2.7,0.4,3.8c0.6,1.4,1.4,3.2,2.6,3.8c2.5,1.3,11.7-2.3,13.6-4.8c0.4-0.5,1-0.9,1.4-1.4
	c1.8-2,3.5-4.1,5.3-6.2c0.3,2.3,0.3,4.8,1,7c1.2,3.5,3.1,6.7,7.7,6.3c5.5-0.5,7.4,4.6,9,7.7c0.9,1.7-3.2,6.1-5.2,9.2
	c-0.3,0.5-1.8,0.7-1.8,1c0,5-3,7.9-6.8,10.3c-1.1,0.7-2.1,1.6-3.3,2.3c-0.5,0.3-1.7,0.3-1.8,0.6c-1.4,6.7-7.8,4.2-11.6,6.4
	c-0.8,0.5-2.3,0.8-2.4,1.5c-1.2,5.1-5.8,5.2-9.4,6.8c-5,2.1-10,4.5-15,6.8c-0.2,0.1-0.3,0.2-0.5,0.2c-5,0.2-9.5,2.1-14,4.2
	c-3.2,1.5-4.7-0.6-5.4-3.2c-1.2-4.7-1.9-9.5-2.9-14.2c-0.1-0.5,0-1.1-0.3-1.4c-5.5-6.2-7.9-14.6-14.8-19.9c-2.3-1.8-4.1-5.3-4.7-8.2
	c-1-5.2-2.1-9.4-7.3-12.5c-2.9-1.7-4-6.4-6.2-9.6c-2.4-3.5-5.2-6.7-7.8-10.1c-0.4-0.5-0.5-1.1-0.7-1.6c-0.3-0.7-0.5-1.3-0.7-2
	c-0.2,0.6-0.3,1.3-0.6,1.9c-0.4,1.1-0.9,2.2-1.3,3.3c-0.9-0.7-2-1.2-2.7-2c-1.7-2-3.2-4.2-4.8-6.3c-0.4-0.5-0.9-0.9-1.3-1.3
	c0.1,0.7-0.1,1.6,0.3,2.1c1.6,2.3,3.6,4.4,5,6.8c3.7,6.6,7.3,13.3,10.8,20c0.5,0.9,0,2.2,0.3,3.3c0.4,1.4,0.7,3.5,1.6,3.9
	c7.5,2.6,6.5,9.6,8.2,15.2c0.7,2.2,1.5,4.8,3.2,6.1c3.8,2.9,6.1,6.5,6.9,11.1c0.7,3.9,3,5.7,6.4,7.5c3.4,1.8,6.1,4.9,9,7.5
	c1.4,1.3,2.7,2.8,4,4.3c0.5,0.6,1.4,1.8,1.2,2c-3.8,5.1,2.8,5.4,3.9,8.2c0.3,0.8,2.9,1.2,4.2,0.9c6-1.2,12-2.8,18-4.2
	c3.1-0.8,6.3-1.5,9.4-2.6c2.2-0.8,3.4-0.6,2.9,1.9c-0.9,4.4-1.3,9.1-3.2,13.2c-3.2,7-6.7,14.1-11.3,20.2c-3.8,5.1-9.3,8.8-14,13.2
	c-5.4,5.1-11,10.1-16,15.6c-4.6,5-10.1,9.3-12.7,15.9c-1.4,3.6-5.4,6.9-0.5,10.9c0.6,0.5-0.5,2.9-0.3,4.4c0.7,5-0.6,10.8,5.3,14
	c0.5,0.3,0.7,1.5,0.7,2.2c0,6,0.5,12.1-0.3,18c-0.8,6.3-5.2,10.2-10.7,13.4c-6.6,3.9-12.8,8.5-18.9,13.1c-0.8,0.6-0.4,3-0.2,4.5
	c0.7,4.9,2.6,9.5,1.6,15c-0.7,4-2.4,5.4-5.5,6.6c-1.8,0.7-3.8,1.1-5.5,2.2c-1.8,1.1-3.7,1.6-2.4,5.5c1.1,3.1-1.2,8.3-3.5,11.5
	c-4.8,6.6-10.8,12.5-16.1,18.8c-5.7,6.7-13.4,9.4-21.5,11.4c-1.9,0.5-4.2-0.7-6.2-0.4c-5.2,0.9-10.4,2.1-15.6,3.3
	c-2.6,0.6-8.2-2.9-8.5-5.5c-1.1-11.4-3.1-22.4-10.8-31.7c-2-2.4-2.8-6-3.4-9.2c-1.1-5.5-0.7-11.4-2.5-16.6
	c-2.5-7.4-6.5-14.3-9.8-21.4c-0.7-1.6-2.1-3.2-2.1-4.8c0.1-9.5,1.5-18.5,8.7-25.8c1.5-1.6,2.1-4.9,1.8-7.3
	c-0.8-5.8-1.5-11.8-3.7-17.1c-2.8-6.7-3.7-14.6-10.6-19.2c-1.6-1.1-3-2.6-4.3-4.2c-3.2-4.1-5.2-8-2.8-13.8c2.1-5,2.3-10.9,2.4-16.5
	c0.1-3.2-4.8-5.8-8.1-5.2c-2.6,0.5-5.3,1.3-7.9,1.1c-1.8-0.2-4.2-1.4-5-2.9c-4.8-8.7-8.3-10.1-18.1-6.4c-4.8,1.8-9.4,3.9-14.2,5.6
	c-1.3,0.5-2.9,0.6-4.2,0.2c-7.7-2.3-14.9-1.4-22.3,1.6c-2.1,0.8-5.5,0.1-7.6-1.2c-5.9-3.5-11.7-7.3-17-11.7
	c-2.4-1.9-3.5-5.4-5.1-8.2c-1-1.8-1.6-4.2-3.1-5.3c-3.3-2.4-6.1-5.1-7.3-9c-0.1-0.2-0.3-0.6-0.5-0.6c-6.7-0.3-4.8-5.7-6.7-9.4
	c-2.8-5.4-0.4-8.3,1.3-12c3.2-6.7,1.1-13.7,1.4-20.6c0-0.5,0-1.2-0.3-1.4c-5.8-3.9-1.8-7.5,0.3-11.2c3.4-5.8,6.1-12.1,10.2-17.4
	c4.4-5.7,10-10.3,16.7-13.6c3.8-1.9,6.1-5.6,5.7-10.5c-0.5-5.3,1.7-10,6-13c5-3.5,11.1-5.6,11.7-13c0-0.3,2.2-0.7,3.2-0.5
	c1.9,0.4,3.7,1.4,5.6,1.8c2.5,0.5,5.2,1.4,7.5,0.7c4.1-1.1,8.1-3,12-4.9c6.8-3.5,13.9-3.8,21.3-4c6.3-0.1,12.5-1.3,18.8-1.8
	c1.7-0.1,3.4,0.6,5.1,0.9c0.8,0.1,1.5,0.3,2.3,0.4c0.4,0,0.8-0.3,1.3-0.4c-0.1,0.6,0,1.3-0.3,1.7c-1.5,2.1-1.9,3.7,0.3,6
	c0.7,0.7-0.5,4.3-1.9,5.6c-2.4,2.3-2,3.7,0.5,4.9c4.2,2,8,4.7,13.3,4.3c4-0.3,9.2,0.1,10.5,6c0.2,1,1.8,1.9,2.9,2.4
	c4,1.7,8,3.4,12.1,4.8c1.4,0.5,3.6,0.9,4.3,0.2c1.2-1.1,2.5-3.4,2.2-4.9c-0.9-5.8-0.1-7.8,5.7-8.4c2.9-0.3,6.1,1.2,9,2
	c4.2,1.2,8.3,2.7,12.5,3.8c2.9,0.8,5.8,1.3,8.8,1.9c4.2,0.8,8,1.8,12.7-0.3c3.7-1.7,9-0.1,13.5,0.6c3.9,0.6,5.6-1.4,6.9-4.3
	c1.6-3.8,3.3-7.6,4.1-11.6c0.9-4.5,0.8-9.2,1.1-13.9c0-0.3-0.5-1-0.6-0.9c-2.8,0.7-5.6,1.2-8.2,2.4c-3.2,1.4-6,3.2-9.5,0.4
	c-2.5-2-5.5-4.8-8.4,0.1c-0.5,0.9-3.6,1.5-4.1,0.9c-3.4-3.8-11.1-1.5-12.2-8.8c-0.2-1.1-2.8-1.8-4.3-2.7c-0.5-0.3-0.9-0.7-1.3-1
	c0.5-0.1,1.2-0.1,1.6-0.3c1-0.6,2.6-1.3,2.7-2.1c0.2-1.3-0.6-3.8-1.2-3.8c-3-0.3-2.5-2-2.1-3.9c0.7-3.2-0.9-5-3.8-4.8
	c-2.7,0.2-6.5-1.6-7.6,3.3c-0.6,2.6-2.5,2.1-4,0.3c-0.4-0.4-1-0.7-1.5-1c-0.2,0.7-0.8,1.8-0.5,2.2c2.1,2.8,1.3,7.6,6,8.5
	c0.8,0.2,1.9,1.9,1.7,2.7c-0.2,0.9-1.7,1.6-2.5,2.4c-1,1.1-2.2,2.3-2.8,3.6c-0.4,0.7,0.2,1.9,0.4,2.9c-1.8-0.4-3.7-0.9-5.5-1.3
	c2.1-2.9-5.8-3.7-1.4-7.1c-0.9-0.7-1.9-1.3-2.6-2.2c-2.7-3.3-5.4-6.6-7.8-10.1c-0.7-0.9-0.7-2.5-0.6-3.8c0.6-6-2.9-9.1-7.6-11.5
	c-3-1.5-6.2-2.8-8.8-4.8c-2.1-1.7-3.3-4.5-5.2-6.5c-0.9-1-2.6-1.2-3.9-1.8c-0.8-0.4-2-0.5-2.5-1.1c-0.7-0.8-0.9-2-1.3-3
	c-1.5,0.8-4.1,1.4-4.1,2.3c-0.3,2.7-1.6,5.7,1.8,8c2.5,1.7,4,4.7,6.3,6.8c2.3,2.1,5.1,3.7,7.7,5.5c4.3,3,8.7,6,13,9.1
	c0.3,0.2,0,1.5-0.1,2.2c-0.7-0.3-1.3-0.6-2-0.8c-1.4-0.4-2.8-0.9-4.2-1.3c-0.1,1.6-0.8,3.6-0.2,4.9c1.1,2.4-1.4,10-4,9.9
	c-3.8-0.2-3.7,1.5-3.4,4.2c0.4,2.9-0.5,3.7-3.3,2c-2.4-1.5-5-2.6-7.4-4c-0.7-0.4-1.2-1.2-1.8-1.8c0.8-0.4,1.6-1.1,2.5-1.2
	c2.9-0.2,5.8-0.3,8.8-0.4c2.8-0.1,5.2-1.3,5.1-4.1c-0.1-2.4-0.8-5.7-2.5-7.1c-4-3.3-9.1-5.2-13.2-8.5c-4.3-3.5-8.4-7.5-11.5-12
	c-3.9-5.8-5.7-6.7-11.4-2.8c-2.2,1.5-4.2,3.2-6.5,4.3c-1.1,0.5-2.7,0.1-4-0.2c-2.4-0.5-5.1-2.1-7-1.5c-1.8,0.6-3.7,3.5-3.9,5.6
	c-0.5,4.4-1.8,7.2-6.4,8.7c-2.5,0.8-4.3,3.7-6.3,5.8c-2.2,2.3-2.8,4.6-0.3,7.3c0.3,0.3-1.7,2.6-2.5,4.1c-2.6,5.1-6.6,7.7-12.5,7.9
	c-3,0.1-6.4,0.7-8.8,2.4c-3,2.1-4.6,1.5-5.7-1.4c-1.3-3-3.2-3.8-6.3-3.1c-3.5,0.9-6.1,0-5.2-4.5c0.2-0.8,0.5-2.2,0.2-2.4
	c-5-3.3-0.9-6.7-0.5-10.2c0.7-5.4,0.1-11,0-16.5c0-0.7-0.4-2-0.3-2.1c2.8-1,5.7-2.8,8.5-2.7c7.7,0.2,15.4,1.3,23.2,1.8
	c1.1,0.1,3.3-1.7,3.2-2.5c-0.4-5.7,4.3-11.4-1.9-17.4c-3.3-3.2-5.8-6.3-10.4-7.4c-0.8-0.2-1.5-2-1.7-3.2c-0.1-0.5,1.3-1.6,2.2-1.8
	c1.8-0.3,3.8-0.6,5.5-0.1c4.2,1.1,5.6,0.1,4.9-4.2c-0.1-0.5,0.1-1.1,0.2-1.7c0.6,0.1,1.4,0,1.8,0.4c2.6,1.9,5.1,3.5,6.7-1.1
	c7.1-0.6,7.1-10.5,14.3-11.3c0.7-0.1,1.5-3,1.5-4.7c0.1-4.2,3.3-6.1,6.3-6.5c3.4-0.4,6.2-4.9,10-1.6c1.1-1.5,3.1-3,3-4.4
	c-0.3-3-1.7-6-2.5-9c-0.3-1.3,0.1-3-0.5-4.1c-1.2-2.2,4.5-3.5,0.5-5.7c2.3-1.6,4.5-3.2,6.8-4.7c0.5-0.3,1.1-0.2,1.7-0.3
	c0,0.8,0.3,1.7,0.1,2.4c-1,2.4-2.3,4.8,1.7,5.6c-0.2,0.6-0.3,1.3-0.7,1.6c-4.9,3.9-5.4,5.9-2.8,11.1c0.3,0.6,1.3,1.4,1.3,1.4
	c2.9-2.3,3.5,5.3,7,1.5c1.5-1.6,4.1-2.3,6.2-3.3c0.3-0.1,1,0.5,1.5,0.8c-2.1,3.3,2.1,3.2,2.7,5c1.1-0.7,2.1-1.5,3.2-2.2
	c3.5-1.9,6.9-3.9,10.5-5.3c1.7-0.7,4.6-2.7,5.3,1.5c0.1,0.4,1.4,1,2.1,0.9c1.2-0.1,3.5-0.8,3.5-0.9c-0.7-4.1,7.9-2.3,5-7.9
	c-2-3.8-1.1-7.7,0.8-11.4c1.6-3.2,3.9-3.4,6.2-0.7c1,1.1,2.4,1.7,3.6,2.6c0.5-1.5,0.9-3,1.6-4.4c2-4.2-3-5.1-3.9-8.2
	c-0.9-3.2,0-4.4,2.3-5.3c2.2-0.8,5.1-2.4,6.9-1.7c5.9,2.6,9.8-0.5,13.9-3.5c0.5-0.4,1.1-0.6,1.6-0.9c-0.5-0.3-1-0.6-1.5-0.9
	c-7.2-4.9-14-1.3-20.7,1.2c-2.7,1-4.3,0.2-7-0.8c-6.3-2.4-7.2-6-7-11.6c0.1-3.3-1.3-6.6-1-9.8c0.2-1.8,2.4-3.4,3.9-5.1
	c3.2-3.6,6.7-7,9.5-11c0.8-1.1-0.4-5.3-1.3-5.5c-3.5-0.9-7.7-1.9-10.8-0.7c-3.4,1.4-3.1,5.6-3.2,9.6c0,3.1-2.8,7.4-5.6,9.2
	c-7.2,4.7-9.2,11.2-8.6,19c0.1,1.4,1.4,3.2,2.6,4.1c6.4,4.1,6.5,9.2,0.1,13.2c-2.1,1.3-4.5,11.6-3.2,14.3c0.3,0.6,1.8,1,1.8,1.3
	c-0.2,1,0.6,3.5-2.3,2c-0.5-0.3-2,2.2-3.2,2.4c-2.6,0.5-5.4,0-5.8,3.9c0,0.5-3.4,1.4-3.8,0.9c-1.2-1.4-1.8-3.4-2.5-5.3
	c-0.3-0.8,0-1.9-0.3-2.6c-2.3-5.3-4.7-10.4-6.9-15.7c-1-2.3-1.5-4.8-2.2-7.2c-0.1-0.2-0.3-0.3-0.5-0.5c-0.3,0.5-0.8,1-0.9,1.6
	c-0.2,1.3,0.3,3.2-0.4,3.8c-3.7,3-7.4,6.5-11.7,7.9c-2.1,0.7-5.5-2.6-8.3-4.2c-0.1-0.1,0.3-1.5,0.8-2c0.4-0.5,1.2-0.5,1.9-0.8
	c-1-0.5,1-4.2-2.5-2.3c-0.2,0.1-1.2-0.6-1.4-1c-0.1-0.4,0.3-1.4,0.7-1.6c6.4-2.6-0.7-5.2,0-7.8c0.1-0.5-1.1-1.4-1.7-2.1
	c0.7-0.4,1.4-0.9,2.1-1.1c2.6-0.4,5.2-0.7,7.8-1c-2.6,0.1-5.2,0.2-7.8,0.1c-0.6,0-1.7-1.2-1.6-1.9c0-2.4-0.7-5.3,3.1-6
	c1.9-0.3,1.9-4.9,5.2-2.5c0,0,0.9-0.8,0.8-1c-0.4-0.9-1-1.7-1.5-2.5c1.1,0,2.5,0.5,3.3,0c2.5-1.6,6.1-3.1,6.8-5.4
	c1.6-5.6,6.7-7.9,9.6-12c1.5-2.1,1.6-5.3,2.4-7.9c1.3-3.8,0.3-8.9,5.9-10.3c-2.4-2.3,4.7-3.3,0.7-5.8c1.1-1.2,2-2.7,3.3-3.5
	c1.2-0.8,2.9-0.8,4.3-1.3c0.4-0.1,0.5-0.9,0.7-1.4c-5.6-1.4-0.3-2.4,0-3.7c0.2-0.7-0.9-1.6-1.2-2.5c-0.3-1-0.4-2.2-0.6-3.2
	c0.9-0.1,2.2-0.5,2.7-0.1c2,1.6,2.5,1.7,1.8-1.1c-0.1-0.4,0.8-1.1,1.2-1.6c2,6.1,2.7-2.8,4.4-0.4c0,0,0.8-0.5,1.2-0.7
	c1.6,4.8,2.1-0.5,3.3-0.4c4.7,0.5,3.8-0.9,0.9-2.8c0.5-0.6,1.2-1.8,1.5-1.7c1.5,0.5,3,1.3,4.5,1.9c0.5,0.2,1.4,0.3,1.5,0.1
	c1.3-2.4,2.3-5,3.8-7.2c0.5-0.7,2.2-0.7,3.4-1c0.1,0.8,0.3,1.6,0.3,2.4c0,0.5-0.4,0.9-0.5,1.4c-0.2,1.3-0.2,2.5-0.3,3.8
	c0.6-1.1,1.2-2.2,1.8-3.3c0.5-0.9,0.8-1.8,1.4-2.7c0.4-0.6,1-1,1.4-1.5c0,0.6-0.1,1.2,0,1.7c0.2,0.8,0.4,1.6,0.7,2.4
	c0.5-0.8,1.1-1.5,1.5-2.4c0.5-1,0.6-2.4,1.2-3.2c0.5-0.6,1.7-0.7,2.6-1c0.2,0.8,0.4,1.7,0.5,2.5c0.2,1.2,0.4,2.4,0.5,3.7
	c0.6-0.7,1-1.6,1.7-2.1c0.7-0.5,1.8-0.8,2.6-0.8c1.2,0.1,2.4,0.4,3.5,0.9c1.4,0.6,2.7,1.6,4,2.3c-1.6,1-3.1,2.1-4.8,3
	c-0.8,0.4-1.8,0.4-2.8,0.6c1,0.8,2.6,2.5,3,2.3c2.5-1.6,5.9,2.8,8-1.2c0.1-0.3,2.4,0.7,3.7,1c-0.7,0.4-1.3,0.7-2,1.1
	c-0.3,0.1-0.6,0.3-0.8,0.4c0.5,0.4,0.9,1.1,1.4,1.2c3.4,0.4,6.8,0.5,10.2,1c2.5,0.4,5.2,0.7,7.4,1.9c5.9,3.1,11.7,6.4,17.1,10.2
	c2,1.4,4.2,4.7,3.8,6.6c-0.6,2.8-3,6.8-5.4,7.4c-4.4,1.2-9.4,1-14,0c-4.6-1-8.9-3.5-13.4-5.3c-0.4-0.2-0.9-0.3-1.4-0.5
	c0,0.6-0.2,1.4,0.1,1.7c2.2,1.9,4.6,3.7,6.9,5.7c1.4,1.2,2.9,2.6,3.6,4.2c1,2.2,1.5,4.7,1.8,7.1c0.8,5.7,6.1,5.7,9.7,7.8
	c0.7,0.4,2.6-1,3.9-1.6c-0.9-0.9-1.8-1.9-2.8-2.6c-1.3-0.9-3.2-1.3-3.9-2.5c-0.6-0.9,0-2.7,0.4-4c0.1-0.2,2-0.1,2.9,0.3
	c2.6,1.1,5,2.6,7.6,3.6c0.9,0.3,2.7,0.2,3-0.3c0.5-1,0.7-3,0.1-3.5c-3.4-2.8-1.7-5.1,0.3-7.5c3.3-3.7,6.5-7.6,12.2-3.9
	c0.2,0.1,1.4-0.5,1.4-0.7c-0.1-2.8,1.7-6.1-2.3-7.8c-0.6-0.2-0.8-2-0.7-3c0.4-3.6,0.6-7-3.2-9.2c-0.3-0.2-0.4-0.8-0.6-1.3
	c0.3,0,0.6-0.1,0.9,0c3.6,1.3,8.4-0.8,11,3.9c0.9,1.6,2.2,2.4-0.5,3.5c-1.2,0.5-2,2.2-3,3.4c2.2,1.5,4.2,3.4,6.6,4.2
	c1,0.3,3.6-1.6,4-2.9c2.2-6.3,7.5-9.4,12.4-12.9c0.7-0.5,2.4,0.3,3.6,0.5c-1.5-2.6,0.9-2.6,2.3-3.4c1-0.6,1.8-1.6,2.7-2.5
	c0.2,1.3,0.5,2.5,0.5,3.8c0,1-0.5,1.9-0.8,2.9c2-0.6,4.1-1.1,5.9-2c1.3-0.6,2.3-2.1,3.6-2.7c2.4-1.1,5.1-1.6,7.4-2.9
	c2.5-1.4,3.9-2,4.1,1.7c0.1,0.9,1,1.7,1.6,2.5c0.3-0.8,0.5-1.6,0.9-2.3c1.1-1.5,3.4-3.2,3.2-4.4c-0.3-1.9-2.7-3.3-3.5-5.2
	c-0.3-0.7,1.4-2.5,2.6-3.3c0.8-0.5,2.2,0.1,3.4,0.1C959.7,185.6,959.9,185.1,960,184.6z M906,405.2c4,0.2,7.4-1.4,8.5-4.6
	c0.7-2-0.6-6-2.3-7.4c-5.1-4.1-10.8-7.5-16.6-10.7c-3.4-1.9-3.9-2.3-1.8-5c0.2-0.3-0.1-1,0.2-1.4c1.7-3,0.6-7.7,5.3-9
	c0.2,0,0.2-0.6,0.3-0.9c-0.6,0-1.2-0.2-1.7,0c-6.6,2.4-13.1,4.8-19.6,7.3c-0.2,0.1-0.2,1.1,0,1.3c2.4,2,4.6,5,8.5,2.9
	c0.5-0.3,1.4,0.2,2.1,0.3c-0.4,0.6-0.6,1.5-1.2,1.7c-2.8,1.2-5.6,2.4-8.6,3.3c-1.4,0.4-3.8,2.3-3.4-1.6c0.1-0.6-0.5-1.7-1.1-1.9
	c-2.1-0.9-4.3-1.5-0.5-3.3c0.2-0.1,0.2-1.8-0.1-1.9c-2.8-1.3-5.7-2.7-8.7-3.4c-0.9-0.2-2.6,1-3.3,2.1c-1.7,2.7-2.3,7.3-4.5,8.1
	c-4.4,1.7-3.3,4.6-3.7,7.5c-0.1,0.8-0.9,1.6-1.2,2.4c-0.7,2.1-2.2,4.5-1.7,6.3c1,3.4,3.2,7.2,7.3,6.9c4.2-0.2,9.3,1.8,12.5-3
	c0.3-0.5,1.2-0.5,1.8-0.8c6.6-2.4,12.5-1.6,18.8,1.8C895.7,404.3,901.1,404.2,906,405.2z M963.8,371.3c0.4-0.3,0.8-0.5,1.2-0.8
	c-1.4-1.8-2.7-4.8-4.3-5.1c-4.6-0.6-9.4-0.4-13.3,3.1c-2,1.8-4.1,3.7-6.4,5c-4.5,2.6-5.3,6.8-1.9,10.6c0.8,0.9,1.5,2.2,1.8,3.4
	c2,8,8.9,12.2,13.8,17.9c0.4,0.4,0.7,1.5,0.5,1.8c-3.7,4.3-4.8,9.1-3.2,14.5c0.2,0.9,0.8,1.9,1.5,2.3c6.9,3.3,14,6.4,21.9,4
	c0.7-0.2,1.6-2,1.3-2.3c-3.1-3.8,0.9-10.5-5.5-12.8c0.1-0.3,0.4-0.5,0.3-0.8c-0.3-0.9-0.5-1.9-1-2.7c-0.9-1.4-2.4-2.6-2.8-4.1
	c-1.1-4.3-1.7-8.6-2.6-13c-0.1-0.4-0.7-0.8-1.1-0.8c-4.2-0.3-5.8-3.7-7.8-6.6c-1.7-2.4-1.8-2.4,0.2-4c0.2-0.2,0.5-0.6,0.5-0.8
	c-2.1-7.1,3-4.5,6.2-4.6c0.3,0,0.7-0.9,0.7-1.5C964,373.2,963.9,372.2,963.8,371.3z M1201,288.4c0.3,0.1,0.6,0.3,0.9,0.4
	c-2.3,6.6-4.5,13.3-7.1,19.9c-0.8,2.1-2.8,3.8-4.4,5.6c-1,1.1-2.2,2.1-3.3,3.1c1.6,0,3.2,0.1,4.8-0.2c1.1-0.2,2.3-0.8,3-1.7
	c3.2-4.4,6.5-8.7,9.3-13.4c1.1-1.9,1.8-4.5,1.6-6.6c-0.4-3.5-1.6-7-2.7-10.4c-0.3-1.1-1.3-1.9-2-2.9c-0.2,1.2-0.5,2.5-0.6,3.7
	C1200.5,286.8,1200.8,287.6,1201,288.4z M883.3,631.5c4,0,4,0,4.5-2.9c0.1-0.6,0.7-1.1,1.1-1.6c1.7-2,3.3-3.9,5-5.9
	c0.2-0.2,0.2-0.6,0.4-1c-3.8-0.6-7.7-1.4-11.5-1.4c-0.7,0-1.5,3.5-2.1,5.4c-0.3,1.1-0.3,2.2-0.4,3.4
	C879.9,630.3,879.1,633.5,883.3,631.5z M991.3,378.4c0.5,0.4,1.5,1.9,2.7,2.1c2.1,0.3,4.6,0.4,6.3-0.6c2.1-1.2,1.7-10.5-0.1-12.3
	c-0.3-0.3-0.8-0.5-1.3-0.7c-0.1,0.4-0.5,1-0.4,1.1c2.8,2.5,0.3,2.6-1.3,2.8C993.2,371.2,991.4,373.5,991.3,378.4z"/>
        <path d="M421.5,912.9c-3.9,1.6-6.2,4.3-5.4,8.8c0.5,2.7-1,3.6-3.1,2.4c-3.9-2.2-7.7-4.7-11.3-7.4c-0.4-0.3,0.6-2.7,1.3-3.9
	c0.4-0.7,1.8-0.8,2.5-1.4c0.6-0.4,0.9-1.2,1.3-1.8c-0.8,0-1.6-0.2-2.2,0.1c-1,0.4-1.8,1.6-2.8,1.7c-0.8,0.1-2.5-1.2-2.5-1.4
	c1.8-5.9-2.8-8.7-6-12c-1.4-1.5-5.5-1.4-2.3-5c0.1-0.1-0.3-0.7-0.6-1c-1.5-1.3-1.5-1.6-0.1-1.9c3.7-0.6,4.9-1.7,2.2-5.3
	c-1-1.3-0.1-3.9-0.7-5.6c-0.5-1.2-2.1-2.7-3.4-2.8c-4.1-0.5-1.9-3.2-1.8-5c0-0.2,2.4-0.3,3.7-0.4c0.5,0,1.5,0.2,1.6,0.1
	c0.9-3.3,2.4-6.6,2.5-10c0.2-4.2-1-8.5-0.9-12.7c0.1-3.8,0-3.7-3.4-4.5c-1.6-0.4-3.1-3.1-3.9-5c-0.6-1.4-0.7-3.6,0-4.9
	c2.9-5.2-0.5-9.3-1.6-13.9c-0.6-2.4,0.8-5.3,1.5-7.9c1.4-5.4,3.6-10.7,4.2-16.2c0.5-4.5-1-9.2-1.3-13.9c-0.3-5.5-0.3-11.1-0.2-16.7
	c0.2-7.3,0.8-14.7,1-22c0.2-7.6,0-15.2,0-22.8c0.1-9.4-6.9-13.5-13.4-17.8c-3.7-2.4-7.9-4.1-11.4-6.7c-3.1-2.3-5.9-4.6-6.9-9.3
	c-0.9-4.4-4.9-8.1-7.3-12.2c-3.4-5.9-6.5-12-9.8-18c-0.6-1.1-1.4-2.8-2.4-3c-5.8-1.2-5.7-6-5.8-10c-0.1-1.9,2.1-3.9,3.4-5.7
	c0.9-1.3,2.5-2.1,3.3-3.4c0.3-0.5-0.4-1.7-0.7-2.6c-0.4,0.6-0.7,1.1-1.2,1.6c-0.1,0.2-0.6,0.4-0.6,0.4c-1-1.2-2.8-2.4-2.8-3.6
	c0.1-2.4,1.1-4.7,1.8-7.1c0.6-2.1,1.2-4.3,1.8-6.4c0.1-0.3,0-0.7,0.2-0.9c3.4-3.2,7-6.3,10.2-9.7c2-2.1,6.9-3.5,3.1-8
	c-0.2-0.3,0.3-1.2,0.4-1.8c0.2-5.3,0.2-10.5-3.6-15c-1.3-1.6-1.4-4.2-2.6-6c-0.6-0.8-3.2-1.5-3.7-1c-1.5,1.5-2.6,3.6-3.7,5.6
	c-0.5,0.9-0.8,1.8-1.3,2.8c-0.7-0.3-1.3-0.8-2-0.9c-3.3-0.8-4.8-5.7-9.5-3.8c-0.9,0.4-3.1-1.6-4.4-2.9c-1.9-1.8-3.4-4-5.1-5.9
	c-0.1-0.1-0.6,0-1,0.1c0.7,1.4,1.4,3-1.2,1.3c-1-0.6-2.1-1.5-2.6-2.5c-1-2.1-1.5-4.5-2.6-6.6c-1.3-2.6-2.9-5.1-4.5-7.6
	c-0.2-0.4-0.8-0.8-1.1-0.7c-6.5,2.1-11.9-2.3-17.8-3.4c-4-0.8-7.5-5.2-10.7-8.5c-2.9-2.9-5.4-4.4-9.3-1.8
	c-5.1,3.2-10.1,0.1-14.6-1.7c-7.3-2.8-14.4-6.2-21.3-9.9c-3.4-1.8-6.5-4.3-9.3-7c-1.9-1.8-3.1-4.3-1-7.2c2.7-3.8-0.1-7.5-1.6-10.5
	c-3.3-6.4-7.5-12.3-13.5-16.7c-0.6-0.5-1.4-2-1.3-2.1c3.6-3.1-0.2-3.9-1.6-5.6c-5.7-6.9-11.4-14.1-12.1-23.3
	c-0.3-4.6-4.6-2.9-5.9-5.3c-0.4,0.6-1.3,1.2-1.3,1.7c0.4,3.7,0.1,7.8,1.7,10.9c4.7,9.5,11.3,18.1,12.1,29.2c0.1,0.8,1.3,1.6,2,2.4
	c1.2,1.3,2.5,2.6,3.4,4.1c0.3,0.5-0.4,1.8-1,2.4c-0.2,0.2-1.6-0.3-2.1-0.8c-1.5-1.5-2.7-3.3-4.1-4.8c-2.4-2.7-5.4-4.6-4.5-9.4
	c0.4-1.9-3.4-4.7-5.5-6.8c-1.2-1.3-3-2-4.3-3.2c-0.3-0.3-4.6-2.7,0.9-2.8c3.1-0.1,2.4-4.4,0.4-6.2c-5.6-5.2-7.3-12.3-8.3-19
	c-1.3-9-5.9-13.8-14.2-15.9c-0.3-0.1-0.8-0.2-0.9-0.4c-1.4-4.6-3-9.1-3.9-13.8c-0.5-2.8,0.7-6,0.2-8.9c-0.3-1.6-2.8-2.7-3.5-4.4
	c-0.9-2.3-0.6-5-1.4-7.4c-2.3-6.9,2.8-13,1.7-19.8c-0.3-2,1-4.4,1.8-6.5c4.5-11.1,10.3-21.8,8.8-34.4c-0.3-2.5-0.3-5.3,3.5-2.3
	c1.6,1.3,3.5,2.2,5.4,3c0.5,0.2,2.1-0.9,2.2-1.5c0.4-5.2-1.7-9.4-4.4-13.9c-1.9-3.1-4.1-5.4-6.5-7.8c-0.9-0.8-2.1-1.2-2.9-2
	c-1-1.1-1.8-2.4-2.7-3.6c2.1-0.9,2.6-2.2,0.8-3.9c4.9-3.7-0.7-6.3-1.4-9.1c-0.6-2.2-1.4-2.5,1.1-3.5c1-0.4,1.2-2.5,1.8-3.9
	c0.3-0.6,0.5-1.3,0.8-2c-0.6,0.3-1.1,0.5-1.7,0.9c-0.3,0.2-0.5,0.5-0.8,0.6c-1.8,0.9-3.6,1.8-5.5,2.8c0.8-1.8,2.1-3.5,2.1-5.3
	c0-3.5,0.2-6.6,3.8-8.4c0.2-0.1,0.1-0.8,0.1-1.2c-0.5,0-0.9,0-1.3,0.1c-0.9,0.3-1.7,0.7-2.6,1.1c0.2-1,0.3-2.1,0.7-3.1
	c1.2-2.8,1.4-4.9-2.7-4.8c-0.1,0-0.6-1.4-0.4-1.5c4.4-3.6,2.3-7.5,0.5-11.3c-0.3-0.6-1.3-1.4-1.2-1.4c6.6-6.5-4.8-12.7-0.4-19.1
	c0.3-0.5-0.2-1.5-0.3-2.3c-0.4,0.7-0.8,1.4-1.1,2.1c-0.2,0.4-0.2,1-0.4,1.4c-0.7,2.1-1.3,4.1-2,6.2c-1-1.8-1.9-3.5-2.9-5.3
	c-0.5-0.8-1.2-1.4-1.7-2.2c-0.1,0.9-0.2,1.8-0.2,2.7c0,1,0,2,0.1,3c-1.1-0.6-2.4-0.9-3.2-1.7c-0.8-0.8-1.5-2-1.6-3.1
	c-0.1-2.9-0.4-5.3-3.2-7.2c-0.8-0.5,0.6-4-0.3-4.7c-1.2-1-4.3-0.1-5.2-1.2c-2.5-3-5.3-4.6-9.2-4.7c-0.9,0-1.9-1.3-2.8-2.1
	c-1.4-1.3-2.9-2.6-4.2-4c-1.2-1.3-3.4-3.4-3-3.9c4.1-7.1-2.8-0.7-2.9-2.4c-2,0.8-2.9,0.5-1.8-1.8c-0.5-0.2-1.4-0.8-1.6-0.7
	c-1,0.8-2.9,2.1-2.7,2.8c1.2,5.8-0.6,7.6-6.8,7.5c-3.4-0.1-6.8,3.3-10.3,4.8c-1.2,0.5-2.7,0.2-4.1,0.3c0.9-0.8,1.9-1.6,2.8-2.4
	c0.8-0.7,5.7-0.7,0.4-2.3c-0.2-0.1-0.4-1-0.2-1.2c2.7-3.2,5.3-6.4,8.3-9.3c0.7-0.7,2.6-0.1,3.9-0.1c0.9,0,1.9,0.2,2.8,0.2
	c-0.1-1.4,0.2-2.9-0.4-4c-0.3-0.6-2.4-1.2-2.9-0.8c-4.7,3.4-9.2,7.1-13.9,10.5c-1.6,1.2-3.6,2.3-5.5,2.5c-3.7,0.5-4.9,2.2-3.4,5.5
	c0.3,0.7,0.2,2.2-0.2,2.5c-3.4,2.3-7,4.3-10.4,6.6c-3.5,2.3-6.8,5-10.4,7.3c-1.7,1.1-4,1.4-5.9,2.4c-4.4,2.4-8.8,4.9-13.1,7.4
	c-2.7,1.5-6.3,1.8-9.7,0.8c-0.4-0.1-1,0.1-1.2,0.4c-4.4,5.3-11.2,5-16.8,7.4c-0.4,0.2-1.1-0.3-1.7-0.4c0.2-0.6,0.4-1.2,0.7-1.7
	c0.7-0.7,1.6-1.8,2.3-1.7c6.2,0.6,10.5-2.9,14.9-6.4c0.4-0.3,0.9-0.5,1.3-0.6c6.7-2,18.4-7.6,23.2-12c2.5-2.3,4.4-5.4,6.5-8.2
	c0.5-0.6,0.6-1.6,1.1-2.1c1.3-1.4,2.7-2.6,4-3.9c-1.7,0.4-3.4,1.1-5.1,1c-0.7,0-1.3-1.8-1.9-2.9c-0.7,1.4-1.5,2.8-2.2,4.3
	c-0.5-0.4-1.2-0.6-1.3-1.1c-1.3-4.1-3.3-6.6-7.9-3.6c-0.4,0.2-1.1-0.1-1.7-0.2c0.9-2.5,2-5,2.8-7.5c0.9-2.9,1.8-5.8,2.5-8.7
	c0.1-0.5-0.3-1-0.5-1.6c-0.4,0.5-1.1,0.9-1.1,1.4c-0.2,3.9-3.4,3.3-5.5,3.2c-1,0-2.1-2.2-2.9-3.5c-0.3-0.5-0.4-1.3-0.4-1.9
	c0.2-1.7-0.1-3.9,0.9-5c0.7-0.8,3.1,0,4.7,0.2c0.7,0.1,1.3,0.3,2,0.5c-0.4-0.6-0.7-1.6-1.3-1.8c-2.7-0.9-4.7-2.1-5.3-5.4
	c-0.6-2.9-0.2-4.6,2.4-6c3.4-1.8,4.3-7.1,9.4-6.5c0.3-8.9,6.6-3.8,10.4-4.6c1.1-0.2,2-1.1,3.1-1.4c1.7-0.5,3.4-0.8,5.1-0.9
	c3.1-0.1,5.6-0.6,6.9-4.1c1.1-3,0.3-7.3,4.5-8.8c0.3-0.1,0.2-1.2,0.3-1.8c-0.6,0-1.2-0.2-1.7-0.1c-1.1,0.2-2.3,0.3-3.3,0.8
	c-3.1,1.6-6.1,3.7-9.4,0.2c-0.3-0.3-0.9-0.3-1.4-0.3c-8.5-1.1-8.5-1.1-6.9-9.6c0.1-0.4,0.2-1,0.4-1.2c1.3-0.8,1.4-2.2,0.4-3.4
	c-1.5-1.7-2.9-3.1,0.8-4.4c3.7-1.2,6.7-3.7,11.2-2.6c2,0.5,4.6-2.2,7.1-2.8c1.9-0.5,3.8,0.1,2.2,3c-0.6,1.1-1,3.4-0.9,3.5
	c2.5,0.9,5.2,1.6,7.8,2.4c0.4-2.3,5.6,1.5,4.1-3.3c1.1,0.5,2.2,1.2,3.4,1.4c1,0.1,2.1-0.4,3.2-0.7c-0.8-0.7-1.4-1.7-2.4-2.1
	c-1-0.5-2.3-0.3-3.4-0.7c-1.7-0.6-1.7-2.6-0.5-3.9c0.3-0.4-0.5-2.7-0.9-2.7c-5-0.5-2.8-2.9-2.3-5.8c0.5-3.6-0.2-7.7-1.6-11
	c-2-4.8,2-6.4,3.9-8.8c0.7-0.9,3.7-0.5,5.4,0.1c4.8,1.6,8.6-0.6,11.8-3.3c6-5,12.1-9.5,20.5-8.8c0.7,0.1,2.1-0.2,2.2-0.6
	c1.8-6,5.8-3.3,9.5-2.7c1.5,0.3,3.2-0.2,4.7-0.7c1.2-0.4,2.3-1.7,3.5-1.7c1.3,0,2.5,1,3.8,1.6c-0.8,0.9-1.5,2.1-2.6,2.7
	c-0.8,0.5-2,0.4-3,0.6c0.4,0.7,0.8,1.9,1.2,1.9c1.1-0.1,2.2-0.5,3.2-1c1-0.5,1.9-1.2,2.9-1.8c-0.1,0.9-0.5,1.8-0.3,2.6
	c0.2,0.6,1.1,0.9,1.7,1.4c1.8,1.3,7.4-0.8,4.1,5.1c-0.6,1,0.7,3.8,1.9,5c0.8,0.8,2.9,0.1,4.4,0.3c1.2,0.2,2.9,0.4,3.3,1.2
	c2.5,4.5,11.8,10.9,16.5,11.5c1.5,0.2,2.9,1.4,4.1,2.5c1.3,1.2,1.9,3.2,3.3,4.1c4.6,2.8,8.2,6.1,9.7,11.7c0.7,2.5,3.6,4.5,5.6,6.6
	c0.1,0.1,0.7-0.1,1-0.2c9.3-3,18.6-6.1,28-8.9c1.1-0.3,2.4,0.4,3.7,0.6c-0.9,0.8-1.7,2-2.7,2.3c-4.8,1.6-9.6,3-14.4,4.6
	c-0.5,0.2-0.8,1-1.2,1.5c0.6,0,1.3,0.2,1.9,0.1c4.6-1.5,9.1-3.1,13.7-4.4c2.8-0.8,5.7-1.1,8.5-2c0.9-0.3,1.5-1.6,2.1-2.6
	c0.6-1,1.1-2.2,1.7-3.3c0.2,1.3,0.5,2.6,0.4,3.9c-0.3,3.5-1,6.9-1,10.3c0,1.2,1.3,2.5,2,3.7c0.4-0.8,0.6-1.8,1.2-2.4
	c0.6-0.7,1.7-0.9,2.4-1.5c1.2-1,2.2-2.2,3.3-3.3c-0.3,1.8-0.5,3.7-0.9,5.5c-0.2,1-0.7,1.9-1.1,2.9c1.2-0.2,2.7,0.1,3.7-0.6
	c5.3-3.6,6.4-2.4,9.9,2.9c3.4,5.2,7.9,10.4,15.5,10.9c1.5,0.1,3.3,3.3,4,5.4c0.8,2.6-1,3-3.6,2.9c-1.6-0.1-3.3,1.6-4.9,2.5
	c1.1,1.1,2,2.9,3.3,3.2c4.4,1,9.3,3,13.3,1.9c5.3-1.5,5.3,1.7,6.1,4.5c0.6,2.2,0.5,4.7,0.9,7c0.1,0.8,0.5,1.5,0.8,2.3
	c1-0.8,2.5-1.5,3-2.5c0.6-1.4,0.4-3.2,0.6-4.9c0.2-3.4,2-5.1,5.5-5.8c2.5-0.5,4.8-1.7,7.2-2.7c0.4-0.2,0.6-1,0.9-1.5
	c-0.7-0.2-1.4-0.6-2-0.5c-2.2,0.4-4.4,1.1-6.6,1.5c-0.8,0.2-1.6,0-2.4-0.1c0.1-1,0.1-2.8,0.4-2.9c3.6-0.6,7.3-1.1,11-1.3
	c0.4,0,1.4,2.2,1.4,3.3c-0.2,3.9-0.7,7.6,4.7,8.3c0.7,0.1,1.2,1.4,1.8,2.1c2,2.6,4.1,4.8,7.9,2.8c0.8-0.4,2.2-0.6,2.8-0.1
	c4.7,3.7,6.5-0.3,8.7-3.1c1.7-2.2,3.9-2.5,5.4-0.6c0.8,1.1,2.2,1.7,3,2.8c0.3,0.5,0,2.2-0.5,2.4c-4.9,2.8-1.7,6.4-1.2,9.7
	c0.5-0.1,1.3-0.1,1.3-0.3c0.4-1.2,0.6-2.5,0.8-3.8c0.4-3,0.4-5.6,4.9-5.8c2.4-0.1,4.8-3.2,6.9-5.2c1.1-1,0.3-1.9-1.4-2.2
	c-0.3-0.1-0.6-0.9-0.8-1.5c2.4,0.9,1.1-5.4,4.7-2.5c0,0,1.1-1,1-1.2c-0.3-0.6-0.9-1-1.4-1.5c-2.2-2.6-4.4-5.2-6.6-7.9
	c-0.3-0.4-0.4-1.7-0.2-1.9c4-2.7,2.7-8.2,5.9-11.1c0.8-0.8,2.5-0.6,3.7-1c0.7-0.2,1.2-0.8,1.8-1.2c-3.2-4.4,2.5-3.2,3.3-5.1
	c1.1,1.7,2.9,3.3,3.2,5.1c0.8,5.5,0.9,11.1,1.3,16.7c0,0.4-0.3,0.8-0.5,1.2c-3.5-2.3-2.4,2.5-4.3,2.9c-0.7,0.1-1.3,1.3-1.9,2
	c1.1,0.7,2.1,1.6,3.2,2c2.3,0.8,2,0.6,1.4,2.8c-0.7,2.9-0.9,5.9-1.3,8.9c0,0.3,0.1,0.6,0.2,0.9c0.5-0.2,1.2-0.3,1.5-0.7
	c1.5-2,2.9-4,4.2-6c1.4-2.3,2.3-1.8,2.9,0.5c0.8,2.9,1.8,5.1-0.8,8.4c-1.7,2.1-0.1,7.1,0.1,10.8c1.2-0.6,2.8-0.9,3.6-1.8
	c2.5-3.1,4.5-6.5,6.9-9.6c0.6-0.8,2.3-0.9,2.5-1.6c0.5-1.6,4.7-1.1,2.4-4.6c-0.7-1.1,0.9-4.3,2.3-5.5c0.8-0.7,3.3,0.8,5.1,0.9
	c4.6,0.2,4,5.5,7.3,7.1c1.3,0.6-1.9,7.3-3.6,7c-7.1-1.3-3,4.4-3.2,6.1c-0.2,2.1,2.2,4.6-0.4,6.6c-3.2,2.4-6.7,4.4-10.2,6.5
	c-0.1,0-1.4-1.8-1.9-2.8c-0.5-1.1-0.7-2.5-1.2-3.6c-0.1-0.3-0.9-0.2-1.3-0.3c0.1,0.4,0.1,0.9,0.3,1.2c0.2,0.4,0.8,0.8,0.8,1.2
	c0.2,1.6,0.3,3.3,0.4,4.9c-1.7-0.7-3.3-1.6-5-2.2c-1.5-0.6-3.1-1-4.6-1.5c0.1,1,0.6,2.2,0.3,3c-0.5,1.3-1.4,2.6-2.4,3.6
	c-4.9,4.9-6.1,7.2-11.4-0.7c-0.5-0.8-1.6-1.1-2.5-1.6c0.1,0.9-0.3,2.3,0.2,2.7c2,1.8,4,3.6,6.4,4.8c2,1,3.1,1.2,0.8,3.1
	c-2.2,1.8-4.2,3.8-6.1,5.9c-1.9,2-3.8,2.2-6.1,0.7c-0.6-0.4-2.6-0.3-2.7,0c-1.4,4.7-3.7,4.7-7,1.7c-0.5-0.5-1.7-0.3-2.5-0.4
	c0.6,0.5,1.5,0.8,1.7,1.4c0.6,2,1,4,1.5,6.1c-2.2-0.4-4.4-0.7-6.6-1.1c-0.6-0.1-1.1-0.7-1.6-1.1c0.2,0.6,0.2,1.3,0.6,1.8
	c2.5,4-1.4,5.1-3.4,6.7c-7.5,5.9-13.6,12.5-16.3,21.9c-0.5,1.7-1.2,3.4-1.2,5c0,1.4-0.7,5,2.9,2.1c0.4-0.3,1.7,0.1,2.2,0.5
	c1.4,1.5,0.2,11.4-1.4,13.3c-0.4,0.5-0.7,1-1.1,1.5c0.6-0.1,1.3-0.1,1.9-0.2c7.9-1.9,13.6,0.9,18.5,7.3c4.6,6.1,10.8,10.5,18.9,10.6
	c3.2,0,3.1,1,2.1,3.5c-1.5,4-2.7,8.2-3.8,12.4c-0.2,0.9,0.4,2.2,0.8,3.2c1.4,3.2,2.8,6.4,4.5,9.4c0.4,0.8,2.5,1.7,2.7,1.4
	c1.7-1.6,3.2-4.2,4,0.5c0.2-0.2,0.4-0.5,0.5-0.7c0.7-3.6,1.8-7.1,2.1-10.7c0.4-4.4,0-8.8,0.2-13.2c0-0.8,1.2-1.7,2-2.2
	c4.9-2.9,10.2-5.2,14.7-8.7c1.5-1.2,1.5-5.2,1-7.7c-0.7-3.9,0.2-8.5-3.8-11.4c-0.4-0.3-0.2-2.5,0.4-3.2c2.1-2.3,5.2-4.1,6.5-6.7
	c1.2-2.4,0.6-5.7,0.8-8.7c0.1-0.9-0.1-2,0.4-2.7c1.5-2.1,3.2-3.5,1.3-6.7c-1.6-2.8,2.6-6.5,6-5.2c4.2,1.6,8,4.2,13,2.5
	c0.7-0.2,3.1,2.4,3.6,4c1.4,5.1,4.5,8.7,9.2,10.1c2.7,0.7,1.7,0.6,1.1,2.4c-1.4,4-3.1,8.3-2.9,12.3c0.2,3,3.4,5.8,5.2,8.6
	c0,0.1,0.6-0.2,0.9-0.4c4.5-2.4,9.2-4.5,11.8-9.3c0.2-0.4-0.1-1.1,0.2-1.4c1.6-2.1,3.3-4.2,5-6.3c0.3,2.2,0.4,4.5,0.9,6.7
	c0.5,2.4,1.4,4.7,2.1,7c0.1,0.5,0.5,0.9,0.5,1.3c-0.3,2.4,0.1,4.3,0.7,5.7c1.2,2.6,2.3,5.2,3.3,7.9c0.1,0.3-0.6,1.2-1.1,1.4
	c-4.3,2.1-2,3.9,0,6.1c5.4,6.2,5.4,6.2,12.3,9.4c0.8,0.3,1.1,1.5,1.7,2.2c-0.7,0.3-1.4,0.5-2.1,0.8c-3.3,1.7-6.7,3.3-10,5.1
	c-0.6,0.4-0.8,1.6-1.2,2.4c0.7-0.3,1.4-0.5,2-0.9c1.4-0.9,2.8-1.8,4.1-2.7c4.4-2.8,11.1-0.6,12.9,4.2c1.9,5.2-2.9,12.4-8.8,12.7
	c-3.4,0.2-5.8,1-8,3.8c-3.4,4.2-8.6,3.5-13.3,3.2c-5.8-0.4-11.5-1.1-17.3-1.6c-1-0.1-2.4-0.2-3.1,0.4c-7.7,6.2-15.3,12.6-22.9,18.9
	c-0.6,0.5-1,1.2-1.5,1.8c0.8-0.3,1.8-0.5,2.5-1c1.9-1.6,3.4-3.9,5.5-5c5.4-2.7,11-5.2,16.8-7c2.7-0.9,6.2,0.4,6.2,3.8
	c0,1.2-3.5,2.5-5.6,3.6c-0.6,0.3-1.5,0.1-2.2,0.2c0.9,0.6,1.8,1.2,2.7,1.8c0.7,0.4,2.3,0.8,2.2,1c-1.7,8.6,0.9,11.8,9.7,12.3
	c0.7,0,1.6,0.2,2.2,0.6c0.6,0.4,1.1,1.1,1.6,1.7c-0.6,0.4-1.1,1.1-1.8,1.3c-3.4,1-7.1,1.6-10.3,3c-2.5,1.1-4.4,3.5-6.7,5
	c-0.9,0.6-3.2,0.7-3.5,0.2c-0.6-1.3-1.2-3.2-0.6-4.4c0.6-1.3,2.3-2.2,3.6-3.2c0.6-0.5,1.6-0.6,2.2-1.1c0.4-0.3,0.5-1.1,0.7-1.6
	c-0.5,0-0.9-0.2-1.4-0.1c-2.4,0.5-6.1,0.2-7,1.6c-4.1,6.2-12.2,2.7-16.5,7.5c-2.3,2.6-3.9,5.9-5.8,8.9c-0.1,0.1-0.1,0.4,0,0.5
	c1.1,1.2,2.2,2.5,3.4,3.7c-1.9,0.4-3.7,0.7-5.6,1.1c-1.9,0.4-3.8,1-5.6,1.4c-1.7,0.4-3.7,0.4-5.2,1.2c-2.1,1-3.6,2.1-3.9,5.3
	c-0.2,2.4-0.3,8.7-6.6,5.7c-0.2,0.5-0.7,1.2-0.5,1.5c2.6,3.9-1.5,6-2.4,8.9c-0.1,0.2-0.5,0.4-0.8,0.6c-0.1-0.4-0.4-0.7-0.4-1.1
	c-0.3-2.5-0.5-5.1-0.9-7.6c-0.1-0.4-0.5-0.8-0.8-1.1c-0.3,0.4-0.8,0.9-0.8,1.3c0.3,4.5,0.7,8.9,1,13.4c0.1,0.9-0.1,2.6-0.6,2.7
	c-4.2,1.5-2.3,2.1,0.3,2.9c0.1,0,0,1.4-0.4,1.7c-4,3.1-8,6.2-12.2,9.2c-4.3,3.1-8.8,5.9-13.1,8.9c-4.7,3.4-4.7,8.6-4.2,13.5
	c0.6,5,2.6,9.9,3,14.9c0.3,3.2-1.1,6.6-2,9.8c-0.1,0.3-3.2,0.3-3.4-0.2c-2.5-5.6-7.6-10.1-5.9-17.5c0.5-2.1-2.5-5.3-4.4-7.7
	c-0.4-0.5-2.6,0.3-3.9,0.5c-1,0.1-2.5,0.6-3,0.1c-5.7-5.2-12.3-3.7-18.8-2.8c-1.2,0.2-3.4,0.4-2,3.4c0.9,2.1-6.1,4.7-8,2.6
	c-4-4.6-9-1.9-13.6-2.3c-2.4-0.2-4.5,0.5-5.8,3.1c-0.5,1-2.2,1.9-3.3,1.9c-6.2-0.1-7.6,4.4-8.6,9c-1.5,7.6-2.6,15.3-3.9,23
	c-1.7,10.2,5.1,20.7,13.4,25.2c1.3,0.7,3.4-0.4,5.2-0.5c2.7-0.1,5.4-0.1,8.2-0.2c0.7,0,1.8-0.1,2-0.5c1.8-3.4,3.7-6.7,5.1-10.3
	c1.1-2.8,2.2-4.9,5.8-4.9c3.2,0,6.4-1.1,9.7-1.4c3.8-0.4,4.3,1.8,2.1,4.1c-2.9,3.1-4.1,6.5-3.9,10.7c0,1.1,0,4.3-2.7,1.5
	c-0.4,0.4-0.9,0.8-1.1,1.3c-1,3.6,1.5,8.1-2.9,10.8c0.4,0.6,0.8,1.7,1.2,1.7c2.5,0.2,4.9,0.1,7.4,0.2c3.9,0.1,7.8-0.2,11.5,0.3
	c2.3,0.3,5.4,1.5,6.2,3.2c0.9,1.8-0.1,4.8-1,7c-4,10.1-3.2,15.7,3.8,21.5c2.6,2.1,5.6,3.4,9.3,1.4c7.3-3.8,11-2.8,16.3,3.8
	c0.4,0.6,1,1,1.5,1.5c0.1-0.6,0.1-1.3,0.4-1.8c2.9-4.4,5-10.8,9.1-12.6c5.1-2.1,10.4-3.7,15.1-6.8c0.7-0.5,2.1,0,3.1,0
	c-0.5,1-1.1,2-1.5,3.1c-0.4,1-0.7,2.2-1,3.2c1,0,2,0,3-0.1c3.8-0.5,7.7-1.1,11.5-1.4c0.8-0.1,2.4,0.7,2.4,1.2
	c0.3,4.9,3.5,2.9,6.1,2.9c2.2,0,4.3,0.9,6.5,1c1.7,0.1,3.4,0,5.1-0.4c2.9-0.6,5.7-1.5,8.6-2.1c0.7-0.2,1.6,0.2,2.4,0.4
	c-0.6,0.4-1.4,0.6-1.8,1.2c-0.3,0.4-0.3,1.4,0,1.8c0.3,0.5,1.2,0.5,1.7,0.8c1.5,0.7,3,1.5,4.5,2c2.3,0.8-0.1,6.1,5.1,4.8
	c1.9-0.5,5.6,2.9,7.2,5.3c1.6,2.4,3.2,4.3,5.9,5.2c2.8,1,5.7,2.5,8.6,2.4c7.7-0.2,14.5,1.9,19.5,7.7c3.7,4.3,6.2,9.6,9,14.6
	c0.4,0.8-0.6,2.8-1.5,3.9c-1.3,1.7-3.3,2.8-4.6,4.5c-0.7,0.9-0.6,2.5-0.9,3.8c1.3-0.4,3.4-0.3,3.8-1.2c2.4-4.4,6.3-0.8,9.2-2
	c0.2,1.3,0.4,2.7,0.5,4c0,0.6-0.2,1.2-0.3,1.8c0.6-0.2,1.4-0.2,1.6-0.6c2.1-3.8,5.2-2.6,8.2-1.6c3,1,6,2.1,8.9,3.1
	c0.2,0.1,0.4,0.2,0.4,0.3c1.3,3.5,1.9,6.5,7.4,3.8c2.8-1.4,7.5,1.4,11.4,1.5c5.3,0.1,9.2,2.5,13.2,5.8c3,2.5,6.8,4.2,10.5,5.7
	c2.6,1,6.9,6.9,6,11.3c-0.9,4.3-3,8.6-5.2,12.4c-2.5,4.2-5.6,8-8.7,11.8c-0.8,1-2.9,0.9-3.5,1.9c-1.1,1.8-2.1,4.1-2.2,6.2
	c-0.3,5.9,0.7,12-0.5,17.7c-1.4,6-1.7,12.5-5.8,17.8c-1.5,2-2,4.7-3.4,6.8c-2.7,4.3-7.2,3.3-11.3,3.3c-2.2,0-3.9-0.3-5,2.4
	c-0.5,1.3-3,1.6-4.3,2.7c-4.3,3.8-8.8,7.5-12.6,11.8c-1.1,1.2-0.2,4.2-0.2,6.4c0,1.7,0.5,3.7-0.2,5.1c-2.3,5.1-5,10.1-7.6,15.1
	c-0.3,0.5-0.9,0.8-1.3,1.3c0-0.6,0.2-1.2,0.1-1.8c-0.2-1.1-0.5-2.2-0.8-3.3c-0.5,0.8-1,1.5-1.3,2.4c-1.4,3.4-5.6,5.6-4.6,10.3
	c0.1,0.7-2.8,2-4.2,3.1c-0.3,0.2-0.3,0.9-0.4,1.3c0.4-0.2,0.8-0.5,1.3-0.7c0.7-0.3,1.4-0.4,2.1-0.7c-0.1,0.8-0.1,1.6-0.5,2.2
	c-1.4,2.2-2.7,4.6-4.5,6.4c-1.4,1.4-3.8,3-5.4,2.8c-5-0.8-9.9-2.5-14.8-3.8c-0.4-0.1-0.7-0.3-1.1-0.5c-0.1,0.5-0.3,1.2-0.1,1.4
	c1,1,2.1,2.1,3.3,2.8c2.4,1.4,5,2.5,2.9,6c-0.3,0.5,0.2,1.6,0.6,2.2c0.9,1.4,3.1,3.2,2.8,3.9c-1.6,3.4-1.6,7.9-6.3,9.3
	c-5.1,1.6-9.9,3.9-15.5,2c-0.5-0.2-2,0.6-2,1c-0.1,2.7,0.3,5.3,0.2,8c0,1.6-0.1,4-1,4.6c-1.4,0.9-3.6,0.6-5.5,0.6
	c-0.7,0-1.4-1-2.1-1.2c-1.2-0.2-2.5-0.1-3.7-0.2c0.2,1.1,0.4,2.1,0.7,3.2c0.7,3.1,0.2,8.1,5.9,4.2c0.1-0.1,1.4,0.8,1.4,1.4
	c0.1,1.2-0.2,2.4-0.3,3.6c-0.7-0.2-1.3-0.3-2-0.5c-1-0.2-2-0.5-3-0.7c0.5,0.6,1,1.3,1.4,1.9c0.1,0.2,0.3,0.7,0.2,0.7
	c-4.3,2.3-2.2,6.1-2.4,9.5c-0.1,1.5-0.6,3.6-3.5,4.4c-2.1,0.5-5.3,4.6-4.8,5.6c1.3,2.7,3.9,5.2,6.6,6.7c3,1.7,4.7,4.6,2.6,7.4
	c-2.3,3.2-6.4,5.4-5.1,10.4c0.1,0.4-0.5,1.2-1,1.7c-4,4.5-4.4,9.1-0.9,13.4c0.7,0.9,1.4,1.9,2.2,2.8c-1.1-0.1-2.2-0.2-3.3-0.3
	c-0.1,0-0.4,0.1-0.4,0.2C421.4,912.3,421.4,912.6,421.5,912.9L421.5,912.9z M335.5,363.1c-2.6,1.7-5.2,3.3-7.7,5.1
	c-2,1.4-1.8,3.2-1.8,5.6c0,3.4-2.6,6.7-3.2,10.2c-0.4,2.4,0.7,5.1,1.2,7.7c2.1-2.3,5.7-4.4,6-6.9c0.9-6.5,1.3-12.4,8.2-16.2
	c2.1-1.2,2.9-1.5,4.7-0.5c4.1,2.4,4.3,5,0.9,9.4c-0.5,0.6-0.7,1.5-1,2.3c0.7-0.2,1.5-0.2,2.1-0.6c3.7-3.1,3.5-0.4,3.5,2.3
	c0,0.9,0.4,1.8,0.5,2.6c1-0.5,2.5-0.9,2.9-1.7c1.3-3.1,2.3-6.4,3.4-9.6c0.2-0.5,0.2-1.1,0.3-1.7c0.4,0.5,0.6,1.1,1.1,1.5
	c1.3,1,2.6,1.9,3.9,2.8c0.6-0.9,2-2.2,1.7-2.6c-1.7-2.6-3.2-5.7-5.6-7.3C350.1,361.3,343,364.4,335.5,363.1z M337.4,359.5
	c1.3,0.4,2.6,0.4,3.2,1c2.1,2.3,2.5,0.2,2.7-1.1c0.6-4.2-4.7-12.5-8.7-13.9c-1.6-0.6-3.8-1.6-5-1c-6.2,3.3-12.1,7-18.1,10.6
	c-1.1,0.7-1.9,1.7-2.9,2.6c1.1-0.2,2.3-0.6,3.4-0.6c0.6,0,1.3,0.6,2,0.9c1.1,0.4,2.4,1.1,3.3,0.8c2.6-0.9,5.1-2.3,7.6-3.4
	c1-0.5,2.1-0.8,3.2-1.2c0.1,0,0.3,0.2,0.4,0.2c-0.7,0.6-1.3,1.3-1.9,2c-0.1,0.1,0.7,0.7,1,1.1C330.4,361.1,333.8,361.3,337.4,359.5z
	 M229.1,173.8c0-0.2-0.1-0.4-0.1-0.5c-0.3,0-0.7-0.1-1,0c-1.1,0.6-2.1,1.3-3.1,1.9c1,0.1,2,0.1,3,0.2c3.2,0.4,6.4,0.7,9.5,1.4
	c0.8,0.2,1.4,1.6,2,2.5c-0.9,0.1-1.9,0.1-2.8,0.1c-1,0-2.4-0.5-2.8-0.1c-2,1.9-3.6,4.2-5.4,6.2c-0.6,0.6-1.4,1-2.1,1.5
	c0.8,0.6,1.6,1.7,2.4,1.6c1.6-0.1,3.3-0.6,4.8-1.3c1.5-0.7,2.6-1.9,4.1-2.7c0.6-0.3,1.5,0.2,2.2,0.3c-0.3,0.7-0.4,1.7-1,2.1
	c-1.4,1.1-3.1,1.9-4.6,2.9c-0.4,0.2-0.6,0.7-0.9,1.1c0.3,0.2,0.6,0.5,0.8,0.4c3-1.4,7.2-2.1,8.8-4.5c2.2-3.4,1.3-3.8,5.4-1.7
	c0.8,0.4,2.6,0,3.4-0.7c1.2-0.9,2-2.4,2.9-3.7c0.8-1.2,1.5-2.5,2.3-3.7c-1.3,0.3-2.6,1-3.8,0.8c-2.6-0.4-5.1-1.2-7.6-1.8
	c1.4-0.8,2.8-1.6,4.2-2.4c0.4-0.2,0.9-0.3,1.3-0.6c0.5-0.3,1-0.7,1.5-1.1c-0.6-0.5-1.1-1.3-1.8-1.4c-1.1-0.2-2.2,0-3.3,0.2
	C241.4,171.7,235.3,172.8,229.1,173.8z M252.1,230.1c0.1,0.3,0.3,0.6,0.4,0.9c0.9-0.1,1.9,0,2.6-0.4c5.3-2.8,10.5-5.7,15.7-8.5
	c0.6-0.3,1.3-0.6,2-0.7c0.5-0.1,1,0.2,1.6,0.3c-0.3-0.5-0.5-1.2-0.9-1.5c-3.6-2.8-6.6-1.9-11.8,2.3c-2.1,1.7-6.5,3.5-7.9,2.5
	c-3.1-2.2-5.1-6.1-7.4-9.4c-0.1-0.1,1-1,1.5-1.5c0.3-0.3,0.6-0.7,1-1c-0.5,0.1-1,0.1-1.5,0.2c-5,1.2-1.4,4.2-0.9,6
	c1.4,5.1,1.7,5.1-2.8,6.7c-0.3,0.1-0.5,0.4-0.7,0.6c-1.8,3-3.7,5.4-7.6,3c-0.4-0.2-1.2,0.3-1.8,0.5c0.2,0.3,0.3,0.6,0.5,0.8
	c3.2,4.4,11.1,5.1,15.2,1.4C250,231.5,251.1,230.8,252.1,230.1z M296.1,313.8c0-2.7,0.4-4.6-0.1-6.3c-0.3-1.2-1.7-2.2-2.8-3
	c-0.4-0.3-1.5,0-2,0.4c-1.8,1.7-1.2,12.4,1,13.4c3.5,1.6,3.5,4,2.5,7c-0.5,1.5-0.8,3.1-1.2,4.7c0.3,0.1,0.7,0.3,0.8,0.2
	c1-1.6,2.1-3.2,2.9-5c0.3-0.8,0-2-0.1-2.9C296.7,319.1,296.3,316,296.1,313.8z"/>
        <path d="M519.5,205.6c2.1,0.3,4.2,0.6,6.3,0.8c-0.1-0.9-0.2-1.8-0.5-2.7c-0.1-0.4-0.7-1-1.1-1c-0.9,0-1.9,0.5-2.8,0.4
	c-0.3,0-0.8-1.5-0.8-1.5c0.8-0.6,1.7-1.4,2.5-1.3c2.5,0.3,4.4,0.2,4.1-3.1c0-0.1,1.3-0.4,1.9-0.6c0.6-0.2,1.2-0.4,1.8-0.6
	c-3-2.9,0.3-4.4,1.4-6.5c0.1-0.3-1-1.5-1.7-1.9c-3.6-2.3-7.3-4.5-10.9-6.9c-0.6-0.4-0.5-1.7-0.7-2.6c0.9-0.2,2.1-0.8,2.7-0.4
	c2.5,1.3,4.9,2.9,7.3,4.4c0.6,0.4,1.3,0.6,1.9,0.9c0.1-0.8,0.4-1.7,0.2-2.4c-0.6-2.7-1.4-5.4-2.2-8c-0.1-0.4-0.8-0.8-0.7-1
	c0.4-0.7,0.9-1.4,1.4-2.1c-2.1-0.7-4.3-3.1-6,0.8c-0.3,0.7-3.3,1.2-4.1,0.6c-3.9-3-0.5-3.7,1.8-4.6c0.8-0.4,1.5-1,2.3-1.5
	c-0.7,0.2-1.4,0.7-2.2,0.7c-0.5,0-1.4-0.7-1.3-0.9c0.5-1.7,0.6-4.3,1.8-4.9c3.1-1.6,3.6-3.2,2.2-6.3c-0.8-1.7-0.4-3.9-0.3-5.9
	c0.2-3.6,1-7.3,0.6-10.9c-0.3-2.6-2-5-3.1-7.5c-0.4-0.8-1.1-1.7-1-2.5c0.3-2,2-4.9,1.2-5.8c-2.4-2.8-5.4-5.5-8.7-7.2
	c-2.9-1.5-6.6-2.6-9.6-2c-2.7,0.5-4.2-0.9-6.3-1.2c-0.7-0.1-1.6-0.5-2-0.2c-0.8,0.6-1.4,1.5-2.1,2.3c-1.9-2.2-3.8-4.5-5.6-6.8
	c-0.1-0.1,0.7-1.1,1.2-1.2c4.5-1,3.2-1.7,0.2-3.3c-1.5-0.9-2.1-3.4-3.2-5.2c2-0.5,4.1-1.3,6.1-1.4c3.4-0.2,6.8,0.1,10.1-0.1
	c0.6,0,1.3-1.1,1.5-1.8c0.1-0.4-0.5-1.4-0.9-1.5c-2.2-0.5-4.4-1-6.6-1.2c-1.1-0.1-2.3,0.3-3.4,0.5c0.1-1.4,0.3-2.8,0.3-4.2
	c0-0.4-0.3-1-0.5-1c-2-0.4-6.5-4.6-5.7-5.5c1.9-2.1,4.1-4.5,6.7-5.4c5-1.7,10.4-2.6,15.6-3.7c0.6-0.1,1.5-0.4,2-0.2
	c6.3,3.4,7.6-2.4,10.3-5.5c0.7-0.8,1.6-1.3,2.1-2.2c0.7-1.1,1.2-2.4,1.7-3.7c-1,0-2,0.1-3-0.1c-1.7-0.4-3.3-1-5-1.5
	c0.7-1.6,0.9-3.8,2.1-4.6c4.7-3.3,9.8-6.1,14.7-9c0.3-0.2,1.2-0.3,1.3-0.1c1.8,2.4,3.5,3.2,5-0.3c0.7-1.7,1.5-3.4,2.4-4.9
	c1.1-1.8,2.5-3.4,3.7-5.1c0.8,1.6,1.7,3.2,2.5,4.8c0.4,0.9,0.6,1.9,1.1,2.7c0.2,0.3,0.8,0.5,1.2,0.7c0.1-0.5,0.2-0.9,0.2-1.4
	c0-0.2-0.1-0.3-0.1-0.5c-1.7-9,0.7-10.8,10.2-8.2c1.1,0.3,2.6-1.4,4-2c1.2-0.5,2.6-0.7,3.9-1c0.2,1,0.8,2.2,0.5,3.1
	c-1.4,3.8-3.1,7.6-4.6,11.4c-0.2,0.6-0.3,1.2-0.5,1.8c0.6-0.3,1.2-0.6,1.7-1c0.7-0.7,1.2-1.6,1.7-2.5c1.7-3.1,3.3-5,4.8,0.2
	c0.2,0.7,1.2,1.2,1.9,1.8c-0.2-3.6,5.8,1.4,5-3.6c-0.4-2.5,0.2-5.2,0.5-7.8c0.1-0.9,0.7-1.7,1-2.5c1,0.5,2.6,0.7,2.9,1.5
	c1.2,2.8,2.8,5.8,2.8,8.7c0.1,5.1,0.8,6.3,6.1,6.9c1.3,0.1,2.5,1.2,3.7,1.8c-0.8-1.5-1.9-3-2.4-4.6c-1.1-4.5-2.1-9-2.8-13.5
	c-0.1-0.4,1.8-1.5,2.7-1.5c1.2,0,3.3,1.3,3.5,1c1.4-1.9,2.5-4.1,3.4-6.3c0.3-0.8-0.2-2.7-0.1-2.7c2.4-0.5,4.8-0.9,7.2-1
	c0.8,0,1.6,0.9,2.4,1.4c3.1,1.7,7.6,0.3,9.1-2.8c0.9-1.8,0.7-5.9,4.5-2.5c7.4-4.9,13.4,1.7,20.2,2.5c0.5,0.1,1.1,0,1.5,0.3
	c2.1,1.5,4.2,3,6.2,4.5c-2.6,0.3-5.2,0.8-7.8,0.9c-2.4,0.2-4.9,0.4-7.3,0c-1.6-0.3-4.5,2.5-4.8-1.6c0,0-0.9,0-1.4,0
	c0.2,4.3-3.1,2.7-5.3,3.1c-0.9,0.2-2,0.5-2.7,1.1c-0.7,0.6-0.9,1.7-1.4,2.5c0.9-0.2,1.8-0.4,2.6-0.6c7.3-1.5,14.4-4.4,22-1.3
	c1.6,0.7,3.9-0.3,5.8-0.2c1.2,0.1,2.4,0.7,3.6,1.1c-0.8,1.1-1.6,2.2-2.6,3.1c-0.6,0.5-1.5,0.7-2.3,1c1,0.4,2.3,1.4,2.9,1
	c4.7-2.8,7.7,0.4,11.1,2.7c3.4,2.3,2.3,3.8-0.4,5.4c-6,3.4-12.7,4.3-19,2.5c-7.7-2.3-13.4,2.3-19.9,4c-0.4,0.1-0.4,1.6-0.5,2.4
	c0.7-0.1,1.4,0.1,2-0.2c6.8-3.3,13.7-5.4,21.3-2.7c0.8,0.3,1.6,0.8,2.3,1.2c-0.7,0.9-1.2,1.9-2.1,2.5c-0.8,0.5-2,0.4-2.9,0.8
	c-0.5,0.2-0.7,0.9-1.1,1.4c0.5,0.2,1,0.7,1.5,0.7c2.1,0.1,4.3,0.3,6.4-0.2c1.3-0.3,3.1-1.5,3.3-2.6c0.6-3.8,3.2-2.8,5.2-2.3
	c0.5,0.1,0.9,3.3,0.2,4.4c-1.5,2.3-3.7,4.3-5.7,6.3c-3.7,3.5-7.6,6.8-11.3,10.3c-0.2,0.2-0.1,0.8-0.2,1.3c0.4-0.2,0.9-0.2,1.2-0.5
	c5-4.7,10.8-7.9,17.1-10.5c1-0.4,1.7-1.5,2.6-2.3c0.7-0.6,1-4.8,2.4-0.3c0,0.1,3.5-0.3,3.9-1.2c1.8-3.8,5.3-4.6,8.2-3.4
	c3.4,1.4,6.2,4.4,9.3,6.7c-2.2,2.1-4.4,4.2-6.7,6.2c-0.6,0.5-2.2,0.8-2.1,1.1c0.6,5.7-3.1,4.3-6.2,3.8c-0.5-0.1-1-0.4-1.5-0.3
	c-1.3,0.3-2.5,0.8-3.7,1.2c1.1,0.4,2.2,0.7,3.3,1.2c1.2,0.5,2.4,1,3.6,1.5c-1.2,1-2.2,2.7-3.5,3c-1.6,0.3-3.5-0.8-5.2-0.7
	c-1.8,0.2-3.7,1-5.3,1.9c-0.3,0.2,0.1,1.8,0.2,2.8c0.7-0.3,1.5-0.5,2.2-0.8c1.4-0.6,2.7-1.6,4.1-1.6c0.7,0,2.1,2.5,1.9,2.6
	c-6.1,6.2-7.9,14.2-9.4,22.4c-0.1,0.4,0.2,6.4-3.3,1.5c-0.1-0.2-1.2,0-1.2,0.1c-0.1,0.8-0.3,1.8,0.1,2.3c1.2,1.5,2.7,2.8,4,4.3
	c0.2,0.2-0.3,1.4-0.5,1.4c-0.9,0.1-1.8-0.1-2.7-0.2c1,1.2,1.9,2.7,3.1,3.6c0.8,0.6,3.1,0.6,3.1,0.9c-0.1,1.9-0.5,3.9-0.9,5.8
	c-1.5-0.5-3-1-4.5-1.5c-1.1-0.4-2.8-1.3-3.4-0.8c-1.8,1.5-3.2,3.4-4.7,5.2c1.5,1.1,3.1,2.1,4.6,3.1c0.6,0.4,1.4,0.6,2.1,0.9
	c-0.6,0.4-1.3,0.6-1.7,1.1c-0.3,0.4-0.4,1.5-0.3,1.5c4.3,1.7,1.8,5,1.8,7.7c0,0.4-1.5,1.2-1.6,1.2c-1.8-2.3-2.7-0.4-2.8,0.9
	c-0.1,1.5,0.6,3.1,1.4,4.4c0.7,1.1,2.1,1.9,3.2,2.8c-1.2,0.5-2.7,0.6-3.5,1.5c-2.2,2.5-4,2.5-5.9-0.3c-0.1-0.1-1.4,0.4-1.3,0.5
	c0,0.9,0,2.2,0.6,2.7c0.8,0.7,2,1,3.1,1c3.8-0.1,2.3,2.6,1.4,3.4c-2.1,1.7-4.8,3.4-7.3,3.6c-1.5,0.1-3.3-2.7-4.8-4.3
	c-0.4-0.5-0.3-1.4-0.5-2.1c-0.5,0.5-1.1,0.9-1.4,1.5c-1.7,2.7-3.4,5.5-5.1,8.2c3.2,0.7,0.7,4.4,3.4,5.9c2.9,1.6,6.1,4.2,7.2,7.1
	c1.5,3.8,1.1,8.3,1.4,12.5c0,0.3-0.5,0.6-0.7,1c-1.8-2.8-3.6-1.8-5.5-0.2c-1.5-2.7-2.8-5.5-4.7-7.9c-1.5-1.9-3.6-3.2-5.5-4.6
	c-0.9-0.6-2-0.8-2.9-1.4c-0.8-0.5-1.5-1.3-2.2-2c0.6,1.2,1,2.6,1.7,3.7c0.3,0.4,1.2,0.5,1.8,0.8c1.4,0.7,2.8,1.5,4.2,2.3
	c-1.5,1.6-2.8,3.4-4.4,4.9c-1.3,1.2-2.8,2-4.3,3c2.3,1,4.6,2.2,7,2.8c3.7,0.9,7.5,1.3,11.3,1.9c-0.1,0.4-0.1,1-0.4,1.3
	c-8,6.9-17,12.3-27.4,14.1c-3.4,0.6-9.3,4.5-11.2-3c-0.1-0.3-0.5-0.5-0.7-0.7c0,0.4-0.2,0.9,0,1.2c2,3.5,0.4,5.2-2.5,7.3
	c-2.5,1.7-4,4.7-6,7.1c-3.3,4-7.4,6.7-12.8,6.9c-0.8,0-1.9-0.8-2.3-1.5c-0.4-0.6,0-1.7,0-2.6c-0.6,0.8-1.2,1.5-1.7,2.3
	c-1.6,2.6-2.8,5.7-6.9,4.1c-0.3-0.1-1.4,0.7-1.6,1.3c-0.6,1.6-0.7,3.5-3.2,1.9c-0.1,0-1.4,1.2-1.4,1.9c0,0.8,0.6,1.7,1,2.6
	c-4.2,0.7-2,3.1-1.9,5.5c0.1,1.5-3,3.2-3,4.8c-0.1,2-6.6-0.2-2.2,3.8c-0.3,0.3-0.8,0.9-1,0.8c-6.2-2.9-1.7,1.8-2.2,3
	c-1.4,3.8-3.1,7.5-4.7,11.2c-0.7,1.7-1.4,3.4-2.3,5c-0.4,0.7-1.6,1.7-1.9,1.6c-2.9-1.8-8-1.4-7.2-7c-2.1-0.2-4.3-0.4-6.4-0.5
	c-1,0-4.1,3.7-2-1.2c1.2-2.8-5.1,0.3-3-3.7c0.4-0.8-2.8-9.6-3.3-10.9c-0.9-2.6-2.4-5.1-3.4-7.7c-0.7-1.7-1.7-3.8,1.8-4.1
	c0.7,0,1.2-1.6,1.8-2.5c-1-0.2-2.5-1-3-0.6c-2.2,1.6-2.3,0.7-2.3-1.3c0-4.8,0.6-9.7-2.7-13.9c-0.2-0.3,1.5-2.2,2.5-3.2
	c0.8-0.9,1.7-1.6,2.6-2.4c-0.9-0.2-1.8-0.4-2.5-0.7c-0.5-0.2-0.8-0.9-1.1-1.3c0.8-0.4,1.6-0.9,2.5-1.1c1.1-0.3,2.4-0.3,3.5-0.4
	c-1.1,0-2.2,0.1-3.2,0c-0.8-0.1-1.6-0.3-2.4-0.5c0.5-0.6,0.9-1.3,1.4-1.9c1.4-1.6,2.8-3.3,4.2-4.9
	C519.6,205.4,519.5,205.6,519.5,205.6z"/>
        <path d="M1345.8,791.4c-3.9,1-7.1,1.9-10.2,2.7c-1.8,0.5-3.7,1.7-5.2,1.3c-5.8-1.4-9.9,2.9-14.9,3.9c-0.4,0.1-1,0.4-1.2,0.8
	c-2.9,6.4-8.1,5.5-13.6,4.4c-6.1-1.2-10.9,2.7-15.9,5.2c-5.6,2.8-12.1,1.4-14.9-4c-0.5-1-0.1-3.2,0.7-3.9c4.6-3.8,4.7-8.6,3.9-13.8
	c-0.9-6.7-2.1-13.4-2.5-20.1c-0.2-3.2-3.4-7.3,1.5-10c0.2-0.1,0.4-1.1,0.1-1.4c-5-6.7,0.4-13.2,0.3-19.8c0-1.7,0.5-1.8,2.4-1.2
	c0.3,0.1,1,0.1,1.1-0.1c4.7-7.4,13-7.5,20.2-10c3.5-1.2,7.3-1.8,10.9-2.7c3.7-0.9,8.8-7.4,9.5-10.9c0.4-2.1,2.2-4,3.3-6
	c0.9,1.2,1.8,2.4,2.8,3.5c0.3,0.4,0.9,0.5,1.4,0.8c0.2-1.1,1-2.4,0.6-3.1c-1.2-2.2-1.2-3,1.7-2.4c0.7,0.1,2.1-1,2.3-1.8
	c0.5-2.3,4.4-7.1,6.7-8c1.4-0.6,2.6-1.8,4-2.3c3.9-1.3,6.5,0.5,6.9,4.6c0.1,0.6,0.1,1.2,0.1,1.8c0.4-0.4,0.9-0.9,1.3-1.3
	c0.1-0.1,0.2-0.2,0.3-0.4c1.3-3.5,6.9,3.7,6.1-2c-0.6-4.1,2.3-4.8,3.4-7.2c2-4.1,5-5.8,9.4-5.6c1.1,0.1,2.2-1,3.4-1.5
	c-0.7-0.8-1.3-1.6-2-2.4c-0.3-0.3-0.6-0.6-0.9-0.9c0.6-0.1,1.2-0.3,1.8-0.1c5.6,1.7,11.2,3.4,16.8,5.2c0.5,0.1,0.9,0.6,1.3,0.5
	c1.3-0.2,2.7-0.6,4-0.9c-1,1.9-1.5,4.5-3,5.7c-4.9,3.7-5,10.2,0.1,13.9c4.6,3.3,9.2,6.5,13.9,9.6c3,2,6.1,1.6,7.3-2
	c1.7-5.3,2.7-10.8,4.1-16.1c1.3-5.4,2.7-10.9,4.1-16.3c0.1-0.5,1-1.1,1.4-1c0.5,0.1,1.1,0.8,1.3,1.3c1.1,3.3,2.1,6.5,2.9,9.9
	c0.7,3-1.1,7.7,5.1,6.8c0.7-0.1,2.2,2.1,2.4,3.4c1.1,6.2,2.5,12.4,2.6,18.6c0.1,5.1,4.2,6.7,6.9,8.1c5.2,2.7,5.2,7.6,7,11.7
	c0.7,1.6-0.2,3.8,3,3.4c0.6-0.1,1.7,2.7,2.4,4.2c0.4,0.9-0.1,2.1,0.5,2.8c2.8,3.7,5.8,7.2,8.7,10.8c0.3,0.4,0.2,1.3,0.2,1.9
	c-0.2,5.3-0.1,10.7-0.7,16c-0.3,3.1-1.6,6.2-2.8,9.2c-2.3,5.9-4.8,11.8-7.4,17.6c-0.5,1.1-1.6,1.9-2.4,2.9c-2,2.4-4.2,4.6-5.9,7.1
	c-2.6,3.8-5.2,7.7-7.2,11.8c-1.9,3.9-3,8.3-4.9,12.2c-0.9,1.9-3.2,4.7-4.5,4.5c-6.9-1-10.4,4.8-15.7,6.8c-0.5,0.2-1,0.6-1.5,0.8
	c-0.9-2.3-4.1-3.5-2.9-6.8c0.1-0.3-0.5-1.3-0.9-1.4c-0.5-0.1-1.3,0.2-1.7,0.5c-0.9,1-1.5,2.3-2.6,3.1c-2.5,1.9-4.9,3.3-7.3-0.5
	c-0.7-1.1-2.7-1.6-4.3-2c-5-1.5-7.6-6.5-6.6-11.7c0.5-2.9-0.1-6-0.2-9c0-0.2-0.5-0.6-0.7-0.5c-8.1,3.7-0.5-2.7-2.1-3.6
	c-0.7-0.4-0.4-2.7-0.5-4.2c-0.7,1.1-1.4,2.3-2.3,3.2c-1,0.9-2.2,1.6-3.4,2.2c-0.4,0.2-1.1-0.2-1.7-0.4c0.4-0.5,0.8-0.9,1.1-1.4
	c2.2-3.7,4.3-7.4,6.4-11.1c0.3-0.5,0-1.2-0.1-1.9c-0.6,0.3-1.3,0.4-1.8,0.8c-3.3,3.2-6.5,6.5-9.8,9.7c-0.5,0.5-1.2,0.9-1.9,1.3
	c-0.3-0.7-0.7-1.3-0.9-2.1c-1.1-4.4-2.1-8.9-3.2-13.3c-0.1-0.6-0.7-1.2-1.3-1.4C1356.5,795.4,1351,793.4,1345.8,791.4z"/>
        <path d="M534.9,33.7c-1.4,0.1-2.8,0.5-4.2,0.4c-1.8-0.1-3.5-0.5-5.3-0.8c1.7,1.2,3.4,2.5,5.2,3.6c0.7,0.5,1.6,0.7,2.4,1
	c-0.7,0.8-1.3,2-2.2,2.5c-4.4,2.2-9,4-13.4,6.3c-3.5,1.8-6.7,4.2-10.1,6.2c-0.6,0.4-1.5,0.4-2.3,0.4c-1.3-0.1-2.6-0.3-3.9-0.4
	c1,0.5,2,1,2.9,1.7c0.3,0.2,0.5,0.9,0.4,1c-1.6,1.4-3.2,3.6-4.9,3.7c-1.8,0-3.6-2.1-5.5-3.2c-0.8-0.5-1.6-0.8-2.4-1.1
	c0.4,0.6,1,1.1,1.2,1.7c0.4,1.1,0.5,2.3,0.8,3.5c-2.4-0.2-5.4,0.5-6.9-0.7c-2.4-2-4.1-1.4-6.1-0.2c-0.4,0.2-0.6,0.8-0.9,1.2
	c4.9,0.9,0,7.5,4.8,8.4c0.1,0,0.3,1.1,0.1,1.3c-1.4,1.6-3.8,2.9-4.2,4.6c-0.8,3.5-2.4,2.7-4.5,1.8c-0.4-0.1-0.9,0.1-1.4,0.1
	c0.3,0.5,0.6,0.9,0.9,1.4c0.4,0.6,0.9,1.1,1.3,1.7c-0.7,0.2-1.5,0.5-2.2,0.5c-1.4,0-2.9-0.5-4.3-0.3c-1,0.1-2.8,1.1-2.8,1.6
	c0,4.3-3.5,5.3-6.2,6c-2.7,0.7-2.3,2.8-3.3,4.2c0.9,0.3,1.9,0.6,2.7,1.1c0.4,0.3,1,1.2,0.8,1.5c-0.9,1.5-1.7,3.4-3.1,4.1
	c-2.5,1.3-5.3,2-8,2.6c-0.4,0.1-1.6-1-1.7-1.7c-0.3-2.3-2.4-3.7-4.3-2.7c-0.3,0.2-0.6,0.3-0.9,0.4c-0.6-2.2-2.9-2.1-4.4-3.2
	c-0.9-0.7-2.3-0.6-3.5-0.7c-0.1,0-0.1,1.5-0.5,1.8c-0.8,0.6-2.1,1.3-2.7,1c-3-1.3-5.8-3-8.7-4.5c-3.2-1.6-3.3-5.1,0.1-6.7
	c2.8-1.3,6.2-1.5,9.3-2.1c0.9-0.2,1.9,0.2,2.9,0.3c-0.3-1.1-0.5-2.1-0.8-3.2c-0.2-0.9-0.6-1.8-0.4-2.6c0.4-1.6,0.9-4.2,1.9-4.5
	c2.8-0.9,4.5,1.1,4.4,3.8c-0.3,4.4,2.6,5.1,5.8,5.5c0.5,0.1,1-0.4,1.6-0.7c-0.4-0.4-0.7-0.8-1.2-1c-4.2-2.1-4.4-4.7-0.8-7.6
	c0.7-0.5,1-1.6,1.4-2.4c-0.8,0.3-1.7,1-2.4,0.9c-2.1-0.3-4.1-0.9-6.2-1.4c1-1.6,1.7-3.5,3-4.7c6.9-6.5,8.4-6.5,15.9-0.8
	c0.5,0.4,1.1,0.5,1.7,0.7c-0.1-0.6-0.1-1.4-0.4-1.8c-0.5-0.7-1.2-1.4-1.9-1.9c-2.4-1.5-1.8-1.3-1-3.8c0.9-2.8,0.3-6.1,0.7-9.1
	c0.1-1.1-3.8-3.9,1.2-3.4c-0.3-0.6-0.9-1.3-0.7-1.8c0.5-1.6,1-3.3,2.1-4.5c0.5-0.6,2.3-0.5,3.3-0.1c3.3,1.5,5.7,3.9,5.7,8
	c0,0.8,0.6,1.7,0.9,2.5c0.4-0.8,0.8-1.6,1-2.4c0.2-0.6,0.3-1.3,0.1-2c-0.9-3.9,0.5-4.6,4.1-3.6c3.1,0.9,6.4,0.9,9.6,1.3
	c0.4,0,1.2,0,1.3-0.2c1.6-3.3,1.8-3.4,5.7-2.5c0.8,0.2,1.5,0.2,2.3,0.4c-0.6-0.7-1.6-1.2-1.9-2c-0.4-1.1-6.6,0.8-1.6-3
	c0.3-0.2,0.2-0.8,0.3-1.2c-0.8,0.2-1.7,0.1-2.3,0.5c-2.3,1.5-4.2,3.7-6.7,4.5c-2.1,0.7-4.8-0.3-7.2-0.6c-0.2,0-0.3-1.2-0.2-1.9
	c0-0.4,0.6-0.7,0.9-1c-0.9-0.1-1.9-0.3-2.8-0.2c-2,0.3-4.2,1.5-6,1c-2.4-0.6-5.5-2.1-1.4-5.1c0.4-0.3,0.7-1,1-1.5
	c-0.6,0.1-1.2,0.2-1.7,0.4c-1.6,0.6-3.9,2.1-4.5,1.6c-1.4-1.3-2.1-3.5-3.1-5.4c1.6-0.2,3.3-0.6,4.9-0.5c1.6,0.1,3.2,1,4.7,0.9
	c2.2-0.2,4.4-1.1,6.6-1.7c-2,0.2-4,0.8-5.9,0.6c-2.9-0.3-5.8-1.1-8.7-1.8c-0.3-0.1-0.6-1.9-0.3-2.2c1-1.1,2.4-1.8,3.7-2.7
	c0.6-0.4,1.2-0.8,1.8-1.2c-0.8,0-1.6,0.1-2.4,0.1c-0.7,0-1.5,0.1-2.2,0.1c0.5-0.6,1-1.2,1.5-1.8c0.5-0.6,0.9-1.3,1.4-1.9
	c-0.8,0-1.6,0-2.3,0.1c-0.8,0.1-1.5,0.3-2.3,0.5c0.4-0.9,0.7-2.6,1.2-2.7c2.8-0.3,5.4-5.9,8.3-0.4c0.8-0.5,1.6-0.8,2.3-1.4
	c0.7-0.6,1.2-1.5,1.8-2.2c0.9,2.6,3.1,3.4,5.5,4c1.2,0.3,2.2,1.3,3.3,1.9c-0.3-0.9-0.8-1.9-0.7-2.8c0.2-1.3-4.2-4,1.1-4
	c0.3,0,0.7-1.2,1-1.8c0.3-0.6,0.7-1.7,0.8-1.7c0.9,0.2,2.1,0.4,2.5,1.1c0.8,1.1,0.7,2.9,1.6,3.9c0.7,0.8,3.1,1.6,3.3,1.3
	c1.1-1.6,1.8-3.5,2.6-5.3c0.3-0.7,0.5-1.4,0.7-2.1c0.7,0.6,1.6,1,2,1.7c0.7,1.3,1.2,2.7,1.7,4.1c-0.1-1.4-0.4-2.9-0.4-4.3
	c0.1-1.1,0.6-2.3,0.9-3.4c0.7,0.8,1.4,1.6,2.1,2.5c0.7,0.9,1.2,1.8,1.8,2.7c0.3,0.3,0.9,0.4,1.3,0.6c-0.1-0.5-0.2-1.1-0.2-1.6
	c0-1.6,0-3.2,0-4.8c1.3,0.6,2.6,1.3,3.9,1.9c1.5,0.7,4.2,0.4,3.1,3.5c-0.1,0.2,0.9,0.6,1.3,1c0.4-0.7,0.9-1.4,1.1-2.1
	c0.5-1.4,1.2-4.2,1.4-4.2c3,0.5,6.8-0.4,8.1,3.7c0.2,0.5,0.5,0.9,0.8,1.4c2.1-4,5.4-0.4,8.1-1.2c0.9-0.3,2.4,1.5,3.7,2.2
	c1.7,0.9,3.5,1.7,5.2,2.6c1.2,0.6,2.4,1.3,3.6,2c-1,0.8-2.1,1.5-3.1,2.3c-0.6,0.5-1.3,1-1.9,1.4c0.9,0,2.3,0.3,2.6-0.1
	c2.7-4.4,5.7,1.6,8.4-0.3c0,1.7,0.1,3.3,0.1,5c0,0.7-0.3,1.8-0.1,1.9c3.8,1.7,4.9,4.9,1.8,7c-4.3,2.8-9.2,4.7-13.8,7
	C535.3,34.6,535.1,34.1,534.9,33.7z"/>
        <path d="M412.4,124c2,0.3,3.2,0.3,4.3,0.7c0.9,0.3,1.5,1.1,2.3,1.7c-0.7,0.6-1.2,1.5-2,1.8c-8.3,3.1-9.7,11.1-12.7,17.9
	c-0.5,1.1,0.2,3,0.8,4.3c0.6,1.2,1.7,2.2,2.6,3.3c0-1.4,0.5-3,0.1-4.2c-1.2-3.5-0.6-5.3,3.5-5.3c0.6,0,1.2-1,1.8-1.5
	c-0.5-0.2-1.3-0.4-1.6-0.8c-0.4-0.6-0.8-1.7-0.6-2.1c2.1-2.9,3.9-6.3,6.7-8.2c2.3-1.6,5.8-1.5,8.8-2.2c4.6-1.1,5.2,0,4.6,4.6
	c-0.6,5-0.9,9.9-4.8,13.7c-0.2,0.2-0.1,0.9-0.1,1.3c0.5-0.2,1.2-0.2,1.5-0.6c1.9-1.8,3.8-4.8,5.6,0.2c2.6-2.6,3.6,0.7,5.3,1.4
	c0.1,0.1,0.4-0.3,0.6-0.4c-0.3-0.4-0.6-0.8-0.8-1.2c-0.5-0.9-1-1.8-1.4-2.7c1.1-0.5,2.3-1.5,3.1-1.3c2.1,0.6,4.1,1.8,6.1,2.9
	c2.4,1.3,3.2,2.9,0.5,4.8c1,0.9,2.8,1.9,2.7,2.6c-0.2,1.2-2.6,2.7-2.4,3.2c0.8,1.7,2.3,3.1,3.8,4.4c0.4,0.3,1.8-0.4,2.6-0.8
	c1-0.5,1.8-1.3,2.7-2c1,1.5,1.9,3.1,2.8,4.6c-1,0.5-2.1,1-3.1,1.4c-0.4,0.2-0.8,0.2-1.2,0.3c0.4,0.1,0.8,0.3,1.1,0.4
	c0.8,0.4,1.5,0.9,2.3,1.2c0.6,0.2,1.2,0.1,1.9,0.2c-1.7,3.8,0.4,3,2.9,2.8c1.1-0.1,2.4,1.7,3.7,2.6c-0.7,0.7-1.5,1.4-2.2,2.2
	c-0.6,0.6-1.5,1.1-1.6,1.8c-0.1,0.7,0.4,1.6,0.7,2.4c0.8-0.6,1.5-1.1,2.3-1.7c0.4-0.3,0.9-0.7,1.3-1c0.6,1.3,1.4,2.6,1.8,4
	c0.1,0.3-0.6,1.1-1.1,1.2c-0.9,0.2-2,0.1-2.9,0.2c-0.6,0.1-1.2,0.4-1.8,0.7c0.5,0.5,1,1.1,1.6,1.5c0.4,0.3,1,0.2,1.4,0.5
	c1.1,0.8,2.1,1.8,3.1,2.7c-1.3,0-2.6,0.2-3.8-0.1c-1.6-0.4-1.2-0.4-1.7,1.1c-0.3,1.2-1.5,2.2-2.5,3.1c-0.4,0.4-1,0.6-1.6,0.9
	c0.3,0.5,0.6,1.1,1,1.5c1.2,1.1,5-0.7,3.6,3.5c-0.2,0.7,2.8,2.3,4.2,3.6c1.8,1.7,5.9,1.8,4,6c-0.1,0.1,0,0.4,0.1,0.5
	c2.2,1.2,4.5,2.1,6.6,3.5c1.2,0.8,2.1,2.3,3.1,3.4c-1.2,1-2.6,3-3.6,2.8c-2.2-0.4-2.1-0.6-1.6,1.6c0.2,1-2.7,3.8-3.6,3.6
	c-3.9-1.1-3.2,1.5-3.4,3.5c-0.2,2.1,0,3.8-2.9,1.5c-3.8-3.1-4.3-5.7-0.8-9.5c0.3-0.3,0.4-0.8,0.7-1.2c-0.4,0.1-0.9,0.1-1.2,0.3
	c-2.8,2.5-4.3,0.7-5.6-1.7c-0.5-0.9-1-1.8-1.5-2.7c-0.7,1.1-1.5,2.2-2.1,3.4c-0.3,0.6-0.3,1.3-0.4,2c-0.7-0.3-1.4-0.5-2.1-0.9
	c-0.5-0.3-0.9-0.8-1.3-1.3c0,0.8-0.2,1.9,0.2,2.3c3.1,3.2,1.2,8.9,6.6,11.4c1.8,0.8,2.4,5.9,2.2,8.9c-0.3,2.9-2.4,5.6-3.8,8.3
	c-0.1,0.1-0.9,0.1-1.1-0.1c-3.7-3.3-7.4-6.7-11.1-10c-0.3-0.3-0.9-0.2-1.3-0.3c0,0.7-0.2,1.6,0.2,2.2c2.1,3.3,4.4,6.4,6.4,9.8
	c0.7,1.2,0.5,3,0.7,4.5c-1.4-0.5-2.9-0.7-4.1-1.5c-4.6-3-9.2-6.1-13.6-9.4c-1.3-1-5.2-2.4-1.2-5c0.1-0.1-0.1-1.1-0.5-1.6
	c-0.5-0.6-1.5-1-1.8-1.7c-2.9-8.5-9-7.5-15.8-5.9c-1.6,0.4-4-1.4-5.6-2.7c-0.4-0.3,0.9-3.1,1.9-4.4c1.9-2.5,3.6-3.4,7.2-1.2
	c2.7,1.6,7.2,0,10.9-0.3c0.2,0,0.2-1.9,0.3-2.9c0.1-1.4-0.5-3.5,0.3-4.2c3-2.7,7.3-4.3,9.4-7.5c1.9-2.9,1.8-7.2,1.9-10.9
	c0-0.5-2.8-1.9-2-4.2c-3.8,1.9-2.4-8-7.5-3.4c-0.2,0.2-1.3-0.4-1.9-0.7c0.4-0.4,0.8-1.1,1.3-1.2c3-0.4,2.4-1.3,1.2-3.5
	c-1.6-2.8-4.6-5.6-2.3-9.5c0.2-0.3-0.8-1.2-1.3-1.8c-0.8-1-1.8-2-2.5-3.1c-0.3-0.4,0.2-1.3,0.3-2c-0.6,0.4-1.4,0.7-1.8,1.3
	c-0.4,0.6-0.7,1.5-0.7,2.3c0.1,1.7,0.5,3.5,0.7,5.2c-1.7-0.5-3.6-0.7-5.2-1.5c-1.9-0.9-3.1-0.6-3.7,1.4c-2-0.7-4-1.3-5.9-2
	c-3.6-1.3-7.3-2.3-10.8-3.8c-2.3-1-4.2-3.1-6.5-3.7c-3.2-0.8-4.4-2.5-4.5-5.4c0-1.3,0.3-2.6,0.4-3.9c1.2,0.4,2.4,0.8,3.6,1.1
	c1.3,0.3,2.7,0.5,4.1,0.7c-1-1.1-1.8-3-2.9-3.3c-5.9-1.3-5.4-4.1-2.9-8.4c4.2-7.4,9.5-13.8,16.5-18.6
	C408.4,124.7,411,124.5,412.4,124z"/>
        <path d="M315.6,119.3c3.7,0.5,7,0.8,5.9-4.7c-0.1-0.3,0.5-1.1,0.6-1c0.6,0.2,1.6,0.5,1.6,0.8c0.2,2.8,0.6,5.6,0.2,8.4
	c-0.2,2.1-1.7,4-2.1,6.1c-0.2,1.2,0.4,2.6,0.7,3.9c1-1,2.4-1.8,2.9-3c1.6-4.1,2.7-8.4,4.4-12.5c0.9-2.1,2.5-5.1,4.2-5.4
	c2.8-0.5,6.1,4.8,5.1,8.1c-2,6.3-4.6,12.4-6.8,18.6c-0.4,1.1-0.3,2.7,0.2,3.7c2,3.8,4.4,7.3,6.3,11.2c0.6,1.3,0.1,3.2,0.1,4.9
	c-1.2,0-3.3,0.4-3.6-0.2c-2.2-4.6-5.5,2.6-7.6-0.8c-0.2,0.5-0.6,1.1-0.4,1.3c0.5,0.7,1.1,1.4,1.9,1.8c0.7,0.4,1.6,0.5,2.5,0.7
	c-0.4,1.4-0.3,3.4-1.3,4.2c-2.9,2.5-10.7,0.1-12.6-3.3c-1-1.7-4.7-1.7-3-5.1c-0.6,0.1-1.3-0.1-1.7,0.2c-8.1,5.5-17.3,6-26.6,4.9
	c-3.9-0.5-3.3-3.5-2-5.7c2-3.3,1.5-4.8-2.4-5c-4.8-0.4-6-3.8-5.9-7.7c0.1-2.9,1.6-5.3,5-4.6c4.5,0.9,8.8,2.3,13.3,3.2
	c2,0.4,4,0.5,6,0.7c-1.1-1.6-1.9-3.6-3.3-4.7c-2-1.4-4.5-2.2-6.9-2.9c-3-0.8-6.2-1-9.1-2.1c-1-0.4-1.8-2.6-1.7-3.9
	c0-1,1.4-2.6,2.4-2.8c3.2-0.7,6.5-0.8,9.8-1.2c0.6-0.1,1.2-0.3,1.8-0.5c-0.6-0.3-1.1-0.7-1.7-0.8c-2.1-0.3-4.2-0.5-6.3-0.8
	c-1.1-0.1-1-0.2-0.9-1.5c0-0.4-0.5-1.1-0.8-1.2c-5-0.7-1.7-2.8-0.5-4c6.4-6.4,14.2-10.1,23-11.7c1.2-0.2,2.4,0.1,3.6,0.1
	c-0.4,1.2-0.5,2.5-1.1,3.6c-1,1.6-2.3,2.9-3.5,4.3c2.7,1.2,3.9-1.7,5.7-2.1c1.5-0.4,3.8,1.7,5.5,3c0.2,0.2-0.9,2.4-1.7,3.4
	c-0.5,0.6-1.6,0.7-2.5,1C313.4,118.6,314.5,119,315.6,119.3z"/>
        <path d="M1375.3,632.2c-2.8-1.7-5.7-3.3-8.5-5c-0.1-0.1,0.2-1.4,0.5-1.5c2.7-1.2,5.6-3.3,8.2-3c3.2,0.3,7.5,1,6.1,7
	c-0.4,2,3.1,4.9,4.9,7.3c0.2,0.2,1.3,0,1.7-0.4c2.5-2,5.8-3.6,7.2-6.3c2.1-4,4.2-2.4,6.8-1.4c9.1,3.4,18.4,6.4,27.4,10
	c3.6,1.4,7.6,2.5,8.7,7.8c0.3,1.6,4.7,2.4,7.2,3.5c2,0.9,3.7,2.4,0.8,3.6c-3.9,1.6-1.5,3.3-0.4,4.5c4.1,4.5,8.5,8.8,12.7,13.2
	c0.6,0.6,0.9,1.6,1.3,2.3c-0.8-0.2-1.7-0.4-2.5-0.6c-1.6-0.5-3.2-1.5-4.7-1.3c-6.6,0.8-9.2-4.1-12.5-8.2c-1-1.2-2.4-2.1-3.5-3.2
	c-4.7-4.4-8.4-1.6-11.9,1.8c-0.3,0.3-0.1,1-0.2,1.5c-0.3,1-0.7,2.7-0.8,2.7c-4.1-0.5-9.2,0-12-2.2c-3.1-2.5-5.1-3.8-8.8-2.5
	c-1.3,0.5-3-0.2-4.6-0.3c1.3-1.4,2.6-2.7,3.7-4.1c0.5-0.6,1.2-1.6,1.1-2.1c-1.7-6.1-5-10.4-11.7-11.7c-3.1-0.6-6-2.6-9-3.8
	c-1.8-0.7-4.1-4.6-5.6,0.4c0,0.1-1.7,0-2.4-0.4c-0.3-0.1,0.1-1.3-0.2-1.8c-1-2.8-0.4-4.3,2.1-4.9c1.2-0.3,2.3-0.8,3.4-1.2
	c-1.3-0.3-2.7-0.5-4-0.8C1375.7,631.4,1375.5,631.8,1375.3,632.2z"/>
        <path d="M1263.6,627.4c-0.5-0.1-1.3,0-2-0.3c-2.8-1.4-3.5-14.1-0.8-15.7c0.8-0.4,2.2,0.3,3.4,0.6c2.6,0.7,5.2,1.8,5.9-2.5
	c0.2-1.2,1.7-2.9,2.8-3.1c4.9-0.9,6.8-4.8,9.5-8.2c0.9-1.1,2-2.3,3.2-2.8c3.4-1.3,5.9-3.3,7.5-6.7c0.6-1.4,2.4-2.8,3.8-3
	c0.9-0.1,2,2.2,3.2,3.1c1.8,1.4,3.9,2.5,5.8,3.8c0.5,0.4,0.9,1,1.3,1.6c-2.1,1.5-4.8,2.5-6.2,4.5c-1.2,1.6-1.8,4.9-0.9,6.5
	c1.8,3.1,0.5,8.1,5.4,9.3c-0.5,0.6-1.2,1.9-1.5,1.8c-3.4-1.3-3.8,1.2-4.7,3.4c-1.1,2.7-2.8,5.1-3.9,7.8c-1.3,3-1.8,6.4-3.2,9.3
	c-1.9,4-4.2,4.2-7.8,1.6c-1.2-0.9-3-1.6-4.5-1.6c-3.4-0.2-6.4,1.1-10.4-0.8C1265.1,633.8,1263.2,633.8,1263.6,627.4z"/>
        <path d="M933,736.8c-0.3-1.4-1.1-2.8-0.9-4.2c0.2-2.7,0.3-5.8,1.6-8.1c2.5-4.7,6-8.6,3.2-14.9c-2.4-5.5,2.1-12.1,10.1-12.5
	c4.6-0.2,7.1-3.8,9.7-6.5c2.7-2.8,3.9-7,5.9-10.5c0.2-0.3,1.9-0.2,1.9,0c1.2,5.2,2.4,10.4,3.5,15.6c0.1,0.3-0.2,0.6-0.2,1
	c-0.3,1.6-4.2-2.9-3,1.8c0.4,1.6-0.8,3.7-1.4,5.6c-1.4,5-2.7,10.2-4.4,15.1c-2.2,6.6-4.8,13-7.3,19.5c-2.5,6.6-10.8,9.8-15.7,5.8
	c-2-1.7-3-4.6-4.5-7C932,737.3,932.5,737.1,933,736.8z"/>
        <path d="M934.3,181.4c-3-0.6-6.3-1.2-9.4-2.1c-0.7-0.2-1.2-1.6-1.5-2.5c-1.1-2.8-1.9-5.3-6-3.7c-1,0.4-3.7-1.1-4.3-2.3
	c-0.6-1.2,0.5-3.2,1-4.8c0.5-1.4,2.1-3.7,1.8-3.9c-4.3-3.6-0.3-6.5,0.6-9.6c0.3-1.1,0.7-3,0.5-3.1c-5.4-2.3-0.5-4.8,0.2-6.7
	c1.2-3.6,3-6.9-0.2-10.2c-2-2.1-0.4-1.5,1.1-2.2c3.2-1.6,3.8-5.3,5.6-8.2c2-3.2,4.2-6.5,7.1-8.7c2.2-1.7,5.9-1.4,8.5-2.9
	c1.9-1.1,3-3.5,4.7-5.1c1.9-1.8,3.8-3.8,6.1-4.6c0.9-0.3,3.3,1.9,4.3,3.5c1.6,2.6,1.6,5.2-1.6,7.1c-6.7,4.1-12.2,9.4-16.2,16.3
	c-1.5,2.7-4.8,4.5-5.9,7.2c-1.4,3.3-1.4,7.1-1.9,10.8c-0.3,2.5,0.9,6.1-3.9,5.2c-0.1,0-0.5,0.8-0.4,0.9c4.9,3.2,0.6,8.1,2.3,12.3
	c2.1,5.1,4.3,9.4,9,12.5c0.9,0.6,4.7,0.4,2.3,3.4C937.2,180.6,935.7,180.8,934.3,181.4z"/>
        <path d="M432.8,27.7c3.2,0,5,0.1,6.8-0.1c0.3,0,0.8-1.8,0.5-2.4c-2-3.7-0.7-4.4,2.9-3.8c0.7,0.1,1.4-0.6,2.2-0.9
	c0.8-0.3,1.7-0.6,2.5-0.9c-0.8-0.7-1.6-1.3-2.3-2.1c-0.5-0.5-1-1.2-1.5-1.8c0.6-0.2,1.2-0.6,1.9-0.7c3.3-0.1,5.5,2.6,5.1,6.1
	c-0.3,2.5-0.9,4.9-0.9,7.4c0,1.5-0.7,3.2,2.5,3.7c2.9,0.4,2.4,10.8-0.6,13.1c-0.5,0.4-1.1,0.6-1.6,1c0.6,0.1,1.2,0.1,1.7,0.3
	c3.7,1.6,4.2,6.2,1,8.7c-1,0.8-1.5,2.2-2.4,3c-0.7,0.6-1.8,0.6-2.7,0.8c0.3-0.6,0.7-1.2,0.9-1.9c0.1-0.3,0-0.8,0-1.1
	c-1.1,0.2-2.5,0.1-3.1,0.8c-2,2-3.6,4.5-5.7,6.6c-1.4,1.4-3.3,2.4-5,3.6c-0.2,0.1-1-0.3-1-0.5c0-4.9-2.5-0.3-3.6-1
	c-1.4-0.8-3.5-0.8-4.4-1.9c-0.7-0.9-0.2-2.8-0.2-4.3c0-1.8,0.1-3.6,0.2-5.4c0-3.5,2.2-3.3,4.6-2.6c0.6,0.2,1.2,0.7,1.8,0.7
	c1-0.1,1.9-0.6,2.8-1c-0.6-0.5-1.2-1.3-1.9-1.6c-1.4-0.6-3.2-0.6-4.1-1.6c-1.2-1.2-1.8-3.1-2.7-4.7c2.2-1.2,1.7-3.4,2.3-5.3
	c0.8-2.6,1.9-5.6,5.6-2.4c0.6,0.5,2,0.2,3,0.3c-0.6-0.6-1.3-1.1-1.9-1.7c-1-1.1-2.2-2.1-2.8-3.4C432.1,29.9,432.6,28.8,432.8,27.7z"
        />
        <path d="M1390.4,391.9c-1.5,2.7-2.4,4.3-3.3,6c-0.2,0.4-0.5,1-0.4,1.4c1,5.1,2.2,10.1,3,15.3c0.3,1.7-0.5,3.6-1,5.3
	c-0.2,0.6-1.3,0.8-2,1.2c-0.2-0.8-0.4-1.5-0.6-2.3c-0.1-0.7-0.2-1.5-0.2-2.2c-0.5,0.6-1,1.1-1.4,1.8c-2.8,4.3-6.4,6.5-11.6,4.4
	c-0.2-0.1-0.9,0.8-1,1.3c-0.2,1.1,0.2,2.3-0.3,3.2c-0.8,1.6-2.1,2.9-3.2,4.3c-1.3-1.6-2.6-3.2-3.8-4.8c-0.2-0.2-0.4-0.7-0.3-0.9
	c0.3-0.6,0.8-1.2,1.3-1.8c-1-0.1-2-0.4-2.9-0.1c-4.8,1.9-9.6,4-14.4,6.1c-0.5,0.2-0.8,0.9-1,1.5c0,0.1,0.7,0.8,1,0.7
	c3.9-0.8,3.4,3.2,3.7,4.5c0.6,2.7-0.1,5.8-0.7,8.6c-0.2,1-0.6,4.9-3.5,0.9c-1.1-1.6-3.5-2.2-3.2-4.5c0.2-1.4,0.4-2.8,0.4-4.2
	c0-0.6-0.6-1.1-0.9-1.7c-0.2,0.6-0.2,1.5-0.6,1.6c-0.6,0.2-1.4,0-2.1,0c0.1-1-0.2-2.2,0.3-2.9c3.6-4.8,6.7-10.2,11.2-14.1
	c2.6-2.2,7.4-1.8,11.2-2.8c1-0.3,2.6-1.2,2.7-2c0.6-3,0.7-6,1.2-9c0.1-0.7,0.9-1.2,1.4-1.8c0.1,0.6-0.1,1.5,0.2,1.7
	c1,0.7,2.9,1.8,3.1,1.6c1.7-1.8,3.5-3.8,4.4-6c2.2-5.2,5.3-10.4,0.4-16.2c-1.1-1.3,0.2-4.7,0.6-7.1c0-0.3,0.8-0.6,1.2-0.6
	c2,0.3,1.9,0.3,1.2-1.9c-0.1-0.4,0-0.9,0.1-1.3c0.6,0.1,1.5,0.1,1.7,0.4C1384.8,380.8,1387.6,386.3,1390.4,391.9z"/>
        <path d="M308.1,97.7c1,4.1-1.1,5.3-4.8,6.3c-6.3,1.6-12.8,2.5-18.6,6.9c-3.2,2.4-6.5,4.5-9,7.8c-1.4,1.8-2.7,1.5-4.6-0.1
	c-0.3-0.3-1.5,0.4-2.3,0.7c-1.7,0.5-3.4,1-5.2,1.4c0-1.4,0-2.8,0.1-4.2c0-0.7,0.3-1.5,0.1-2c-4.9-8.6,4.8-9.4,7.2-14
	c2.8-5.4,10.9-6.6,10.5-14.1c0-0.7,0.4-1.7,1-2.2c1.4-1.3,12.6,0.2,14,1.7c1.5,1.6,2.9,3.1,4.4,4.7c0.2,0.2,0.5,0.6,0.6,0.6
	c5.7-1.1,6-0.9,6.4,5C307.9,96.8,308,97.3,308.1,97.7z"/>
        <path d="M1236.8,649.4c-3.6-3-7.3-5.8-10.7-8.9c-4.8-4.5-7.6-10.2-10.8-16c-5.2-9.3-10.3-19.3-19.9-25.6c-1.1-0.7-2.2-1.6-2.9-2.7
	c-0.7-1.2-1-2.7-1.4-4.1c1.3,0.1,2.6,0.3,4,0.4c9.2,0.7,13.4,8.6,19.7,13.6c3.2,2.5,6.7,4.7,10,7.1c2.7,1.9,5.3,3.9,7.8,6
	c0.3,0.2,0.1,1.1-0.1,1.7c-0.7,2.3-1.4,4.6,2.3,4.9c0.2,0,0.5,0.1,0.5,0.1c1.1,5.9,11.1,6.9,8,15c-0.3,0.7-0.2,1.7-0.1,2.5
	C1243.8,648,1241.5,649.2,1236.8,649.4z"/>
        <path d="M727.1,331.2c1.4,0.7,3.4,1.1,4,2.2c0.6,1.1-0.4,3-0.4,4.5c0,1.6-6.1,3.3,0,4.9c-0.5,0.8-1,2.3-1.7,2.4
	c-4.7,1.2-9.4,2-14.1,3.1c-4.3,1-8.5,2.2-12.7,3.3c-0.7,0.2-1.5,0.3-2.3,0.4c0.5-0.6,0.9-1.2,1.5-1.7c2.9-2.3,4.1-7.3,9.3-5.9
	c0.3,0.1,0.7-0.6,1-1c-0.4-0.2-0.8-0.5-1.3-0.6c-2.3-0.5-4.6-1-6.9-1.6c-0.5-0.1-1-0.5-1.5-0.8c0.3-0.5,0.5-1.3,0.9-1.5
	c2.5-1.4,5.9-2.4,2.1-5.9c1-0.9,1.9-2,3-2.5c3.3-1.3,4.1-4,1.8-6.6c-0.3-0.4-1-0.8-1-1.1c0.8-4.6-2.2-2.9-4.4-2.9
	c-0.5,0-1.3-1.5-1.4-2.4c-0.2-1.5,0.1-3.1,0.1-4.6c-0.6,0-1.2,0-1.8-0.1c0,0.9,0.1,1.7,0.1,2.5c-0.5-0.7-0.8-1.8-1.5-2.1
	c-0.6-0.3-1.5,0.2-2.3,0.4c0.2-0.5,0.4-1.1,0.7-1.6c0.5-0.7,1.8-1.7,1.6-2c-3.1-5.2,0.5-9.5,2.2-13.7c0.6-1.5,4.6-1.5,7.1-2.2
	c-0.3,0.9-0.5,1.9-0.9,2.8c-0.4,1-1,1.9-1.5,2.9c1.1,0.2,2.1,0.5,3.2,0.5c5.6,0.2,5.7,0.4,3.1,5.5c-0.7,1.4-1.4,2.9-2.2,4.3
	c-0.3,0.5-0.8,0.9-1.1,1.4c0.5,0,1.1-0.1,1.6,0.1c0.9,0.3,2.3,0.6,2.5,1.3c2.9,6.6,9.8,10.8,10.8,18.5c0.1,0.4,0.9,0.7,1.3,1.1
	C726.5,332,726.8,331.6,727.1,331.2z"/>
        <path d="M416.2,92.4c-1.4,0.4-2.9,0.7-4.2,1.2c-0.3,0.1-0.7,1.3-0.6,1.4c3.2,2.3,6.9,4.1,9.5,6.9c3.6,4,7.5,1,11.1,1.2
	c4.7,0.4,9.5-0.2,12.9,4c0.8,0.9,2.1,2.4,1.8,3.1c-0.9,2.4-2.2,4.7-3.6,6.8c-2.2,3.3-6.1,3.3-9,2.8c-2.6-0.5-4.4-2.8-8.1-2.3
	c-3.9,0.5-8.1-1.3-12.2-2.3c-0.9-0.2-2.3-0.7-2.5-1.3c-0.3-1,0.2-2.3,0.4-3.5c-1.3,0.6-2.9,2-3.9,1.6c-2.2-0.8-5.7-2.4-5.8-3.8
	c-0.1-3.1,1.3-6.4,2.5-9.5c0.6-1.6,2.7-2.7,2.9-4.2c0.6-3.7,0-7-4.5-8.1c-5-1.2-1.9-6.2-4-8.8c1.5-0.7,2.9-2,4.4-2
	c1.2,0,2.5,1.4,3.6,2.4c2.7,2.5,2.8,8.5,8.8,6.7c0,2.9,1.1,5.2,3.3,7.1c-0.8,0.4-1.6,0.8-2.4,1.2C416.4,93,416.3,92.7,416.2,92.4z"
        />
        <path d="M330.9,86.4c1,0,2,0.1,3,0c0.7-0.1,1.2-0.7,1.9-1c-0.6-0.2-1.2-0.7-1.7-0.6c-3.9,1-7.2-2.6-11.6-0.8
	c-1.5,0.6-4.8-2.9-7.2-4.5c0.9-1.3,1.6-2.9,2.8-3.7c0.6-0.5,2.2,0.6,3.3,0.5c1.1,0,2.2-0.5,3.2-0.7c-0.8-0.4-1.7-0.8-2.5-1.2
	c-0.7-0.4-1.3-0.8-1.9-1.2c0.5-0.6,1-1.5,1.7-1.7c1-0.4,2.2-0.5,3.4-0.6c0.8-0.1,1.6-0.1,2.4-0.1c-0.7-0.4-1.4-0.6-1.9-1.1
	c-0.5-0.5-0.9-1.8-0.9-1.8c2.9-1.4,5.9-2.8,8.9-4.1c0.4-0.2,1.4,0.2,1.4,0.3c-0.4,4.4,6.5,5.6,4.5,10.9c-1.6,4.2,0.9,6.5,5.2,6.8
	c0.6,0,1.2,0,1.8,0c-1.5-3.6,3-5.6,2.4-9c-0.3-2.1,4.3-7.6,6.3-7.3c0.5,0.1,1.5,1.1,1.4,1.6C356,70.6,355,74.3,354,78
	c-0.1,0.4-0.2,1.3-0.1,1.3c1.3,0.4,2.6,1.2,3.8,1c1.1-0.1,2-1.3,3-2c0.2,1.6,1.2,3.6,0.6,4.9c-3.1,6.5-9.6,9-16.4,7.6
	c-3.2-0.7-6.9,0.3-10.3,0.7c-3.3,0.3-6.7,1.2-10,1c-1.3-0.1-2.4-2.5-3.6-3.9c1.3-0.7,2.4-1.6,3.8-1.9c1.9-0.4,3.9-0.4,5.9-0.6
	C330.8,86.2,330.8,86.3,330.9,86.4z"/>
        <path d="M774,109.8c-1,0.3-2.8,1.1-4.7,1.5c-0.7,0.1-2.1-0.4-2.2-0.9c-0.2-0.7,0.2-2,0.8-2.4c1.9-1.5,4.2-2.6,5.9-4.3
	c0.9-0.9,1.1-2.6,1.6-4c-0.6,0.6-1.2,1.4-2,1.9c-0.4,0.3-1.1,0.4-1.6,0.6c-0.1-0.4-0.1-0.9-0.2-1.3c-0.2-0.9-0.4-1.7-0.6-2.6
	c-0.6,1-1.3,1.9-1.9,2.9c-0.1,0.2,0.3,0.7,0.2,0.9c-0.7,1.4-1.5,2.7-2.2,4c-1-0.7-2.2-1.1-2.9-2c-1.8-2.1-3.5-4.4-5.1-6.7
	c0,0,0.7-0.5,0.9-0.8c0.3-0.3,0.6-0.8,0.5-1c-0.7-1.2-1.4-2.5-2.3-3.6c-0.5-0.6-2-0.8-2.1-1.4c-0.6-3.6,4.8-8.3,8.2-7.2
	c0.2,0.1,0,1.3-0.1,2c-0.1,0.7-0.4,1.4-0.6,2.2c0.9-0.2,1.8-0.2,2.5-0.6c0.8-0.4,1.5-1.2,2.3-1.8c0.5,1,1.2,1.9,1.6,2.9
	c0.3,0.9,0.2,2,0.6,2.9c0.7,1.5,1.7,2.8,2.5,4.2c-0.3-1.2-0.7-2.4-0.9-3.7c-0.3-2-0.8-3.9-0.8-5.9c0-1.6,0.4-3.2,0.7-4.8
	c1.4,0.5,3,0.7,4.1,1.6c1.7,1.4,3,3.4,4.5,5c2.6,2.8,5.2,5.6,7.8,8.4c0.5,0.5,1.1,1,1.6,1.5c-0.7,0.3-1.5,0.4-2,0.9
	c-1.4,1.6-3.3,3.2-3.7,5.1c-1.7,7.4-2.8,14.9-4.2,22.3c-0.1,0.6-0.9,1.1-1.4,1.6c-1-1-2.5-1.8-2.9-2.9c-0.5-1.7-0.7-2.9-3-3.6
	c-1.6-0.5-2.9-2.6-4-4.2c-0.5-0.7-0.3-1.8-0.4-2.8c0.7,0.1,1.5,0.1,2.2,0.2c1.5,0.2,3.8,1.2,1.8-1.9c0.9-0.4,1.8-0.7,2.6-1.1
	c0.7-0.4,1.3-0.9,1.9-1.3C776.3,109.8,775.6,109.8,774,109.8z"/>
        <path d="M1537.7,880.8c-1,1.8-1.6,3.3-2.6,4.3c-2.8,3-5.7,5.8-8.6,8.7c-0.2,0.2-0.7,0.6-0.6,0.7c1.6,5.4-3.8,3.7-5.6,5.6
	c-3.4,3.6-6.3,7.6-9.8,11.2c-3,3.2-6.1,6.2-9.6,8.7c-1,0.7-3.5-0.4-5.1-1.2c-1.7-0.7-3.1-2-4.7-3c-4.6-2.9,0.7-6.2,1.1-6.6
	c4.4-4.2,9.5-7.6,14-11.7c5.2-4.8,13.3-6,16.3-13.8c1.4-3.6,4.7-6.4,7.3-9.6c0.4-0.5,1.5-1,1.6-0.9
	C1533.4,875.8,1535.4,878.2,1537.7,880.8z"/>
        <path d="M639.1,235.6c0.3,0.7,0.7,1.7,1.2,2.7c1.1-1.3,2.2-2.6,3.1-4c0.4-0.7,0.3-1.7,0.5-2.6c0.5,0.7,1,1.4,1.6,2
	c0.4,0.4,0.9,0.7,1.3,1c1.5-5.7,5.9-1,8.6-2.4c2.7-1.4,5.1-3,8.3-1.7c0.3,0.1,0.8-0.3,1.2-0.5c0.2,3.2,0.9,6.2,4.3,7.7
	c-2.3,2.6-1.1,7.1-5.2,8.8c-4.3,1.8-8.2,4.6-12.5,6.4c-2,0.8-4.6,0.7-6.9,0.4c-3.6-0.5-7.1-1.4-10.6-2.2c-0.6-0.2-1.3-0.7-1.7-1.3
	c-0.2-0.3,0.2-1.1,0.5-1.5c0.7-0.9,1.6-1.6,2.4-2.4c-1.4-1.1-2.7-2.3-4.2-3.3c-0.8-0.6-1.8-1-2.7-1.4c0.9-0.2,1.8-0.5,2.7-0.7
	c0.8-0.1,1.8,0.1,2.4-0.3c1.1-0.7,1.9-1.8,2.8-2.7c-0.8-0.4-1.6-1.1-2.5-1.1c-1.2-0.1-2.4,0.3-3.7,0.3c-0.9,0-1.7-0.4-2.6-0.6
	c0.4-0.6,0.6-1.4,1.2-1.7c1.8-1.2,2.4-6,6.1-2.2c0.1,0.1,0.6-0.2,0.6-0.3c0.2-1,0.3-2,0.5-2.9c1.2,1.8,2.3,3.6,3.4,5.4
	C639.5,234.5,639.2,234.9,639.1,235.6z"/>
        <path d="M1545.9,871c-1.2-1.6-2-2.9-3.1-4c-3.8-3.7-3.6-4.9,1.3-6.6c1-0.3,1.8-1.4,2.4-2.4c4.5-7.9,2.8-16,0.7-24.2
	c-0.5-1.8,0.2-3.9,0.4-5.8c1,1.1,1.9,2.6,3.2,3.4c4.9,3.1-0.2,7,0.9,10.4c0.4,1.2,0.3,2.7,0.5,4c0.1,0.4,0.7,0.6,1.1,0.9
	c0.2-0.5,0.5-0.9,0.7-1.4c0.3-0.7,0.6-1.5,1-2.3c0.3,0.7,0.7,1.4,0.9,2.2c0.3,1.1,0.5,2.3,0.6,3.4c0.5,4.6,3.2,6,7,3.9
	c0.7-0.4,1.7-0.4,2.5-0.6c0,0.9,0.2,1.8-0.1,2.6c-1.4,4-3.2,7.8-8.1,8.8c-1,0.2-2.4,1.5-2.4,2.2c0.1,7.3-6.6,9.7-10.2,14.3
	c-0.5,0.7-2.6,0.2-3.9,0.2c0.3-1.2,0.2-2.6,0.8-3.7C1543.1,874.7,1544.4,873.1,1545.9,871z"/>
        <path d="M350,125.6c0-0.3-0.2-0.7,0-1c0.9-1.5,1.9-2.9,2.8-4.4c1,1,2.1,1.9,3,3c0.7,0.9,1.2,1.9,1.8,2.9c0.6-0.7,1.5-1.3,1.8-2.1
	c0.5-1.4,1.3-3.3,0.8-4.3c-1.4-2.5-1.7-2.3,1.2-3.2c0.3-0.1,0.6-0.5,0.7-0.9c0.8-4,2.3-4.5,6-2.4c1.5,0.8,3.5,0.6,5.2,1
	c1,0.3,1.9,0.9,2.8,1.4c-0.6,0.6-1.4,1.2-1.6,1.9c-1.1,3.3-4.3,3.8-6.8,5.2c-0.2,0.1,0,1-0.1,1.6c5.5-0.6,1.8,5,4.4,6.4
	c-2.4,3-4.7,6.2-7.4,8.9c-1.7,1.6-4,2.7-6.1,3.8c-3.4,1.6-3.1-1.4-3.6-3.2c-1-3.3-1.8-6.6-3-9.7c-0.5-1.4-1.9-2.6-2.9-3.8
	C349.4,126.2,349.7,125.9,350,125.6z"/>
        <path d="M1371,315.3c0.3,8.5,2.2,14.4,8.4,18.4c0.9,0.6,1,2.3,1.5,3.4c-0.8-0.5-1.5-1.3-2.3-1.4c-1.6,0-4.8-2.2-3.7,2.3
	c0.2,0.6-0.1,1.3-0.1,1.9c-0.6-0.4-1.6-0.8-1.7-1.3c-0.7-2.4-1.2-5-1.9-7.4c-2-6.7-3.7-13.5-6.2-20c-2.1-5.6-5.2-10.7-7.7-16.2
	c-2.2-4.8-4.1-9.6-6.1-14.5c-0.2-0.4,0.2-1.5,0.5-1.6c3.8-1.4,1.2-3,0.2-4.6c-0.4-0.7-0.8-1.4-1.2-2.2c1,0.3,2.3,0.3,2.9,0.9
	c1.8,2.1,4.2,4.2,4.8,6.7c2.7,11.9,10.8,20.9,16.3,31.4c0.2,0.4,4.2,3.6-1,2.4C1372.7,313.3,1371.4,315,1371,315.3z"/>
        <path d="M481.3,349.1c3,0.3,7.6-1.5,3.1,3.9c-1.1,1.4-0.4,4.3-0.4,6.5c0,0.2,0.3,0.5,0.5,0.7c1.7-2,2.5,1,3.9,0.7
	c-0.3,1.5-0.4,3.2-1.1,4.5c-0.3,0.7-2.2,1.5-2.4,1.3c-1.2-1.3-5-1.7-2.1-4.9c0.3-0.4-0.1-1.5-0.2-2.2c-0.5,0.4-1,0.8-1.5,1.2
	c-1.7,1.4-3.4,2.9-5.2,4.3c-0.4,0.3-1.3,0-1.9-0.1c0.3-0.5,0.5-1.1,0.9-1.5c1-1,2-1.9,3-2.8c-1.8-0.3-3.6-0.9-5.4-0.9
	c-4-0.1-8.1,0.2-12.1,0.1c-0.3,0-1-1.7-0.8-2.1c4.3-6.3,8.5-12.7,13.2-18.7c1.6-2,4.7-2.8,7.1-4.2c-1.4,2-2.8,4.1-4.3,6.1
	c-0.7,0.9-1.6,1.8-2.1,2.8c-0.4,0.8-0.5,1.7-0.7,2.6c0.6-0.5,1.2-1.2,1.8-1.3c0.9-0.1,1.8,0.3,2.7,0.5
	C474.3,352.7,480.5,347.7,481.3,349.1z"/>
        <path d="M1203.5,59.3c-2.4-3.3-9-1.2-10.2-7.7c-0.4-2-2.1-4-3.6-5.6c-2.7-2.9,1.1-5,0.6-7.6c0.9,0,1.9-0.3,2.5,0.1
	c2.7,1.6,5.3,3.4,8,5.1c0.5,0.3,1.1,0.4,1.6,0.5c-0.1-0.6-0.4-1.1-0.4-1.7c-0.2-1.9-0.5-3.7-0.6-5.6c0-0.2,1.2-0.8,1.4-0.6
	c1.6,1.2,4.4-0.1,4.7,4.1c0.4,4.5,4,8.2,9.2,9.2c0.6,0.1,1.2,0.5,1.9,0.7c-0.6,0.5-1.4,1.6-1.8,1.5c-3.2-1-4.4,1.5-6.5,3
	c-1.8,1.3-3.6,1.4-2.4,4C1206.8,58.8,1205.6,59,1203.5,59.3z"/>
        <path d="M1317.1,636.5c-0.6-0.8-1.1-1.5-1.7-2.3c-0.5,0.9-1.4,1.8-1.6,2.8c-0.5,2.9-0.5,5.9-1.1,8.7c-0.2,1-1.5,1.7-2.3,2.6
	c-0.8-1-2.3-2.2-2.1-2.9c0.9-3.3,2.3-6.3-2.3-8c-0.4-0.1-0.6-1.6-0.4-2.3c1.6-5.6,2.7-11.4,5.2-16.5c1.1-2.2,4.1-4.7,8.6-4
	c5.1,0.9,11.1,4.4,15.6-1.8c0.3-0.3,1.2-0.2,1.7-0.3c0,0.7,0.3,2,0,2.2c-2.6,1.5-5.2,3.7-8.1,4c-4.3,0.5-8.7-0.4-13.1-0.3
	c-1.2,0-3.5,1.9-3.3,2.5c0.4,2.1,1.7,4,2.8,5.9c0.1,0.1,1.9-0.9,2.9-1.2c3.2-0.9,6.5-1.6,9.7-2.4c0.3-0.1,0.7,0.5,1.1,0.7
	c-0.4,0.4-0.7,0.8-1.2,1.1c-0.7,0.4-1.8,0.3-2.2,0.9c-2,2.8-9.6,3.7-2.9,9.6c1.2,1.1,0.7,4.7,4,5.1c0.1,0,0.2,0.7,0.2,0.7
	c-2.6,0.9-5.4,2.8-7.8,2.3c-1.3-0.3-1.9-4.3-2.9-6.7C1316.6,636.9,1316.8,636.7,1317.1,636.5z"/>
        <path d="M1012.8,45.4c-0.7-5.9-0.9-10.9,4.6-12.5c3.1-0.9,7.5-1.6,9.8,0c2.9,2,4.3,6.2,6.3,9.6c0.1,0.2-0.6,1.1-0.5,1.3
	c0.5,0.4,1.3,0.5,1.6,1c1,1.2,1.9,2.6,2.8,3.9c-1.8,1-3.6,2.6-5.5,2.7c-3.7,0.1-7.3-0.5-11-1.2c-1.2-0.2-2.3-1.2-3.4-1.9
	c-1.4-0.8-2.8-1.7-4.2-2.6C1012.9,45.4,1012.4,45.2,1012.8,45.4z"/>
        <path d="M387.1,113.1c4.7,2,8.7,3.6,12.6,5.5c0.4,0.2,0.4,2.5-0.2,3.1c-3.2,3.4-6.5,6.7-10.1,9.6c-1,0.8-3.2,0.4-4.7,0
	c-2-0.6-4-3.5-3.9,1.7c0,1.8-3.5,3.7-5.4,5.5c-0.7-0.8-2-1.9-1.8-2.4c2-5.5,3.8-11.2,6.5-16.3C381.5,117.1,384.7,115.3,387.1,113.1z
	"/>
        <path d="M1377.9,360.4c-1-4.3-2-8.5-2.9-12.7c-0.2-0.9-0.2-1.8-0.2-2.7c1,0.3,2.1,0.3,2.9,0.8c2.2,1.7,4.1,3.9,6.4,5.4
	c2,1.3,5,3.5,6.5,2.8c3-1.4,3.2,0.4,4.7,1.9c3.9,3.6,1.5,4.4-1.7,5.9c-1.7,0.8-3.7,3.1-3.7,4.6c0,3.8-1.7,3-3.4,1.7
	c-2.9-2.3-5.6-3.9-9.1-1.2c-0.6,0.4-1.5,0.5-2.2,0.7c0.7,0.6,1.4,1.1,2.1,1.7c1.1,0.8,2.3,1.6,3.4,2.4c-1.3,1-2.7,2.1-4.1,3.1
	c-0.2,0.1-0.8,0.1-0.8,0c-1-3.2-2.3-6.3-2.5-9.6c-0.1-1.1-0.3-5.5,3.9-3.8C1377.3,361.4,1377.7,360.7,1377.9,360.4z"/>
        <path d="M686,323.3c0.7-1.2,1.2-2.6,2.1-3.6c1-1.1,2.2-2.6,3.4-2.8c2.7-0.3,6.1-1.3,7.4,2.3c0.5,1.4,0.1,3.2-0.1,4.8
	c-0.2,1.7-1.1,3.5-1,5.2c0.2,4.3-0.1,7.9-5.6,8.6c-1.8,0.2-3.5,2.2-5.3,2.5c-2.2,0.3-4.5-0.4-6.8-0.7c0.5-1.5,1.3-3,1.6-4.6
	c0.4-2.1,5-4.1,0.2-6.7c-0.7-0.4-0.3-3.3,0.1-5c0.1-0.6,1.8-0.8,2.7-1.2C685,322.5,685.5,322.9,686,323.3z"/>
        <path d="M331.8,45.8c1.3,0.8,2.6,1.6,3.9,2.2c0.6,0.2,1.4,0.1,2-0.1c0.9-0.3,1.7-0.9,2.5-1.3c-0.1,1.6,0.3,3.5-0.5,4.6
	c-1.1,1.8-3,3.1-4.7,4.6c-3.1,2.8-6.1,5.5-9.3,8.2c-0.3,0.3-1.6,0.2-1.7,0c-0.3-0.8-0.6-2-0.3-2.7c0.8-1.6,2.1-3,3-4.5
	c0.3-0.5,0.2-1.3,0.3-2c-0.8,0.2-1.8,0.1-2.2,0.6c-1.4,1.3-2.3,3.1-3.8,4.3c-2.6,2.2-5.3,4.1-8,6.1c-0.5-0.9-1.2-1.8-1.6-2.8
	c-0.2-0.6,0-1.3,0.1-2c-0.5,0.4-1,1.1-1.5,1.1c-1.9-0.1-3.8-0.4-5.7-0.6c0.6-1.4,0.9-3.3,1.9-4c2.5-1.5,5.4-2.3,8-3.6
	c4.3-2.1,8.5-4.3,12.8-6.4C328.6,46.8,330,46.4,331.8,45.8z"/>
        <path d="M790.8,76.2c0.3-1.1,0.7-2.3,1-3.4c0.5,1,0.8,2.1,1.5,3c0.3,0.4,1.4,0.8,1.6,0.6c4.1-3.5,7.3,1.2,10.9,1.3
	c0.1,0,0.6,3,0.2,4.3c-0.6,2.1-1.6,4.4-3,6c-1.1,1.2-3.6,1.2-4.8,2.4c-2.2,2.3-2.6,0.8-4.4-0.5c-1.9-1.4-5.1-1-7.7-1.7
	c-0.8-0.2-1.5-1.1-2.2-1.7c0.8-0.1,1.7,0,2.4-0.3c1.2-0.6,2.3-1.5,3.4-2.3c-1.2,0-2.5-0.3-3.7-0.1c-3.2,0.7-6.8,2.4-6.9-3.3
	c0-0.7,0.6-1.4,1.1-2c0.1-0.2,0.8-0.2,0.8-0.3c0.3-1.7,0.5-3.4,0.7-5.1c1.3,1.1,2.6,2.4,4.1,3.4c1.2,0.9,2.7,1.4,4,2.1
	c0.4,0.2,0.8,0.4,1.2,0.6c0.1-1,0.1-1.9,0.2-2.9C791,76.3,790.9,76.2,790.8,76.2z"/>
        <path d="M392.6,227.1c0.6,0.4,1.2,0.7,1.8,1.1c0.8,0.6,1.7,1.1,2.5,1.7c-1,1-2,2-3,2.9c-1.4-1.5-5.1,0.4-5.1-3.6
	c0-1.1-1.8-2.2-2.7-3.3c-0.8,0.8-1.5,1.6-2.3,2.3c-2.1,1.7-4.1,3.7-6.4,5.1c-1.7,1-3.9,1.3-2.9-2.1c0.1-0.5,0.3-0.9,0.4-1.4
	c-7.9-2.1-0.8-4.9-0.1-7c1.3-4.1,3.2-7.9,5.2-11.8c0.4-0.7,2-0.7,3.1-1.1c0,5.7,6.5,6.6,8.1,11.1c0.6,1.7,1.7,3.3,2.6,4.9
	C393.3,226.2,392.9,226.7,392.6,227.1z"/>
        <path d="M394.1,34.4c6.9,0.4,7.5,1.1,6,5.8c-0.2,0.6-0.3,1.2-0.5,1.7c0.5-0.3,1-0.7,1.6-0.9c1-0.3,2.1-0.5,3.1-0.7
	c0.2,1.1,0.5,2.2,0.6,3.3c0,0.4-0.9,1-0.8,1.1c6.7,6.7-4.5,9.8-3.3,15.5c0.1,0.4-2.7,1.5-4.2,2.3c-0.2-1.3-0.9-2.8-0.7-4
	c0.7-3.4-2.4-7.5-6.3-8.2c-1.2-0.2-2.4-0.7-3.3-1.4c-0.3-0.2,0.4-2.4,0.8-2.5c1-0.2,2.2,0.8,3.1,0.5c1.3-0.3,2.3-1.4,3.5-2.1
	c-1.3-1.5,1.9-4.1-1.5-5.3c-0.5-0.2-0.8-2.5-0.3-3.5C392.4,35.1,393.9,34.6,394.1,34.4z"/>
        <path d="M1399,874.8c0-4.2-0.1-8.3,0-12.5c0.1-3,2.1-2.3,3.3-0.9c3,3.6,6.8,3.3,10.3,2c4.8-1.7,3.8,0.7,2.8,3.4
	c-1.5,4.1-3.1,8.2-4.8,12.3c-0.1,0.3-1.1,0.3-1.7,0.4c-1.5,0.5-3,0.9-4.4,1.5c-0.9,0.4-2.1,2-2.3,1.9c-1.2-0.8-2.5-1.9-3.1-3.2
	c-0.7-1.4-0.6-3.2-0.8-4.8C1398.6,874.8,1398.8,874.8,1399,874.8z"/>
        <path d="M381.3,80.9c0.9-1.4,1.5-3.5,2.8-4.2c1.9-0.9,4.1-0.5,3.8,2.6c0.5-0.1,0.9-0.1,1.4-0.3c0.8-0.3,1.7-0.6,2.5-1
	c0.3,1.4,1.3,3.2,0.8,4c-2.6,4.1-5.7,7.9-8.5,11.9c-0.5,0.7-1,1.5-1.2,2.3c-1.9,5.6-5.7,0.7-8.4,1.5c-0.2-1.5-1-3.6-0.3-4.4
	c1.1-1.2,3.2-1.6,4.9-2.3c0.6-0.3,1.1-0.5,1.7-0.8c-0.7-0.3-1.3-0.7-2-0.8c-2-0.3-3.9-0.6-5.9-0.9c-0.8-0.1-1.5-0.3-2.3-0.5
	c0.6-0.7,1.2-2.2,1.7-2.1c4.1,0.2,3.3-3.5,4.6-5.5c0.4-0.6,0.7-1.2,1.1-1.9c0.5,0.5,1,1,1.4,1.7c0.3,0.6,0.4,1.3,0.6,1.9
	c0.5,1.3,1,2.7,1.5,4c0.4-1.5,0.7-3.1,1.1-4.6C382,81.3,381.7,81.1,381.3,80.9z"/>
        <path d="M1247.9,649.5c2.7,1.4,5.3,3.2,8.2,4.1c2.8,0.8,6.2,1.4,9,0.7c3.3-1,7.9-0.6,10.3,1.9c1.4,1.4,3.6,2.1,5.4,3.1
	c0.9,0.5,2.2,0.8,2.5,1.6c0.4,0.9-0.2,2.2-0.3,3.3c-0.9-0.2-1.8-0.5-2.8-0.7c-2.2-0.4-4.3-0.8-6.5-1.2c-8.7-1.5-17.4-2.8-26-4.5
	c-2.1-0.4-4.1-2-6.1-3.1c-0.1-0.1-0.1-0.9,0.1-1.1c1-1.2,2-2.4,3.2-3.3c0.5-0.3,1.6,0.2,2.4,0.3
	C1247.6,650.1,1247.8,649.8,1247.9,649.5z"/>
        <path d="M1314.4,549.3c-1.4-1.7-3.7-3.8-4.9-6.3c-1.2-2.4-3.5-5-0.5-8.1c1-1,0.5-3.5,0.7-5.3c0.5-6,2.6-7.5,8-5.7
	c0.3,0.1,0.8,0.4,0.7,0.4c-1.3,4.2,4.2,8.8-1,13.2c-1.4,1.1-0.2,5.4,0.1,8.2c0,0.1,2.8-0.4,3.9,0.1c2.1,0.9,4.1,2.3,6,3.7
	c0.5,0.4,0.3,1.6,0.7,2.2c0.6,1.1,1.4,2.1,2.1,3.1c-1.3-0.8-2.7-1.4-3.7-2.4C1324,549.9,1324.1,549.9,1314.4,549.3z"/>
        <path d="M1043.4,49.4c-0.6-1.8-1.5-3.5-1.8-5.3c-0.4-1.8-0.3-3.7-0.3-5.5c0-0.2,0.9-0.7,1.1-0.6c1,0.7,2.5,1.3,2.7,2.2
	c0.4,1.7,0.1,2.4,2.2,1c2.1-1.4,10.4,3.4,11.5,6.3c1.7,4.7-2.7,5.7-5.1,7.8c-1.4,1.2-2.9,2.3-4.3,3.4c-1,0.8-1.8,1.7-2.8,2.6
	c-0.7-1.1-1.7-2.1-2.1-3.3c-0.8-2.8-1.3-5.7-1.9-8.5C1042.8,49.5,1043.1,49.4,1043.4,49.4z"/>
        <path d="M364.3,519.2c-3.6,0-5.7-0.1-7.8,0c-2.3,0.1-4.5,0.4-1.2-2.4c0.2-0.2,0.1-1.6-0.3-1.7c-6.2-3.5-12.8-6.2-19.4-9
	c-6-2.5-9.1,0.6-13.5,1.7c-0.7,0.2-1.6,0.1-2.3,0.1c0.4-0.6,0.7-1.5,1.3-1.9c2-1.4,3.9-3.1,6.1-3.8c8.7-2.7,16.1,1.2,23.6,4.9
	c4.6,2.3,9.3,4.6,13.9,7c1.7,0.9,3.3,1.9,4.9,2.8C367.8,517.8,366,518.5,364.3,519.2C363.8,519.4,363.3,519.4,364.3,519.2z"/>
        <path d="M1008.7,37.7c-3.6-0.9-6.2-1.5-8.7-2.1c-0.3-0.1-0.7-0.2-0.7-0.3c0.2-5.9-2-12.1,2-17.5c0.3-0.4,2.2-0.1,3.1,0.4
	c2.5,1.3,5.2,2.6,7.3,4.5c1.2,1,1.2,3.2,2,4.8c0.6,1.3,2.4,3.3,2.2,3.6C1013.5,33.6,1010.8,35.8,1008.7,37.7z"/>
        <path d="M421.5,912.9c4.5,0.6,4.4,5.5,7.1,7.6c3.4,2.7,7.2,4.9,10.9,7.2c0.9,0.6,2.2,0.6,3.3,0.9c-1.5,0.9-2.9,2.5-4.4,2.5
	c-4.7,0.2-9.3-0.2-14-0.3c-0.6,0-1.7-0.1-1.9,0.3c-2.9,4.9-4.4-2.3-6.8-0.7c0.1-0.4,0.2-1,0.4-1.1c1.7-0.7,3.4-1.3,5.1-1.8
	c1-0.3,2.1-0.4,3.2-0.7c-0.9-0.4-1.7-0.9-2.6-1.3c-0.3-0.2-0.8-0.5-0.8-0.6c2-3.2,0.6-4.6-2.7-4.9c0.4-1.2,0.7-2.5,1.2-3.7
	C420.1,915.3,420.8,914.1,421.5,912.9C421.5,912.9,421.5,912.9,421.5,912.9z"/>
        <path d="M1337.4,590.4c-4.1-0.4-6.2-2.1-6.1-6.4c0-0.9-2.7-2.9-3.1-2.7c-1.9,1.1-5.5-1.8-6,2.5c0,0.1-0.6,0.2-0.9,0.3
	c-0.1-0.5-0.4-1.2-0.2-1.4c1.5-1.7,3.3-3.1,4.7-4.9c1.8-2.4,3.2-3.6,4.5,0.3c0.5-0.2,1.2-0.3,1.5-0.6c1.9-2,3.8-4.2,5.6-6.2
	c0.3-0.3,0.8-0.8,0.8-0.7c1.3,1.2,2.9,2.3,3.6,3.8c1,2.2,1.5,4.7,1.8,7.1c0.1,1.3-0.7,2.6-1.1,4c-0.6-0.6-1.1-1.3-1.8-1.8
	c-0.4-0.2-1.5-0.1-1.5,0c-0.2,1-0.6,2.3-0.1,3.1C1340.5,589.1,1340.5,590.5,1337.4,590.4z"/>
        <path d="M370.4,525.6c1.1,0.1,1.3,0.1,1.5,0.1c2.2-0.1,4.4-0.1,6.6-0.2c-1.2-1.7-2.4-3.4-3.6-5.2c-0.1-0.2,0.4-1.2,0.6-1.2
	c4.7,0.2,9.4,0,13.9,0.9c2.9,0.6,5.4,3.1,8,4.8c0.3,0.2,0.5,1.2,0.4,1.2c-0.7,0.4-1.4,0.9-2.1,0.9c-3.3,0.2-6.6,0.1-9.8,0.4
	c-0.9,0.1-1.7,1.4-2.6,2c-0.7,0.4-2,1.1-2.1,0.9c-2.5-3.6-6.1-2-9.4-2.3c-1.1-0.1-2.2-0.9-3.3-1.4
	C369.4,526.1,370.3,525.6,370.4,525.6z"/>
        <path d="M446.8,142.9c-0.5,0.2-1.4,0.7-2.2,0.7c-2.8-0.1-5.8,0.1-8.4-0.8c-1.5-0.5-3-2.7-3.3-4.4c-0.3-2.3,0.5-4.8,1-7.2
	c0.1-0.6,1-1.5,1.5-1.5C441.7,130.1,446.8,135.6,446.8,142.9z"/>
        <path d="M167.1,330.6c0,0.1-0.3,1.1-0.6,2.1c-0.9-0.4-2.1-0.5-2.6-1.1c-4.4-6-11.3-10.4-12.7-18.4c-0.1-0.5,0.8-1.8,1-1.8
	C157.4,312.4,166.9,324,167.1,330.6z"/>
        <path d="M359.1,165.9c-0.7,0.7-1.1,1.4-1.3,1.4c-4.6-1.6-2.5,1.5-2.3,3.3c0.1,1.3,0,3.5-0.5,3.6c-2.2,0.6-4.9,1.4-6.7,0.6
	c-2.6-1.1-4.8-3.6-7-5.6c-0.2-0.2,0.5-1.9,1.2-2.4c1.3-0.8,3.3-0.9,4.3-1.9c2.2-2.3,3.7-7.7,6.9-0.7c0.4,0.8,2.2,0.9,3.4,1.3
	C357.7,165.6,358.2,165.7,359.1,165.9z"/>
        <path d="M1114.6,579.7c0.4-2.2,1-5.3,1.7-8.3c0-0.1,1.4-0.2,1.6,0.1c2.1,3.1,4.6,6.1,6,9.5c0.8,1.9,0.3,4.9-0.7,6.7
	c-0.7,1.3-4.1,2.5-5,1.9c-1.6-1.2-2.3-3.6-3.2-5.6C1114.6,583.1,1114.8,581.8,1114.6,579.7z"/>
        <path d="M411.9,64.6c-3,0.6-6.8-0.7-5.5-3.2c1.9-3.5-0.4-8.2,3.6-10.7c0.8-0.5,1.6-0.9,2.3-1.4c1.6,3.4,3.3,6.8,4.9,10.2
	C414.7,60.3,417.3,66.9,411.9,64.6z"/>
        <path d="M356.9,45.7c1.6,0.2,3.3,0.3,4.9,0.6c1.4,0.3,2.8,1,4.1,1.5c-1.1,0.7-2.3,1.4-3.3,2.2c-0.5,0.4-1.2,1-1.3,1.6
	c-0.5,3.9-2.9,5.7-6.4,4.3c-1.9-0.7-4.8-3.8-4.5-4.7c1-2.5,3.4-4.4,5.3-6.6C356.1,45,356.5,45.4,356.9,45.7z"/>
        <path d="M1312.4,488.1c-1,5.7-1.9,10.6-2.9,15.5c0,0.2-1.2,0.6-1.4,0.4c-5.2-4.4-5.1-13.2,0.3-17.9c0.6-0.5,2-1,2.3-0.7
	C1311.6,486.2,1312,487.4,1312.4,488.1z"/>
    </g>
</svg>
