<svg xmlns="http://www.w3.org/2000/svg" viewBox="0 0 48 50"><path d="M13 49l-1-1H9c1 0 0 0 0 0H7 6l1-1-1-1H5h1l-1-1v-1H4l1-1-3-3v-1H1h1l-1-2h1l-1-1v-1l1-1-2-1 1-1-1-2h1v-2H0h1v-1-1-1-1l1 1v-2-1h1v-1h1l1-2v-1h1v-1h1l1-1v-1l-3-1H4h2v-1l-2-1h2l-1-2h2c-1 0-1 0 0 0h1l2-2V7L8 6h4-1V5h1c1 0 0 0 0 0h2l1-1 2-1 1-1h2l-1-2 4 1 1 1V1l1 1 3 2 2 2 1-1 1 3V7l1 1v5l-1 2v0a152 152 0 0 0 2-3h2v-1l1 3v1l1 1c4 1 6 3 7 6l1 3 1 1-1 1-3 1v1h3l2 2v1c-1 0-1 0 0 0l-1 1h-3-2l-2 1-3 2-2 1-1 1h-1v1h-1-1l-1 2v1l-1 2-1 1h6l1 2-1 1h-1l-1 1c1 0 0 0 0 0l-1 1-5-1h-8-1-1c-1 0 0 0 0 0l-1-1h-1l-1 1zm2-3v0h0v-1 0h-1c0-1 0-1 0 0l-1-1h-1v-1l-3 1 1-1v-1H9l-1-1-2-3-1-5v-3-2H4c0 1 0 0 0 0l-1-1H2l1 1v1H2l1 3H2l1 1-1 1 2 2H3v1h1v1H3h1v1 1l1 1H4h1l2 1v2h1v2l1-1h1v1l1-2v1h3v1h1zm10-4h-1v1c-1 0 0 0 0 0l-1 2v1l1 1h3v-1h-2s-1 0 0 0v-1-1h1v-1h1v-1-1h1v-1-2l1-1-2-5-4-2-3 1h1l1 1h1s0 1 0 0l1 1v2h1v2l1-1v1l-1 1v3 1zm16-14h1l-1-1h3l1-2h-4-1a49 49 0 0 1-3-1l-1-1h-1 1v-1l-1-1h-1l-2 2-1 1h1v-1 1h2v3c-1 0-1 0 0 0h1v1h2l1 1 2-1h1zM9 34l2 6v0l-1-8 2-5c1-2 3-4 6-4l3-1 3 1 2-1h1c1 0 1 0 0 0v-1h1c1 0 1 0 0 0l1-1v-1h1v-1h-2v1h-1c0-1 0 0 0 0l-1 1s0 1 0 0h-1l-1 1-1 1h-6a11 11 0 0 0-8 12zm23-15l1 2h1v-1h2l1-1-2-5h-1l-1 1-1 3v1zm-22-8l1-1h-1l-2 1v1l-1-1v1h0v1h1v0l-1 1h1l1 2h1v-1-1h1l-1-1H9h2v-1h-1-1 1l1-1h-1zm31 12h2l-1-2-2-2-1 1-1 2 2 1h1zm-7 8l2-1 4-1h-1-1a10 10 0 0 1-5 1l1 1zm3-16l-1-2h-1l1 2h1c0 1 0 0 0 0zm-7 32h-1 1l1 1h1l-2-1zm-1 1l2 1-1-1h-1zm16-18l2 1-2-1zm1 2h1v-1h-2v1h1zm0-3h-2l2 1v-1zM34 47v-1h-1-1l2 1zm0 0M6 17v-1 1zm0 0M2 22zm0 0M13 48v1zm0 0M25 42v-1 1zm0 0"/><path d="M36 18v1h-2v-1-1c-1 0 0 0 0 0v-1-1h1l1 3zm0 0M40 22l-1-1 1-1 1 1 1 1h-1-1zm0 0"/></svg>